<svg width="132" height="60" viewBox="0 0 132 60" fill="none" xmlns="http://www.w3.org/2000/svg">
<mask id="mask0_1586_342" style="mask-type:luminance" maskUnits="userSpaceOnUse" x="0" y="0" width="132" height="60">
<path d="M132 0H0V60H132V0Z" fill="white"/>
</mask>
<g mask="url(#mask0_1586_342)">
<path d="M24.8804 23.4479H17.2461V17.2679H39.5497V23.4479H31.9274V42.7319H24.8804V23.4479Z" fill="white"/>
<path d="M42.8203 17.2679H63.2302V23.2679H49.7954V27.2279H62.0078V32.7719H49.7954V36.7319H63.2302V42.7319H42.8203V17.2679Z" fill="white"/>
<path d="M66.0234 38.9517L69.9426 34.2597C72.4473 36.2637 75.252 37.3197 78.1883 37.3197C80.0813 37.3197 81.1005 36.6597 81.1005 35.5677V35.4957C81.1005 34.4397 80.2613 33.8637 76.8098 33.0597C71.3926 31.8237 67.222 30.2997 67.222 25.0557V24.9837C67.222 20.2557 70.9612 16.8357 77.0738 16.8357C81.3998 16.8357 84.7793 17.9997 87.5363 20.2197L84.0128 25.1997C81.6878 23.5677 79.1468 22.6917 76.8938 22.6917C75.192 22.6917 74.3529 23.4237 74.3529 24.3237V24.3957C74.3529 25.5597 75.228 26.0637 78.7515 26.8677C84.6 28.1397 88.2315 30.0357 88.2315 34.7997V34.8717C88.2315 40.0797 84.1208 43.1637 77.9483 43.1637C73.4421 43.1637 69.1515 41.7477 66.0355 38.9397L66.0234 38.9517Z" fill="white"/>
<path d="M90.377 30.0719V29.9999C90.377 22.5839 96.0815 16.7519 103.788 16.7519C108.99 16.7519 112.32 18.9359 114.574 22.0679L109.264 26.1839C107.814 24.3599 106.137 23.1959 103.704 23.1959C100.144 23.1959 97.6392 26.2199 97.6392 29.9279V29.9999C97.6392 33.8159 100.144 36.8039 103.704 36.8039C106.353 36.8039 107.922 35.5679 109.444 33.7079L114.754 37.4879C112.356 40.7999 109.122 43.2359 103.488 43.2359C96.2255 43.2359 90.377 37.6679 90.377 30.0719Z" fill="white"/>
<path d="M63.2315 0H0V27.228H3.52356V3.528H63.2315V0Z" fill="white"/>
<path d="M68.7676 0H132V27.228H128.476V3.528H68.7676V0Z" fill="white"/>
<path d="M63.2315 60H0V32.772H3.52356V56.472H63.2315V60Z" fill="white"/>
<path d="M68.7676 60H132V32.772H128.476V56.472H68.7676V60Z" fill="white"/>
</g>
</svg>
