<svg width="70" height="70" viewBox="0 0 70 70" fill="none" xmlns="http://www.w3.org/2000/svg">
<circle cx="35" cy="35" r="35" fill="#121212"/>
<path fill-rule="evenodd" clip-rule="evenodd" d="M43.6989 28.792L45.5718 27.856C46.1409 27.572 46.4999 26.9903 46.4999 26.3545C46.4999 25.7186 46.1409 25.137 45.5718 24.853L43.6989 23.917C43.1791 23.6559 42.561 23.6844 42.0658 23.99C41.5715 24.2962 41.2695 24.8361 41.2695 25.4184V27.2904C41.2695 27.8727 41.5715 28.4124 42.0658 28.7188C42.561 29.0244 43.1791 29.0527 43.6989 28.7919V28.792ZM44.9939 26.6992L43.121 27.6361C43.0018 27.6959 42.8593 27.6896 42.7461 27.6192C42.6322 27.5486 42.5637 27.4248 42.5637 27.2914V25.4177C42.5637 25.284 42.6322 25.1602 42.7461 25.0899C42.8593 25.0196 43.0018 25.0132 43.121 25.073L44.9939 26.0099C45.1241 26.0749 45.2067 26.2086 45.2067 26.3546C45.2067 26.5006 45.1241 26.6343 44.9939 26.6992V26.6992Z" fill="white"/>
<path fill-rule="evenodd" clip-rule="evenodd" d="M37.9485 25.5294H22.0795C21.2222 25.5294 20.3998 25.8702 19.7941 26.476C19.1874 27.0823 18.8467 27.905 18.8467 28.7623V45.5737C18.8467 46.4312 19.1874 47.2536 19.7941 47.86C20.3998 48.4661 21.2222 48.8069 22.0795 48.8069H47.9215C48.7788 48.8069 49.6012 48.4661 50.2078 47.86C50.8136 47.2537 51.1544 46.4313 51.1544 45.5737V28.7623C51.1544 27.905 50.8136 27.0824 50.2078 26.476C50.1141 26.3828 50.0152 26.2957 49.9122 26.2149V24.2329C49.9122 23.375 49.5714 22.5532 48.9651 21.9465C48.3593 21.3402 47.537 21 46.6794 21H41.1815C40.324 21 39.5015 21.3401 38.8958 21.9465C38.2894 22.5532 37.9487 23.375 37.9487 24.2329L37.9485 25.5294ZM37.9485 26.8224H22.0795C21.5657 26.8224 21.0717 27.0268 20.7081 27.3909C20.3442 27.7542 20.1399 28.2476 20.1399 28.7623V45.5736C20.1399 46.0884 20.3442 46.5817 20.7081 46.945C21.0717 47.3092 21.5656 47.5135 22.0795 47.5135H47.9215C48.4362 47.5135 48.9296 47.3092 49.2929 46.945C49.6567 46.5817 49.8611 46.0883 49.8611 45.5736V29.0492C49.7454 29.694 49.435 30.2932 48.9651 30.7634C48.8214 30.9068 48.6652 31.0363 48.4996 31.1492V31.1805V43.1565C48.4996 44.9416 47.052 46.3893 45.2665 46.3893H24.7352C22.9501 46.3893 21.5024 44.9416 21.5024 43.1565V31.1805C21.5024 29.3951 22.9501 27.9474 24.7352 27.9474H37.9489L37.9485 26.8224ZM47.2061 40.4007H47.1971H22.7951V43.1561C22.7951 44.2273 23.6635 45.0957 24.735 45.0957H45.2663C46.3378 45.0957 47.2062 44.2273 47.2062 43.1561L47.2061 40.4007ZM37.9485 29.2401H24.7348C23.6633 29.2401 22.7949 30.1085 22.7949 31.18V39.1076H47.197H47.206V31.666C47.0326 31.6951 46.8568 31.7093 46.6789 31.7093H45.3484C44.8821 31.7093 44.432 31.8775 44.0798 32.1819L41.6952 34.2426C41.5029 34.4081 41.2328 34.4469 41.0032 34.3414C40.7731 34.2363 40.6255 34.0067 40.6255 33.7531V32.4013C40.6255 32.2183 40.5525 32.0416 40.4227 31.9124C40.2932 31.7823 40.1168 31.7093 39.9338 31.7093H39.9332C39.4068 31.7093 38.902 31.5004 38.5294 31.1281C38.1577 30.7556 37.9483 30.2514 37.9483 29.7243L37.9485 29.2401ZM48.6192 26.3468V24.233C48.6192 23.7183 48.4149 23.2249 48.0507 22.861C47.6874 22.4974 47.194 22.2931 46.6793 22.2931H41.1814C40.6673 22.2931 40.1739 22.4974 39.8101 22.861C39.4459 23.2249 39.2416 23.7183 39.2416 24.233V26.0776C39.2467 26.11 39.2494 26.1425 39.2494 26.1758C39.2494 26.2095 39.2467 26.242 39.2416 26.2744V29.7245C39.2416 29.9081 39.3146 30.0839 39.4447 30.214C39.5739 30.3438 39.7506 30.4162 39.9336 30.4162H39.9342C40.4606 30.4162 40.9654 30.6259 41.3371 30.9982C41.6956 31.3558 41.9029 31.8368 41.9179 32.3411L43.2343 31.2032C43.822 30.6956 44.572 30.4162 45.3487 30.4162H46.6792C47.194 30.4162 47.6873 30.2119 48.0506 29.8486C48.4148 29.4848 48.6191 28.9913 48.6191 28.4767V26.7243C48.5821 26.6035 48.5809 26.4716 48.6191 26.3469L48.6192 26.3468Z" fill="white"/>
<path fill-rule="evenodd" clip-rule="evenodd" d="M34.3304 33.5759C34.3304 33.0693 34.1291 32.5838 33.7709 32.2259C33.4137 31.8686 32.9281 31.667 32.4215 31.667H32.4197C31.914 31.667 31.4284 31.8686 31.0702 32.2259C30.7121 32.5837 30.5107 33.0693 30.5107 33.5759V35.9731C30.5107 36.4797 30.7121 36.9644 31.0702 37.3226C31.4284 37.6804 31.914 37.8821 32.4197 37.8821H32.4215C32.9281 37.8821 33.4136 37.6804 33.7709 37.3226C34.1291 36.9644 34.3304 36.4797 34.3304 35.9731V33.5759ZM33.0369 33.5759V35.9731C33.0369 36.1363 32.972 36.2928 32.8566 36.4082C32.7412 36.5236 32.5847 36.5885 32.4215 36.5885H32.4197C32.2565 36.5885 32.1 36.5236 31.9846 36.4082C31.8692 36.2928 31.8043 36.1363 31.8043 35.9731V33.5759C31.8043 33.4128 31.8692 33.2562 31.9846 33.1409C32.1 33.0249 32.2566 32.9606 32.4197 32.9606H32.4215C32.5847 32.9606 32.7412 33.0249 32.8566 33.1409C32.972 33.2562 33.0369 33.4128 33.0369 33.5759Z" fill="white"/>
<path fill-rule="evenodd" clip-rule="evenodd" d="M39.4668 33.5759C39.4668 33.0693 39.2655 32.5838 38.9076 32.2259C38.5504 31.8686 38.0648 31.667 37.5579 31.667H37.5564C37.0507 31.667 36.5651 31.8686 36.2069 32.2259C35.8488 32.5837 35.6475 33.0693 35.6475 33.5759V35.9731C35.6475 36.4797 35.8488 36.9644 36.2069 37.3226C36.5651 37.6804 37.0507 37.8821 37.5564 37.8821H37.5579C38.0648 37.8821 38.5503 37.6804 38.9076 37.3226C39.2655 36.9644 39.4668 36.4797 39.4668 35.9731V33.5759ZM38.1736 33.5759V35.9731C38.1736 36.1363 38.1087 36.2928 37.9933 36.4082C37.8779 36.5236 37.7214 36.5885 37.5579 36.5885H37.5564C37.3933 36.5885 37.2364 36.5236 37.1213 36.4082C37.006 36.2928 36.9411 36.1363 36.9411 35.9731V33.5759C36.9411 33.4128 37.006 33.2562 37.1213 33.1409C37.2364 33.0249 37.3933 32.9606 37.5564 32.9606H37.5579C37.7214 32.9606 37.8779 33.0249 37.9933 33.1409C38.1087 33.2562 38.1736 33.4128 38.1736 33.5759Z" fill="white"/>
<path fill-rule="evenodd" clip-rule="evenodd" d="M33.1267 42.0647H25.423C25.066 42.0647 24.7764 42.3544 24.7764 42.7113C24.7764 43.0683 25.066 43.3579 25.423 43.3579H33.1267C33.3933 44.1112 34.1123 44.6512 34.956 44.6512C35.7998 44.6512 36.5188 44.1112 36.785 43.3579H44.4895C44.8465 43.3579 45.1362 43.0683 45.1362 42.7113C45.1362 42.3544 44.8465 42.0647 44.4895 42.0647H36.785C36.5188 41.312 35.7997 40.7715 34.956 40.7715C34.1123 40.7715 33.3933 41.312 33.1267 42.0647ZM34.956 42.0647C35.313 42.0647 35.6027 42.3544 35.6027 42.7113C35.6027 43.0683 35.313 43.3579 34.956 43.3579C34.5991 43.3579 34.3094 43.0683 34.3094 42.7113C34.3094 42.3544 34.5991 42.0647 34.956 42.0647Z" fill="white"/>
</svg>
