<svg width="70" height="70" viewBox="0 0 70 70" fill="none" xmlns="http://www.w3.org/2000/svg">
<circle cx="35" cy="35" r="35" fill="#121212"/>
<path d="M49.8081 41.1245C49.6735 39.4419 49.1351 38.4322 48.5966 37.6245C49.2024 36.0765 49.2024 34.7976 48.5966 33.9226C47.6543 32.4419 45.4331 32.3745 44.0197 32.3745C43.212 31.7688 42.0005 31.8361 41.2601 32.5765C40.3851 33.4515 40.4524 34.9995 41.462 35.7399C41.8658 36.1438 43.0774 37.6245 43.0774 41.1245C43.0774 43.8169 41.7985 43.8169 40.3851 43.8169V36.3457C40.3851 35.6053 40.0485 34.9995 39.4428 34.663C39.6447 34.3265 39.712 33.9899 39.712 33.5861C39.6447 32.5092 38.7697 31.6342 37.6928 31.6342H35.6735C35.337 31.6342 35.0005 31.2976 35.0005 30.9611V28.2688C36.1447 28.2688 37.0197 27.3265 37.0197 26.2495V22.2111C37.0197 20.3265 35.5389 18.8457 33.6543 18.8457H32.3081C30.4235 18.8457 28.9428 20.3265 28.9428 22.2111V26.2495C28.9428 27.3265 29.8851 28.2688 30.962 28.2688V36.3457H29.6158V29.6149C29.6158 28.538 28.6735 27.5957 27.5966 27.5957H20.1928C19.1158 27.5957 18.1735 28.538 18.1735 29.6149V36.3457C17.0293 36.3457 16.1543 37.2207 16.1543 38.3649C16.1543 39.5092 17.0293 40.3842 18.1735 40.3842H20.8658C20.9331 40.3842 22.6158 40.3842 22.8851 41.5284C22.1447 42.3361 21.5389 42.9419 21.5389 44.4226C21.4043 46.3745 23.087 47.9226 25.5774 47.788C25.5774 49.6726 27.0581 51.1534 28.9428 51.1534C30.8274 51.1534 32.3081 49.6726 32.3081 47.788H45.0966C45.0966 49.6726 46.5774 51.1534 48.462 51.1534C50.3466 51.1534 51.8274 49.6726 51.8274 47.788C53.3081 47.788 53.8466 46.5765 53.8466 45.7688C53.8466 43.413 52.0966 41.3938 49.8081 41.1245ZM47.4524 34.5957C47.7216 35.0669 47.7216 35.6726 47.587 36.3457C46.9139 35.538 46.0389 34.5284 45.2985 33.7207C46.1735 33.788 47.0485 33.9899 47.4524 34.5957ZM42.2024 33.4515C42.4716 33.1822 42.9428 33.1822 43.2793 33.4515C43.5485 33.7207 43.6158 34.2592 43.2793 34.5284C42.9428 34.8649 42.4716 34.7976 42.2024 34.5284C41.9331 34.1919 41.9331 33.7207 42.2024 33.4515ZM35.0005 26.9226H33.6543V24.2303C33.6543 23.8265 33.9908 23.5572 34.3274 23.5572H35.6735V26.2495C35.6735 26.5861 35.337 26.9226 35.0005 26.9226ZM30.2889 26.2495V22.2111C30.2889 21.1342 31.2312 20.1919 32.3081 20.1919H33.6543C34.7312 20.1919 35.6735 21.1342 35.6735 22.2111H34.3274C33.2505 22.2111 32.3081 23.1534 32.3081 24.2303V26.9226H30.962C30.6255 26.9226 30.2889 26.5861 30.2889 26.2495ZM33.6543 28.2688V30.9611C33.6543 32.038 34.5966 32.9803 35.6735 32.9803H37.6255C38.0293 32.9803 38.2985 33.2495 38.2985 33.6534C38.2985 34.0572 38.0293 34.3938 37.6255 34.3265H35.6062C33.7216 34.3265 32.2408 32.8457 32.2408 30.9611V28.2688H33.6543ZM35.6735 35.6726H38.3658C38.7024 35.6726 39.0389 36.0092 39.0389 36.3457V43.7495H37.6928V38.3649C37.6928 37.2207 36.8178 36.3457 35.6735 36.3457H32.9812C32.6447 36.3457 32.3081 36.0092 32.3081 35.6726V34.2592C33.1831 35.1342 34.3274 35.6726 35.6735 35.6726ZM33.6543 43.7495C32.5101 43.7495 32.3081 43.5476 32.3081 43.0765C32.3081 41.8649 33.7889 40.788 34.462 40.3842H36.3466V43.7495H33.6543ZM32.9812 37.6919H35.6735C36.0101 37.6919 36.3466 38.0284 36.3466 38.3649C36.3466 38.9034 36.0101 39.038 35.6735 39.038H28.9428C28.6062 39.038 28.2697 38.9034 28.2697 38.3649C28.2697 37.8265 28.6062 37.6919 28.9428 37.6919H32.9812ZM19.5197 31.6342H28.2697V32.9803H19.5197V31.6342ZM20.1928 28.9419H27.5966C27.9331 28.9419 28.2697 29.2784 28.2697 29.6149V30.288H19.5197V29.6149C19.5197 29.2784 19.7889 28.9419 20.1928 28.9419ZM19.5197 34.3265H28.2697V36.3457H19.5197V34.3265ZM20.8658 39.038H18.1735C17.7697 39.038 17.5005 38.7015 17.5005 38.3649C17.5005 38.0284 17.7697 37.6919 18.1735 37.6919H26.9235C26.9235 37.7592 25.0389 39.3072 23.8947 40.4515C23.2216 39.3745 21.7408 39.038 20.8658 39.038ZM28.9428 49.8072C27.8658 49.8072 26.9235 48.9322 26.9235 47.788H30.962C30.962 48.9322 30.0197 49.8072 28.9428 49.8072ZM25.5774 46.4419C22.8851 46.4419 22.8851 45.0957 22.8851 44.4226C22.8178 43.413 23.4235 42.9419 24.0966 42.2015C25.1062 41.0572 26.3851 40.0476 27.2601 39.5092C27.6639 40.1822 28.4043 40.4515 29.0101 40.4515H32.3081C31.6351 41.1245 31.0293 42.0669 31.0293 43.1438C30.962 44.6245 32.5101 45.2976 33.7216 45.163H40.4524C41.7985 45.163 44.4908 45.163 44.4908 41.1245C44.4908 38.7015 43.9524 37.0861 43.4139 36.0765C43.7504 35.9419 44.0197 35.8072 44.2889 35.538C44.4235 35.4034 44.5581 35.2015 44.6254 35.0669C45.6351 36.2111 46.8466 37.6245 47.3178 38.2303C47.8562 38.9034 48.3947 39.7784 48.5293 41.2592C46.2408 41.5957 44.4908 43.5476 44.4908 45.9034V46.5765H25.577L25.5774 46.4419ZM48.462 49.8072C47.3178 49.8072 46.4428 48.9322 46.4428 47.788H50.4812C50.4812 48.9322 49.6062 49.8072 48.462 49.8072ZM51.8274 46.4419H45.7697V45.7688C45.7697 43.8842 47.2504 42.4034 49.1351 42.4034C51.0197 42.4034 52.5005 43.8842 52.5005 45.7688C52.5005 46.1053 52.3658 46.4419 51.8274 46.4419Z" fill="white"/>
</svg>
