<svg width="150" height="123" viewBox="0 0 150 123" fill="none" xmlns="http://www.w3.org/2000/svg">
<path d="M50.1369 55.5443C49.8206 55.2275 49.4449 54.9761 49.0313 54.8046C48.6178 54.6331 48.1744 54.5448 47.7267 54.5448C47.279 54.5448 46.8357 54.6331 46.4221 54.8046C46.0085 54.9761 45.6328 55.2275 45.3165 55.5443L28.271 72.5898C27.9542 72.9061 27.7028 73.2818 27.5313 73.6954C27.3598 74.109 27.2715 74.5523 27.2715 75C27.2715 75.4477 27.3598 75.8911 27.5313 76.3046C27.7028 76.7182 27.9542 77.0939 28.271 77.4102L45.3165 94.4557C45.6324 94.7734 46.0079 95.0255 46.4215 95.1975C46.8352 95.3695 47.2787 95.4581 47.7267 95.4581C48.1747 95.4581 48.6183 95.3695 49.0319 95.1975C49.4455 95.0255 49.8211 94.7734 50.1369 94.4557C50.4538 94.1394 50.7052 93.7637 50.8767 93.3501C51.0482 92.9365 51.1365 92.4932 51.1365 92.0455C51.1365 91.5977 51.0482 91.1544 50.8767 90.7408C50.7052 90.3273 50.4538 89.9516 50.1369 89.6352L35.5017 75L50.1369 60.3648C50.4538 60.0485 50.7052 59.6728 50.8767 59.2592C51.0482 58.8456 51.1365 58.4023 51.1365 57.9546C51.1365 57.5068 51.0482 57.0635 50.8767 56.6499C50.7052 56.2364 50.4538 55.8607 50.1369 55.5443ZM104.682 55.5443C104.366 55.2278 103.99 54.9767 103.577 54.8054C103.163 54.6341 102.72 54.546 102.272 54.546C101.825 54.546 101.381 54.6341 100.968 54.8054C100.554 54.9767 100.178 55.2278 99.8619 55.5443C99.5454 55.8608 99.2944 56.2366 99.1231 56.6502C98.9518 57.0637 98.8636 57.5069 98.8636 57.9546C98.8636 58.4022 98.9518 58.8454 99.1231 59.259C99.2944 59.6725 99.5454 60.0483 99.8619 60.3648L114.497 75L99.8619 89.6352C99.5454 89.9518 99.2944 90.3275 99.1231 90.7411C98.9518 91.1546 98.8636 91.5978 98.8636 92.0455C98.8636 92.4931 98.9518 92.9363 99.1231 93.3499C99.2944 93.7634 99.5454 94.1392 99.8619 94.4557C100.178 94.7722 100.554 95.0233 100.968 95.1946C101.381 95.3659 101.825 95.454 102.272 95.454C102.72 95.454 103.163 95.3659 103.577 95.1946C103.99 95.0233 104.366 94.7722 104.682 94.4557L121.728 77.4102C122.045 77.0939 122.296 76.7182 122.468 76.3046C122.639 75.8911 122.727 75.4477 122.727 75C122.727 74.5523 122.639 74.109 122.468 73.6954C122.296 73.2818 122.045 72.9061 121.728 72.5898L104.682 55.5443ZM86.7506 51.4943C86.3501 51.2939 85.9141 51.1743 85.4675 51.1424C85.0208 51.1106 84.5722 51.167 84.1474 51.3085C83.7225 51.45 83.3297 51.6738 82.9914 51.9672C82.6531 52.2605 82.3759 52.6177 82.1756 53.0182L61.721 93.9273C61.5168 94.3282 61.3939 94.7655 61.3595 95.2141C61.3251 95.6627 61.3798 96.1137 61.5205 96.5411C61.6612 96.9684 61.8851 97.3637 62.1793 97.7041C62.4735 98.0445 62.8322 98.3233 63.2347 98.5244C63.6371 98.7256 64.0754 98.845 64.5243 98.876C64.9732 98.9069 65.4237 98.8486 65.85 98.7046C66.2762 98.5606 66.6697 98.3336 67.0078 98.0367C67.3459 97.7399 67.6219 97.379 67.8199 96.975L88.2744 56.0659C88.4749 55.6655 88.5944 55.2295 88.6263 54.7828C88.6582 54.3362 88.6018 53.8876 88.4603 53.4627C88.3188 53.0379 88.0949 52.6451 87.8016 52.3067C87.5082 51.9684 87.1511 51.6946 86.7506 51.4943Z" fill="#027EBC"/>
<path d="M132.955 0H17.0455C7.64659 0 0 7.64659 0 17.0455V105.682C0 115.081 7.64659 122.727 17.0455 122.727H132.955C142.353 122.727 150 115.081 150 105.682V17.0455C150 7.64659 142.353 0 132.955 0ZM17.0455 6.81818H132.955C138.593 6.81818 143.182 11.4068 143.182 17.0455V27.2727H6.81818V17.0455C6.81818 11.4068 11.4068 6.81818 17.0455 6.81818ZM132.955 115.909H17.0455C11.4068 115.909 6.81818 111.32 6.81818 105.682V34.0909H143.182V105.682C143.182 111.32 138.593 115.909 132.955 115.909Z" fill="#027EBC"/>
<path d="M17.0458 20.4544C18.9286 20.4544 20.4549 18.9281 20.4549 17.0453C20.4549 15.1625 18.9286 13.6362 17.0458 13.6362C15.163 13.6362 13.6367 15.1625 13.6367 17.0453C13.6367 18.9281 15.163 20.4544 17.0458 20.4544Z" fill="#027EBC"/>
<path d="M30.6825 20.4544C32.5653 20.4544 34.0916 18.9281 34.0916 17.0453C34.0916 15.1625 32.5653 13.6362 30.6825 13.6362C28.7997 13.6362 27.2734 15.1625 27.2734 17.0453C27.2734 18.9281 28.7997 20.4544 30.6825 20.4544Z" fill="#027EBC"/>
<path d="M44.3173 20.4544C46.2001 20.4544 47.7264 18.9281 47.7264 17.0453C47.7264 15.1625 46.2001 13.6362 44.3173 13.6362C42.4345 13.6362 40.9082 15.1625 40.9082 17.0453C40.9082 18.9281 42.4345 20.4544 44.3173 20.4544Z" fill="#027EBC"/>
</svg>
