<svg width="130" height="130" viewBox="0 0 130 130" fill="none" xmlns="http://www.w3.org/2000/svg">
<path d="M74.7192 29.6138C71.5695 28.7505 68.2994 28.3128 64.9999 28.3128C44.7705 28.3128 28.3128 44.7705 28.3128 64.9999C28.3128 85.2294 44.7705 101.687 64.9999 101.687C85.2294 101.687 101.687 85.2294 101.687 64.9999C101.687 61.7004 101.249 58.4304 100.386 55.2806C99.7929 53.1169 101.066 50.882 103.23 50.2889C105.393 49.696 107.629 50.9691 108.222 53.1329C109.279 56.9998 109.814 60.991 109.812 64.9999C109.812 89.7093 89.7093 109.812 64.9999 109.812C40.2906 109.812 20.1878 89.7093 20.1878 64.9999C20.1878 40.2906 40.2906 20.1878 64.9999 20.1878C69.0251 20.1878 73.0175 20.7228 76.867 21.778C78.6715 22.2726 79.8567 23.9093 79.8565 25.6943C79.8562 26.0577 79.8072 26.4194 79.711 26.7698C79.1181 28.9336 76.8835 30.2077 74.7192 29.6138ZM122.286 43.7835C120.134 44.4206 118.906 46.6806 119.543 48.8322C121.091 54.0576 121.875 59.497 121.875 64.9999C121.875 96.3609 96.3609 121.875 64.9999 121.875C33.639 121.875 8.12499 96.3609 8.12499 64.9999C8.12499 33.639 33.639 8.12499 64.9999 8.12499C70.5031 8.12499 75.9425 8.9093 81.1669 10.4561C83.3185 11.0934 85.5785 9.86501 86.2155 7.71392C86.3293 7.32925 86.3836 6.94153 86.3836 6.55991C86.3841 4.80669 85.2403 3.18855 83.4733 2.66525C77.4994 0.896542 71.2843 0 64.9999 0C47.6378 0 31.3147 6.76126 19.0379 19.0379C6.76126 31.315 0 47.6378 0 64.9999C0 82.362 6.76126 98.6851 19.0379 110.962C31.3145 123.239 47.6378 130 64.9999 130C82.362 130 98.6849 123.239 110.962 110.962C123.239 98.6851 130 82.362 130 64.9999C130 58.716 129.103 52.5004 127.334 46.5257C126.698 44.3744 124.437 43.1475 122.286 43.7835ZM64.9999 48.7499C65.5974 48.7499 66.2006 48.7829 66.7933 48.8479C69.0246 49.0935 71.0302 47.4829 71.2744 45.2529C71.5192 43.0226 69.9097 41.0162 67.6794 40.7717C66.7896 40.6741 65.8951 40.6251 64.9999 40.6249C51.5594 40.6249 40.6249 51.5594 40.6249 64.9999C40.6249 78.4404 51.5594 89.3749 64.9999 89.3749C78.4404 89.3749 89.3749 78.4404 89.3749 64.9999C89.3749 62.7561 87.5562 60.9374 85.3124 60.9374C83.0686 60.9374 81.2499 62.7561 81.2499 64.9999C81.2499 73.9603 73.9603 81.2499 64.9999 81.2499C56.0396 81.2499 48.7499 73.9603 48.7499 64.9999C48.7499 56.0396 56.0396 48.7499 64.9999 48.7499ZM85.7425 38.5127L87.7661 18.2137C87.8591 17.28 88.2724 16.4074 88.9359 15.7439L103.491 1.1898C104.04 0.640888 104.734 0.260775 105.493 0.0944613C106.251 -0.071852 107.041 -0.0174012 107.77 0.251368C108.498 0.520137 109.134 0.99197 109.603 1.61101C110.071 2.23005 110.352 2.97038 110.413 3.74435L111.567 18.4328L126.255 19.5866C127.03 19.6473 127.77 19.9286 128.389 20.3972C129.008 20.8657 129.48 21.5018 129.749 22.2302C130.018 22.9586 130.072 23.7488 129.906 24.5071C129.739 25.2655 129.359 25.9603 128.81 26.5093L114.256 41.0634C113.592 41.7269 112.72 42.1403 111.786 42.2332L91.4876 44.2578L67.8726 67.8726C67.4958 68.2504 67.048 68.55 66.555 68.7541C66.062 68.9583 65.5335 69.0631 64.9999 69.0624C64.4663 69.0632 63.9378 68.9584 63.4449 68.7542C62.9519 68.5499 62.5042 68.2502 62.1275 67.8724C60.5408 66.2859 60.5408 63.7136 62.1275 62.1272L85.7425 38.5127ZM94.1757 35.8246L109.536 34.2925L116.832 26.9965L107.471 26.2612C106.507 26.1854 105.601 25.7678 104.917 25.0837C104.233 24.3996 103.815 23.4938 103.739 22.5293L103.004 13.1676L95.7073 20.4638L94.1757 35.8246Z" fill="#027EBC"/>
</svg>
