<svg width="70" height="70" viewBox="0 0 70 70" fill="none" xmlns="http://www.w3.org/2000/svg">
<circle cx="35" cy="35" r="35" fill="#121212"/>
<circle cx="35" cy="35" r="35" fill="#121212"/>
<path d="M37.4349 31.2836H28.0228C27.6151 31.2836 27.2852 30.9533 27.2852 30.5459V24.9251C27.2852 24.5178 27.6151 24.1875 28.0228 24.1875H37.4349C37.6305 24.1875 37.8182 24.2652 37.9565 24.4035C38.0948 24.5418 38.1726 24.7295 38.1726 24.9251V30.5752C38.1568 30.971 37.8311 31.2839 37.4349 31.2836ZM28.7604 29.8083H36.6971V25.6628H28.7604V29.8083Z" fill="white"/>
<path d="M45.9105 50.5783H19.5472C19.1399 50.5783 18.8096 50.248 18.8096 49.8407V44.8986C18.8096 44.4912 19.1399 44.1609 19.5472 44.1609H23.8992V20.6605C23.8992 20.2531 24.2295 19.9229 24.6368 19.9229H40.7905C40.9861 19.9229 41.1738 20.0006 41.3121 20.1389C41.4504 20.2772 41.5281 20.4649 41.5281 20.6605V30.1906H42.192C43.2444 30.1906 44.2537 30.6085 44.9979 31.3527C45.7425 32.0969 46.1604 33.1066 46.1604 34.159V39.0494C46.1643 39.226 46.3085 39.3666 46.485 39.3666C46.569 39.3666 46.6497 39.3333 46.7093 39.2737C46.7689 39.2141 46.8022 39.1334 46.8022 39.0494V30.2493H46.1311C45.7234 30.2493 45.3934 29.919 45.3934 29.5117V25.2775C45.3934 24.8702 45.7234 24.5399 46.1311 24.5399H50.3796C50.5752 24.5399 50.7629 24.6176 50.9012 24.7559C51.0395 24.8942 51.1173 25.0819 51.1173 25.2775V39.0488C51.0531 40.6558 50.1583 42.1143 48.7549 42.9C47.3515 43.6854 45.6408 43.6854 44.2372 42.9C42.8335 42.1143 41.939 40.6559 41.8749 39.0488V35.1911H41.543V44.1607H45.9098C46.1054 44.1607 46.2928 44.2384 46.4314 44.3767C46.5697 44.515 46.6474 44.7027 46.6474 44.8983V49.8404C46.6474 50.2477 46.3172 50.578 45.9098 50.578L45.9105 50.5783ZM20.2848 49.103H45.1729V45.6362H40.806C40.3987 45.6362 40.0684 45.3059 40.0684 44.8986V34.4537C40.0684 34.0464 40.3987 33.7161 40.806 33.7161H42.6132C42.8088 33.7161 42.9965 33.7938 43.1349 33.9321C43.2732 34.0704 43.3509 34.2581 43.3509 34.4537V39.0491C43.4036 40.1368 44.0144 41.1204 44.9661 41.6496C45.9181 42.1788 47.0755 42.1788 48.0275 41.6496C48.9792 41.1204 49.59 40.1368 49.6427 39.0491V26.0154H46.8838V28.7743H47.5553C47.7509 28.7743 47.9386 28.852 48.0769 28.9903C48.2152 29.1286 48.2929 29.3163 48.2929 29.5119V39.0497C48.2534 39.6642 47.9027 40.2157 47.3633 40.5121C46.8236 40.8085 46.1699 40.8085 45.6302 40.5121C45.0908 40.2158 44.74 39.6642 44.7006 39.0497V34.1593C44.7006 33.498 44.4378 32.8638 43.9702 32.3962C43.5029 31.9286 42.8687 31.6661 42.2075 31.6661H40.806C40.3986 31.6661 40.0684 31.3359 40.0684 30.9285V21.3983H25.3748V44.8988C25.3748 45.0944 25.2971 45.2821 25.1588 45.4204C25.0205 45.5587 24.8328 45.6364 24.6372 45.6364H20.2851L20.2848 49.103Z" fill="white"/>
<path d="M50.3811 26.0161H47.556C47.1486 26.0161 46.8184 25.6858 46.8184 25.2785V21.7454C46.8184 21.3378 47.1486 21.0078 47.556 21.0078H49.6141H49.6138C50.0053 21.0078 50.3804 21.1632 50.657 21.4399C50.9336 21.7165 51.089 22.0915 51.089 22.4831V25.2491C51.0973 25.4447 51.0271 25.6354 50.8941 25.7793C50.7614 25.9232 50.5767 26.0085 50.3811 26.0161ZM48.2936 24.5408H49.6434V22.5124H48.2936V24.5408Z" fill="white"/>
<path d="M37.4349 31.2836H28.0228C27.6151 31.2836 27.2852 30.9533 27.2852 30.5459V24.9251C27.2852 24.5178 27.6151 24.1875 28.0228 24.1875H37.4349C37.6305 24.1875 37.8182 24.2652 37.9565 24.4035C38.0948 24.5418 38.1726 24.7295 38.1726 24.9251V30.5752C38.1568 30.971 37.8311 31.2839 37.4349 31.2836ZM28.7604 29.8083H36.6971V25.6628H28.7604V29.8083Z" fill="white"/>
<path d="M45.9105 50.5783H19.5472C19.1399 50.5783 18.8096 50.248 18.8096 49.8407V44.8986C18.8096 44.4912 19.1399 44.1609 19.5472 44.1609H23.8992V20.6605C23.8992 20.2531 24.2295 19.9229 24.6368 19.9229H40.7905C40.9861 19.9229 41.1738 20.0006 41.3121 20.1389C41.4504 20.2772 41.5281 20.4649 41.5281 20.6605V30.1906H42.192C43.2444 30.1906 44.2537 30.6085 44.9979 31.3527C45.7425 32.0969 46.1604 33.1066 46.1604 34.159V39.0494C46.1643 39.226 46.3085 39.3666 46.485 39.3666C46.569 39.3666 46.6497 39.3333 46.7093 39.2737C46.7689 39.2141 46.8022 39.1334 46.8022 39.0494V30.2493H46.1311C45.7234 30.2493 45.3934 29.919 45.3934 29.5117V25.2775C45.3934 24.8702 45.7234 24.5399 46.1311 24.5399H50.3796C50.5752 24.5399 50.7629 24.6176 50.9012 24.7559C51.0395 24.8942 51.1173 25.0819 51.1173 25.2775V39.0488C51.0531 40.6558 50.1583 42.1143 48.7549 42.9C47.3515 43.6854 45.6408 43.6854 44.2372 42.9C42.8335 42.1143 41.939 40.6559 41.8749 39.0488V35.1911H41.543V44.1607H45.9098C46.1054 44.1607 46.2928 44.2384 46.4314 44.3767C46.5697 44.515 46.6474 44.7027 46.6474 44.8983V49.8404C46.6474 50.2477 46.3172 50.578 45.9098 50.578L45.9105 50.5783ZM20.2848 49.103H45.1729V45.6362H40.806C40.3987 45.6362 40.0684 45.3059 40.0684 44.8986V34.4537C40.0684 34.0464 40.3987 33.7161 40.806 33.7161H42.6132C42.8088 33.7161 42.9965 33.7938 43.1349 33.9321C43.2732 34.0704 43.3509 34.2581 43.3509 34.4537V39.0491C43.4036 40.1368 44.0144 41.1204 44.9661 41.6496C45.9181 42.1788 47.0755 42.1788 48.0275 41.6496C48.9792 41.1204 49.59 40.1368 49.6427 39.0491V26.0154H46.8838V28.7743H47.5553C47.7509 28.7743 47.9386 28.852 48.0769 28.9903C48.2152 29.1286 48.2929 29.3163 48.2929 29.5119V39.0497C48.2534 39.6642 47.9027 40.2157 47.3633 40.5121C46.8236 40.8085 46.1699 40.8085 45.6302 40.5121C45.0908 40.2158 44.74 39.6642 44.7006 39.0497V34.1593C44.7006 33.498 44.4378 32.8638 43.9702 32.3962C43.5029 31.9286 42.8687 31.6661 42.2075 31.6661H40.806C40.3986 31.6661 40.0684 31.3359 40.0684 30.9285V21.3983H25.3748V44.8988C25.3748 45.0944 25.2971 45.2821 25.1588 45.4204C25.0205 45.5587 24.8328 45.6364 24.6372 45.6364H20.2851L20.2848 49.103Z" fill="white"/>
<path d="M50.3811 26.0161H47.556C47.1486 26.0161 46.8184 25.6858 46.8184 25.2785V21.7454C46.8184 21.3378 47.1486 21.0078 47.556 21.0078H49.6141H49.6138C50.0053 21.0078 50.3804 21.1632 50.657 21.4399C50.9336 21.7165 51.089 22.0915 51.089 22.4831V25.2491C51.0973 25.4447 51.0271 25.6354 50.8941 25.7793C50.7614 25.9232 50.5767 26.0085 50.3811 26.0161ZM48.2936 24.5408H49.6434V22.5124H48.2936V24.5408Z" fill="white"/>
</svg>
