<svg width="70" height="70" viewBox="0 0 70 70" fill="none" xmlns="http://www.w3.org/2000/svg">
<circle cx="35" cy="35" r="35" fill="#121212"/>
<path d="M24.7674 28.6282H21.8404C21.5604 28.6282 21.3337 28.8547 21.3334 29.1347V32.0639C21.3334 32.3436 21.5604 32.5706 21.8404 32.5706H24.7674C25.0474 32.5706 25.2742 32.3436 25.2742 32.0639V29.1347C25.2742 28.8547 25.0472 28.6282 24.7674 28.6282ZM24.2605 31.5552H22.3469V29.6414H24.2605V31.5552ZM29.5611 28.6282H26.6336C26.3539 28.6282 26.1271 28.8549 26.1271 29.1347V32.0639C26.1271 32.3436 26.3539 32.5704 26.6336 32.5706H29.5611C29.8411 32.5706 30.0679 32.3436 30.0679 32.0639V29.1347C30.0679 28.8547 29.8409 28.6282 29.5611 28.6282ZM29.0542 31.5552H27.1406V29.6414H29.0542V31.5552ZM31.4273 32.5689H34.3541C34.6333 32.5692 34.8603 32.3432 34.8613 32.0639V29.1347C34.8613 29.0002 34.8078 28.8711 34.7126 28.7762C34.6176 28.6812 34.4886 28.628 34.3541 28.6282H31.4273C31.1476 28.6282 30.9206 28.8547 30.9206 29.1347V32.0639C30.9216 32.3429 31.1481 32.5689 31.4273 32.5689ZM31.9343 29.6414H33.8478V31.555L31.9343 31.5552V29.6414ZM24.7672 33.7667H21.8401C21.5601 33.7667 21.3332 33.9936 21.3332 34.2736V37.2007C21.3332 37.4806 21.5601 37.7076 21.8401 37.7076H24.7672C25.0471 37.7076 25.2739 37.4806 25.2739 37.2007V34.2736C25.2739 33.9936 25.0471 33.7667 24.7672 33.7667ZM24.2602 36.6944H22.3466V34.7801H24.2602V36.6944ZM29.5609 33.7673H26.6333C26.3536 33.7676 26.1268 33.9946 26.1268 34.2743V37.2006C26.1268 37.4803 26.3536 37.7073 26.6333 37.7076H29.5609C29.8409 37.7076 30.0676 37.4806 30.0676 37.2006V34.2736C30.0676 33.9936 29.8409 33.7666 29.5609 33.7666V33.7673ZM29.0539 36.6944H27.1403V34.7801H29.0539V36.6944ZM24.7672 38.9053H21.8402C21.5602 38.9053 21.3332 39.1323 21.3332 39.4123V42.3393C21.3332 42.6193 21.5602 42.8461 21.8402 42.8461H24.7672C25.0472 42.8461 25.2739 42.6193 25.2739 42.3393V39.4123C25.2739 39.1323 25.0472 38.9053 24.7672 38.9053ZM24.2602 41.8324H22.3466V39.9188H24.2602V41.8324ZM29.5609 38.9053H26.6334C26.3536 38.9056 26.1269 39.1326 26.1269 39.4123V42.3393C26.1269 42.6191 26.3536 42.8461 26.6334 42.8461H29.5609C29.8409 42.8461 30.0676 42.6193 30.0676 42.3393V39.4123C30.0676 39.1323 29.8409 38.9053 29.5609 38.9053ZM29.0539 41.8324H27.1404V39.9188H29.0539V41.8324ZM43.4409 38.0111C43.0797 38.0102 42.7332 38.1537 42.4785 38.4097L39.8796 41.0086L39.3054 40.2842C39.0009 39.911 38.5216 39.7267 38.0453 39.7996C37.5692 39.8727 37.1673 40.1922 36.9887 40.6395C36.81 41.0871 36.8817 41.5956 37.1766 41.9764L38.6578 43.8416C38.8887 44.1648 39.2497 44.3706 39.6455 44.4048C39.6858 44.4084 39.726 44.4102 39.7658 44.4102C40.1265 44.4104 40.4722 44.2668 40.7267 44.0114L44.4049 40.3347C44.6601 40.0795 44.8034 39.7333 44.8034 39.3723C44.8034 39.0114 44.6601 38.6651 44.4049 38.4099C44.1497 38.1548 43.8034 38.0112 43.4425 38.0112L43.4409 38.0111ZM43.6868 39.6182L40.0104 43.2949C39.9373 43.3677 39.8359 43.4046 39.7334 43.3952C39.6308 43.3862 39.5373 43.3317 39.4786 43.247C39.4725 43.2384 39.4661 43.2301 39.4595 43.222L37.9697 41.3474H37.97C37.8593 41.1973 37.887 40.9867 38.033 40.8706C38.179 40.7546 38.3908 40.7749 38.512 40.9168L39.4396 42.0841C39.5294 42.1965 39.6629 42.2657 39.8067 42.2738C39.9508 42.2821 40.0911 42.2286 40.1935 42.127L43.1939 39.1266L43.1936 39.1269C43.3303 38.9963 43.5463 38.9988 43.6797 39.1325C43.8135 39.266 43.8159 39.482 43.6854 39.6186L43.6868 39.6182ZM41.0366 34.8689V34.8691C39.4065 34.8691 37.8428 35.5167 36.6902 36.6693C35.5373 37.8222 34.8898 39.3855 34.8898 41.0157C34.8898 42.6461 35.5374 44.2095 36.6902 45.3621C37.8428 46.5149 39.4064 47.1625 41.0366 47.1625C42.6667 47.1625 44.2301 46.5149 45.3829 45.3621C46.5356 44.2095 47.1831 42.6461 47.1831 41.0157C47.1814 39.3861 46.5331 37.8239 45.3807 36.6716C44.2284 35.5193 42.6662 34.8711 41.0366 34.8692L41.0366 34.8689ZM41.0366 46.1491C39.6751 46.1491 38.3694 45.6082 37.4068 44.6455C36.4441 43.6829 35.9032 42.3772 35.9032 41.0158C35.9032 39.6543 36.4441 38.3486 37.4068 37.386C38.3694 36.4233 39.6751 35.8824 41.0366 35.8824C42.398 35.8824 43.7037 36.4233 44.6664 37.386C45.629 38.3486 46.1699 39.6543 46.1699 41.0158C46.1684 42.3767 45.6271 43.6817 44.6647 44.6439C43.7023 45.6063 42.3975 46.1476 41.0366 46.1491ZM50.6461 38.9051L49.4425 38.9053C49.2373 38.0813 48.9107 37.2924 48.4732 36.5645L49.3225 35.713C49.4177 35.6178 49.4715 35.4887 49.4715 35.354C49.4715 35.2193 49.4177 35.0902 49.3225 34.995L47.0546 32.7271C47.0185 32.6915 46.9775 32.6613 46.9329 32.6377V22.8661C46.9324 22.5024 46.7878 22.1537 46.5307 21.8968C46.2735 21.6396 45.9248 21.4948 45.5611 21.4946H44.2907V20.4331C44.2905 20.155 44.18 19.8888 43.9835 19.6922C43.7869 19.4957 43.5204 19.3853 43.2426 19.3848H42.1092C41.8314 19.3853 41.5649 19.4957 41.3684 19.6922C41.1718 19.8888 41.0614 20.155 41.0611 20.4331V21.4946H37.7668V20.4331C37.7665 20.1553 37.6561 19.8888 37.4596 19.6922C37.2632 19.4959 36.9968 19.3853 36.719 19.3848H35.5853C35.3075 19.3853 35.0412 19.4959 34.8447 19.6922C34.6484 19.8888 34.5377 20.1553 34.5375 20.4331V21.4946H31.2429V20.4331C31.2426 20.1553 31.1322 19.8888 30.9356 19.6922C30.7393 19.4959 30.4728 19.3853 30.1951 19.3848H29.0618C28.7838 19.3853 28.5176 19.4957 28.321 19.6922C28.1245 19.8888 28.0138 20.155 28.0135 20.4331V21.4946H24.7194V20.4331C24.7191 20.1553 24.6085 19.8888 24.4122 19.6922C24.2156 19.4959 23.9494 19.3853 23.6716 19.3848H22.5379C22.2601 19.3853 21.9936 19.4959 21.7973 19.6922C21.6007 19.8888 21.4903 20.1553 21.4901 20.4331V21.4946H20.2177C19.854 21.4948 19.5053 21.6394 19.2481 21.8966C18.991 22.1537 18.8462 22.5024 18.8457 22.8661V44.2274C18.8462 44.5911 18.9907 44.9398 19.2479 45.197C19.5051 45.4541 19.8538 45.5989 20.2175 45.5991H33.4681L32.75 46.3172H32.7503C32.6548 46.4121 32.6011 46.5415 32.6011 46.6762C32.6011 46.8109 32.6548 46.94 32.7503 47.0349L35.0179 49.3029V49.3031C35.1129 49.3986 35.242 49.4523 35.3767 49.4523C35.5117 49.4523 35.6407 49.3986 35.7357 49.3031L36.5875 48.4516H36.5877C37.3156 48.8889 38.1043 49.2155 38.9283 49.4209V50.6245C38.9275 50.904 39.1533 51.1313 39.4328 51.1325H42.6403C42.7748 51.1327 42.9041 51.0795 42.9993 50.9843C43.0948 50.8893 43.1483 50.7602 43.1483 50.6255V49.4219C43.9723 49.2165 44.7612 48.8899 45.4891 48.4526L46.3408 49.3041H46.3411C46.436 49.3998 46.5651 49.4535 46.6998 49.4535C46.8348 49.4535 46.9639 49.3998 47.0588 49.3041L49.3226 47.0355C49.4178 46.9403 49.4713 46.8112 49.4713 46.6765C49.4713 46.5418 49.4178 46.4127 49.3226 46.3175L48.4708 45.4659C48.9081 44.7381 49.2347 43.9492 49.4398 43.1251H50.6435C50.7782 43.1259 50.9078 43.0731 51.0035 42.9782C51.0992 42.8832 51.1529 42.7541 51.1534 42.6194V39.4124C51.1534 39.2779 51.0999 39.1488 51.0047 39.0539C50.9095 38.9587 50.7806 38.9054 50.6462 38.9054L50.6461 38.9051ZM42.075 20.4329C42.075 20.413 42.0909 20.3971 42.1108 20.3971H43.244C43.2536 20.3971 43.2627 20.4007 43.2695 20.4076C43.2762 20.4142 43.2801 20.4233 43.2801 20.4329V23.5692C43.2801 23.5788 43.2762 23.5879 43.2695 23.5945C43.2627 23.6014 43.2536 23.6051 43.244 23.6051H42.1094C42.0897 23.6051 42.0735 23.5891 42.0735 23.5692L42.075 20.4329ZM35.5511 20.4329C35.5511 20.413 35.5671 20.3971 35.587 20.3971H36.7192C36.7287 20.3971 36.7378 20.4007 36.7447 20.4076C36.7513 20.4142 36.755 20.4233 36.755 20.4329V23.5692C36.755 23.5788 36.7513 23.5879 36.7447 23.5945C36.7378 23.6014 36.7287 23.6051 36.7192 23.6051H35.5854C35.5658 23.6051 35.5496 23.5891 35.5496 23.5692L35.5511 20.4329ZM29.0273 20.4329C29.0273 20.413 29.0435 20.3971 29.0634 20.3971H30.1966C30.2061 20.3971 30.2152 20.4007 30.2218 20.4076C30.2287 20.4142 30.2324 20.4233 30.2324 20.4329V23.5692C30.2324 23.5788 30.2287 23.5879 30.2218 23.5945C30.2152 23.6014 30.2061 23.6051 30.1966 23.6051H29.0619C29.042 23.6051 29.0261 23.5891 29.0261 23.5692L29.0273 20.4329ZM22.5034 20.4329C22.5034 20.413 22.5196 20.3971 22.5395 20.3971H23.6732H23.673C23.6921 20.398 23.7073 20.4137 23.7071 20.4329V23.5692C23.7073 23.5884 23.6921 23.6041 23.673 23.6051H22.5381C22.5182 23.6051 22.5022 23.5891 22.5022 23.5692L22.5034 20.4329ZM20.2179 22.5076H21.49V23.5692H21.4902C21.4905 23.8469 21.6009 24.1134 21.7974 24.3097C21.9937 24.5063 22.2602 24.6167 22.538 24.617H23.6717C23.9495 24.6167 24.2158 24.5063 24.4123 24.3097C24.6086 24.1134 24.7193 23.8469 24.7195 23.5692V22.5076H28.0139V23.5692H28.0136C28.0141 23.8469 28.1245 24.1134 28.3211 24.3097C28.5177 24.5063 28.7842 24.6167 29.0619 24.617H30.1951C30.4729 24.6167 30.7394 24.5063 30.9357 24.3097C31.1323 24.1134 31.2427 23.8469 31.243 23.5692V22.5076H34.5375V23.5692C34.5378 23.8469 34.6485 24.1134 34.8448 24.3097C35.0413 24.5063 35.3076 24.6167 35.5854 24.617H36.7191C36.9969 24.6167 37.2633 24.5063 37.4597 24.3097C37.6562 24.1134 37.7666 23.8469 37.7669 23.5692V22.5076H41.0612V23.5692C41.0615 23.8469 41.1721 24.1134 41.3687 24.3097C41.565 24.5063 41.8315 24.6167 42.1093 24.617H43.2427C43.5205 24.6167 43.7868 24.5063 43.9833 24.3097C44.1799 24.1134 44.2905 23.8469 44.2908 23.5692V22.5076H45.5626C45.6579 22.5076 45.7491 22.5454 45.8164 22.6129C45.8839 22.6801 45.9217 22.7714 45.9217 22.8666V25.8751H19.8596V22.8659C19.8598 22.6684 20.02 22.5082 20.2176 22.5077L20.2179 22.5076ZM19.8589 44.227V26.8887H45.9203L45.9206 33.1464L45.4872 33.5797C44.7594 33.1422 43.9704 32.8156 43.1464 32.6104V32.5694H43.9408C44.0752 32.5697 44.2043 32.5164 44.2995 32.4215C44.3947 32.3265 44.4482 32.1977 44.4485 32.0634V29.1342C44.4482 28.8542 44.2215 28.6277 43.9415 28.6277H41.0145C40.7347 28.6277 40.5077 28.8542 40.5077 29.1342V30.8988H39.6548V29.1342C39.6545 28.8542 39.4278 28.6277 39.1478 28.6277H36.2205C35.9408 28.6277 35.7138 28.8542 35.7135 29.1342V32.0634C35.7145 32.3424 35.9413 32.5685 36.2205 32.5685H38.9262V32.6094H38.9259C38.1019 32.8146 37.313 33.1412 36.5851 33.5785L35.7336 32.7267C35.6386 32.6313 35.5093 32.5778 35.3746 32.5778C35.2399 32.5778 35.1108 32.6313 35.0156 32.7267L33.9771 33.7652H31.427C31.147 33.7652 30.9203 33.9922 30.9203 34.2722V37.2001C30.9203 37.4801 31.147 37.7071 31.427 37.7071H33.0255C32.8647 38.0961 32.7327 38.4965 32.6306 38.9048H31.427C31.147 38.9048 30.9203 39.1318 30.9203 39.4118V42.6188C30.9203 42.8988 31.147 43.1256 31.427 43.1256H32.6306C32.7558 43.6267 32.9258 44.115 33.1391 44.5851H20.2183C20.0207 44.5849 19.8605 44.4246 19.8603 44.2269L19.8589 44.227ZM42.6405 30.8991H41.5208V29.6427H43.4355V31.5563H43.1484V31.4073C43.1487 31.2726 43.0954 31.143 43 31.0478C42.9048 30.9524 42.7755 30.8989 42.6405 30.8991ZM38.6411 29.6427V31.5563L36.7276 31.5565V29.6413L38.6411 29.6427ZM32.7493 35.7129L33.5998 36.5645C33.5743 36.6072 33.5503 36.6506 33.5255 36.6938H31.9339V34.78H32.9655L32.75 34.9954C32.6546 35.0904 32.6008 35.2197 32.6008 35.3544C32.6008 35.4892 32.6546 35.6182 32.75 35.7132L32.7493 35.7129ZM50.1397 42.1124H49.0374C48.7957 42.1126 48.5876 42.2832 48.5403 42.5202C48.3459 43.4984 47.9604 44.4286 47.4058 45.2573C47.2716 45.4583 47.2981 45.726 47.4691 45.8968L48.2492 46.6769L46.6981 48.2282L45.918 47.4482C45.7472 47.2771 45.4793 47.2506 45.2783 47.3851C44.4494 47.9394 43.5193 48.3249 42.5412 48.5193C42.3042 48.5667 42.1336 48.7748 42.1336 49.0162V50.12H39.9401V49.0162C39.9401 48.7745 39.7693 48.5664 39.5322 48.5193C38.5539 48.3249 37.6236 47.9394 36.7947 47.3846C36.5937 47.2507 36.326 47.2772 36.1549 47.448L35.3758 48.2283L33.8247 46.677L34.6051 45.8969C34.7759 45.7258 34.8021 45.4581 34.6682 45.2571C34.1136 44.4285 33.7281 43.4984 33.5339 42.5203C33.4866 42.2833 33.2785 42.1127 33.0368 42.1125H31.934V39.9189H33.0363C33.278 39.9189 33.4861 39.7484 33.5334 39.5113C33.7275 38.5332 34.1131 37.6029 34.6679 36.7743C34.8019 36.5733 34.7756 36.3056 34.6051 36.1345L33.825 35.3544L35.3761 33.8033L36.1562 34.5834C36.3265 34.7545 36.5934 34.7814 36.7947 34.6484C37.6233 34.0939 38.5534 33.7083 39.5315 33.5142C39.7685 33.4666 39.9393 33.2588 39.9393 33.0168V31.9128H42.1331L42.1329 33.0151C42.1329 33.2568 42.3037 33.4652 42.5407 33.5123C43.5188 33.7066 44.4489 34.0921 45.2775 34.6468C45.4785 34.7807 45.7462 34.7545 45.9173 34.5834L46.6974 33.8033L48.2485 35.3544L47.4691 36.1345C47.2983 36.3056 47.2718 36.5733 47.4058 36.7743C47.9606 37.6032 48.3462 38.5332 48.5403 39.5114C48.5876 39.7484 48.7957 39.9189 49.0374 39.9189H50.1397L50.1397 42.1124Z" fill="white"/>
</svg>
