<svg width="62" height="60" viewBox="0 0 62 60" fill="none" xmlns="http://www.w3.org/2000/svg">
<path d="M1 17.1954V41.8741C1 43.5708 2.38818 44.959 4.08484 44.959H28.7635C30.4602 44.959 31.8484 43.5708 31.8484 41.8741V17.1954C31.8484 15.4988 30.4602 14.1106 28.7635 14.1106H4.08484C2.38818 14.1106 1 15.4988 1 17.1954Z" stroke="#027EBC" stroke-width="2" stroke-linecap="round" stroke-linejoin="round"/>
<path d="M11.1796 36.167C12.2593 37.5552 13.4932 38.0179 15.3441 38.0179H17.812C20.1256 38.0179 21.9765 36.167 21.9765 33.8534C21.9765 31.5398 20.1256 29.6889 17.812 29.6889H15.0356C12.722 29.6889 10.8711 27.838 10.8711 25.5243C10.8711 23.2107 12.722 21.2056 15.1899 21.2056H17.6577C19.5086 21.2056 20.7426 21.6683 21.8223 23.0565" stroke="#027EBC" stroke-width="2" stroke-linecap="round" stroke-linejoin="round"/>
<path d="M44.0328 47.4269C44.6497 47.5811 45.4209 47.5811 46.0379 47.5811C54.367 47.5811 60.9994 40.7945 60.9994 32.6197C60.9994 24.4448 54.2127 17.6582 46.0379 17.6582C39.4055 17.6582 33.6986 21.977 31.8477 27.9924" stroke="#027EBC" stroke-width="2" stroke-linecap="round" stroke-linejoin="round"/>
<path d="M31.8491 33.3909C38.6358 33.3909 44.1885 38.9436 44.1885 45.7302C44.1885 46.3472 44.1885 46.9642 44.0342 47.4269C43.1088 53.4423 38.0188 58.0696 31.8491 58.0696C25.0625 58.0696 19.5098 52.5169 19.5098 45.7302V44.959" stroke="#027EBC" stroke-width="2" stroke-linecap="round" stroke-linejoin="round"/>
<path d="M13.8027 14.1106C15.3452 6.55271 22.1318 1 29.9981 1C39.0984 1 46.6563 8.40361 46.6563 17.5039" stroke="#027EBC" stroke-width="2" stroke-linecap="round" stroke-linejoin="round"/>
</svg>
