<svg width="70" height="70" viewBox="0 0 70 70" fill="none" xmlns="http://www.w3.org/2000/svg">
<circle cx="35" cy="35" r="35" fill="#121212"/>
<path d="M23.6579 31.3694V32.8444C23.6579 33.1603 23.4022 33.416 23.0863 33.416C22.7704 33.416 22.5147 33.16 22.5147 32.8444V31.3694C22.5147 31.0536 22.7704 30.7978 23.0863 30.7978C23.4022 30.7978 23.6579 31.0539 23.6579 31.3694ZM27.4179 30.7467C27.102 30.7467 26.8462 31.0027 26.8462 31.3183V32.7933C26.8462 33.1091 27.102 33.3649 27.4179 33.3649C27.7337 33.3649 27.9895 33.1088 27.9895 32.7933V31.3183C27.9895 31.0027 27.7337 30.7467 27.4179 30.7467ZM29.5252 38.6721C29.841 38.6721 30.0968 38.4163 30.0968 38.1005V36.6252C30.0968 36.3093 29.841 36.0536 29.5252 36.0536C29.2093 36.0536 28.9536 36.3096 28.9536 36.6252V38.1005C28.9533 38.4163 29.209 38.6721 29.5252 38.6721ZM25.1934 38.6721C25.5092 38.6721 25.765 38.4163 25.765 38.1005V36.6252C25.765 36.3093 25.5092 36.0536 25.1934 36.0536C24.8775 36.0536 24.6218 36.3096 24.6218 36.6252V38.1005C24.6218 38.4163 24.8772 38.6721 25.1934 38.6721ZM21.0509 36.1045C20.735 36.1045 20.4793 36.3605 20.4793 36.6761V38.1511C20.4793 38.4669 20.735 38.7227 21.0509 38.7227C21.3668 38.7227 21.6225 38.4669 21.6225 38.1511V36.6761C21.6228 36.3605 21.367 36.1045 21.0509 36.1045ZM51.4538 44.1394L53.7104 46.7961C53.8549 46.966 53.8875 47.2044 53.7935 47.4063C53.7002 47.6085 53.4977 47.7381 53.2749 47.7381L18.0861 47.7384C17.8716 47.7384 17.6757 47.619 17.5776 47.4285C17.4797 47.2376 17.4965 47.0085 17.6212 46.8344L19.3046 44.4777C17.4747 43.8451 16.1543 42.109 16.1543 40.0667C16.1543 39.7508 16.41 39.495 16.7259 39.495H18.066V34.7603C18.066 34.4445 18.3217 34.1887 18.6376 34.1887H20.1726V29.454C20.1726 29.1381 20.4284 28.8824 20.7442 28.8824L29.6414 28.8815C29.9573 28.8815 30.213 29.1375 30.213 29.4531V34.1878H31.7484C32.0642 34.1878 32.32 34.4439 32.32 34.7594V39.4942H33.5233V37.2848C33.5233 36.969 33.7791 36.7132 34.095 36.7132H37.4083L37.4086 30.3513C37.4086 30.0354 37.6644 29.7797 37.9802 29.7797H38.7675V27.2809C38.7675 26.965 39.0232 26.7092 39.3391 26.7092H40.1709L40.1712 22.6488C40.1712 22.3329 40.427 22.0771 40.7428 22.0771C41.0587 22.0771 41.3144 22.3332 41.3144 22.6488V26.7089H42.1456C42.4615 26.7089 42.7173 26.965 42.7173 27.2806V29.7794H43.5045C43.8204 29.7794 44.0761 30.0354 44.0761 30.351V36.7135H47.0269L48.8707 35.2793C48.9712 35.2015 49.0947 35.1591 49.2218 35.1591H53.2736C53.5895 35.1591 53.8453 35.4151 53.8453 35.7307V40.0667C53.8465 41.8147 52.8794 43.3393 51.4535 44.1395L51.4538 44.1394ZM39.9111 29.7795H41.5745V27.8523H39.9111V29.7795ZM38.5522 36.7136H42.9337V30.923H38.5522V31.9523H40.0463C40.3622 31.9523 40.6179 32.2083 40.6179 32.5239C40.6179 32.8397 40.3622 33.0955 40.0463 33.0955H38.5522V36.7136ZM29.6413 35.3317H27.872V39.4948H31.177V35.3317H29.6413ZM25.7647 34.1881H29.0696V30.025H25.7647V34.1881ZM23.6574 35.3317V39.4948H26.7284V35.3317H23.6574ZM21.3162 34.1881H24.6211V30.025H21.3162V34.1881ZM19.2095 39.4948H22.5138V35.3317H19.2095V39.4948ZM50.4601 44.7365H20.5243L19.1971 46.5947H52.0389L50.4601 44.7365ZM52.6563 40.6383H47.9219C47.606 40.6383 47.3502 40.3825 47.3502 40.0667C47.3502 39.7508 47.606 39.4951 47.9219 39.4951H52.7024V36.3026H49.418L47.5743 37.7368C47.4738 37.8149 47.3502 37.8574 47.2231 37.8574L34.6665 37.8571V39.4948H41.3847C41.7005 39.4948 41.9563 39.7505 41.9563 40.0664C41.9563 40.3823 41.7005 40.638 41.3847 40.638L17.3435 40.6383C17.6178 42.3116 19.0739 43.593 20.8243 43.593L49.1751 43.5933C50.9255 43.593 52.3816 42.3116 52.6559 40.6383L52.6563 40.6383Z" fill="white"/>
</svg>
