<svg width="60" height="78" viewBox="0 0 60 78" fill="none" xmlns="http://www.w3.org/2000/svg">
<path d="M22.2455 6.94061H28.3831C28.7034 6.94061 29.0105 6.81339 29.2369 6.58694C29.4634 6.36049 29.5906 6.05337 29.5906 5.73312C29.5906 5.41288 29.4634 5.10575 29.2369 4.8793C29.0105 4.65285 28.7034 4.52563 28.3831 4.52563H22.2455C21.9252 4.52563 21.6181 4.65285 21.3917 4.8793C21.1652 5.10575 21.038 5.41288 21.038 5.73312C21.038 6.05337 21.1652 6.36049 21.3917 6.58694C21.6181 6.81339 21.9252 6.94061 22.2455 6.94061ZM16.7719 71.9468H27.719C28.0393 71.9468 28.3464 71.8196 28.5728 71.5932C28.7993 71.3667 28.9265 71.0596 28.9265 70.7394C28.9265 70.4191 28.7993 70.112 28.5728 69.8855C28.3464 69.6591 28.0393 69.5319 27.719 69.5319H16.7719C16.4517 69.5319 16.1446 69.6591 15.9181 69.8855C15.6917 70.112 15.5645 70.4191 15.5645 70.7394C15.5645 71.0596 15.6917 71.3667 15.9181 71.5932C16.1446 71.8196 16.4517 71.9468 16.7719 71.9468Z" fill="#027EBC"/>
<path d="M1.20749 59.9324C1.52773 59.9324 1.83486 59.8052 2.06131 59.5787C2.28776 59.3523 2.41497 59.0451 2.41497 58.7249V11.4711H42.0749V17.6824C42.0749 18.0027 42.2021 18.3098 42.4285 18.5363C42.655 18.7627 42.9621 18.8899 43.2823 18.8899C43.6026 18.8899 43.9097 18.7627 44.1362 18.5363C44.3626 18.3098 44.4898 18.0027 44.4898 17.6824L44.4947 4.8058C44.4947 2.1614 42.3333 0 39.6804 0H4.8058C2.28215 0 0 2.07688 0 4.80942V58.7249C0 59.0451 0.127217 59.3523 0.353665 59.5787C0.580112 59.8052 0.887241 59.9324 1.20749 59.9324ZM39.678 2.41497C40.9543 2.41497 42.0761 3.45945 42.0761 4.80942V9.05615H2.41497V4.8058C2.41497 3.48964 3.49447 2.41497 4.80942 2.41497H39.678Z" fill="#027EBC"/>
<path d="M29.6963 30.4239C29.9238 30.6492 30.2315 30.7748 30.5517 30.7732C30.8719 30.7716 31.1783 30.6429 31.4036 30.4154L36.4509 25.3223C36.6747 25.0962 36.8003 24.7909 36.8003 24.4728C36.8003 24.1547 36.6747 23.8494 36.4509 23.6233L31.4036 18.5302C31.176 18.3144 30.8733 18.1957 30.5596 18.1992C30.246 18.2027 29.946 18.3281 29.7232 18.5488C29.5003 18.7696 29.3722 19.0684 29.3658 19.3821C29.3594 19.6957 29.4753 19.9994 29.689 20.2291L33.8923 24.4734L29.6878 28.7165C29.4626 28.9441 29.3369 29.2518 29.3385 29.572C29.3401 29.8921 29.4688 30.1986 29.6963 30.4239ZM14.7923 18.5217C14.6797 18.4099 14.5463 18.3214 14.3995 18.2613C14.2527 18.2011 14.0954 18.1706 13.9368 18.1714C13.7782 18.1722 13.6213 18.2043 13.4751 18.2658C13.3289 18.3274 13.1963 18.4172 13.0849 18.5302L8.03878 23.6233C7.81499 23.8494 7.68945 24.1547 7.68945 24.4728C7.68945 24.7909 7.81499 25.0962 8.03878 25.3223L13.0861 30.4154C13.1963 30.5339 13.3291 30.629 13.4768 30.695C13.6244 30.7611 13.7838 30.7969 13.9456 30.8002C14.1073 30.8035 14.268 30.7742 14.4183 30.7142C14.5685 30.6541 14.7051 30.5645 14.82 30.4507C14.9349 30.3368 15.0258 30.201 15.0872 30.0514C15.1486 29.9017 15.1793 29.7413 15.1775 29.5795C15.1757 29.4178 15.1414 29.258 15.0767 29.1098C15.012 28.9615 14.9181 28.8278 14.8007 28.7165L10.5974 24.4734L14.8007 20.2291C15.026 20.0015 15.1516 19.6938 15.15 19.3736C15.1484 19.0535 15.0197 18.747 14.7923 18.5217ZM24.1913 15.1094L17.1034 32.9439C17.0448 33.0913 17.0158 33.2488 17.0181 33.4074C17.0204 33.566 17.0538 33.7226 17.1166 33.8682C17.1794 34.0139 17.2703 34.1457 17.384 34.2563C17.4978 34.3668 17.6322 34.4539 17.7796 34.5125C17.927 34.571 18.0845 34.6 18.243 34.5978C18.4016 34.5955 18.5582 34.562 18.7039 34.4992C18.8495 34.4364 18.9814 34.3456 19.0919 34.2318C19.2025 34.1181 19.2895 33.9836 19.3481 33.8363L26.436 16.0017C26.5544 15.7039 26.5495 15.3712 26.4226 15.077C26.2957 14.7827 26.0571 14.5509 25.7593 14.4326C25.4614 14.3142 25.1288 14.3191 24.8345 14.446C24.5402 14.5729 24.3085 14.8115 24.1901 15.1094H24.1913ZM43.2877 37.4805C39.7498 37.4805 36.876 40.3543 36.876 43.8922C36.876 47.4639 39.7884 50.304 43.2877 50.304C46.7725 50.304 49.6874 47.4688 49.6874 43.8922C49.6874 40.3543 46.8136 37.4805 43.2877 37.4805ZM44.4952 47.6958V43.0953C44.4952 42.4311 43.9518 41.8878 43.2877 41.8878C42.6115 41.8878 42.0802 42.4311 42.0802 43.0953V47.7079C41.1726 47.4171 40.3985 46.8119 39.8974 46.0013C39.3962 45.1906 39.2008 44.2277 39.3464 43.2858C39.4919 42.3439 39.9689 41.4849 40.6915 40.8634C41.414 40.2418 42.3347 39.8986 43.2877 39.8954C45.4854 39.8954 47.2724 41.6946 47.2724 43.8922C47.2724 45.6793 46.1012 47.1886 44.4952 47.6958Z" fill="#027EBC"/>
<path d="M58.9253 40.0764L55.9549 39.7383C55.7255 39.0379 55.4357 38.3497 55.0855 37.6856L56.8243 35.2223C57.1745 34.7514 57.1141 34.0873 56.7036 33.6767L53.2381 30.2233C53.0296 30.0117 52.7502 29.8848 52.4536 29.8669C52.1571 29.8491 51.8645 29.9416 51.6321 30.1267L49.3017 31.9983C48.6376 31.6602 47.9493 31.3825 47.2369 31.1651L46.7418 28.1826C46.6933 27.9012 46.5465 27.6461 46.3277 27.4626C46.1088 27.2791 45.832 27.1791 45.5464 27.1804H40.6561C40.0403 27.1804 39.521 27.6393 39.4486 28.2551L39.1226 31.2376C38.4101 31.467 37.734 31.7568 37.0819 32.0949L34.6066 30.344C34.3754 30.1783 34.0926 30.1006 33.8092 30.1249C33.5258 30.1493 33.2605 30.2741 33.061 30.4769L29.6076 33.9303C29.1729 34.365 29.1366 35.0532 29.523 35.5362L31.3826 37.8788C31.0445 38.5429 30.7668 39.2311 30.5494 39.9436L27.579 40.4386C26.9994 40.5473 26.5647 41.0424 26.5647 41.634V46.5244C26.5647 47.1402 27.0356 47.6473 27.6394 47.7198L30.6098 48.0579C30.8392 48.7703 31.1411 49.4586 31.4792 50.1106L29.7404 52.5618C29.4023 53.0448 29.4506 53.6968 29.8732 54.1194L33.3266 57.5729C33.7613 58.0076 34.4496 58.0438 34.9326 57.6574L37.2751 55.7979C37.9392 56.1239 38.6154 56.4016 39.3278 56.6189L39.8229 59.6014C39.8689 59.8851 40.0145 60.1431 40.2336 60.329C40.4527 60.5149 40.731 60.6166 41.0183 60.6157H42.0809V63.2843H1.20749C0.543369 63.2843 0 63.8276 0 64.4918V72.4732C0.00318799 73.7468 0.510535 74.9674 1.41111 75.8679C2.31168 76.7685 3.5322 77.2758 4.8058 77.279H39.678C42.3345 77.279 44.4959 75.1176 44.4959 72.4732V60.6157H45.9086C46.5245 60.6157 47.0437 60.1569 47.1161 59.5411L47.4542 56.5586C48.1563 56.328 48.8388 56.0413 49.4949 55.7013L51.9581 57.4521C52.4411 57.7902 53.0932 57.7298 53.5158 57.3193L56.9571 53.8538C57.3918 53.4191 57.4281 52.7308 57.0417 52.2599L55.1821 49.9174C55.5202 49.2412 55.7979 48.5529 56.0153 47.8526L58.9857 47.3455C59.5653 47.2489 60 46.7417 60 46.1621V41.2718C60 40.656 59.5412 40.1368 58.9253 40.0764ZM42.0809 72.4732C42.0809 73.7894 41.0062 74.8641 39.678 74.8641H4.8058C3.48964 74.8641 2.41497 73.7894 2.41497 72.4732V65.6992H42.0809V72.4732ZM57.585 45.1358L54.8561 45.5946C54.3731 45.6791 53.9988 46.0293 53.878 46.5123C53.6365 47.5266 53.2381 48.5046 52.7068 49.4344C52.4532 49.857 52.4894 50.4004 52.8034 50.7868L54.4818 52.912L52.5257 54.8922L50.2556 53.2742C50.062 53.1389 49.833 53.0634 49.5969 53.057C49.3608 53.0505 49.128 53.1135 48.9273 53.238C48.0459 53.7814 47.0799 54.1919 46.0535 54.4455C45.5585 54.5662 45.1962 54.9888 45.1358 55.4839L44.834 58.2008H42.0326L41.5738 55.4598C41.536 55.2269 41.4297 55.0107 41.2683 54.8386C41.107 54.6665 40.8981 54.5465 40.6681 54.4938C39.6539 54.2402 38.6758 53.8417 37.7702 53.3104C37.5599 53.1858 37.3166 53.1283 37.0729 53.1456C36.8291 53.1629 36.5963 53.2541 36.4057 53.407L34.2685 55.0975L32.3003 53.1293L33.8941 50.8955C34.1513 50.532 34.196 49.9947 33.9424 49.5431C33.3991 48.6616 32.9765 47.6835 32.7108 46.6451C32.6525 46.4087 32.5226 46.196 32.3389 46.036C32.1552 45.8761 31.9267 45.7768 31.6844 45.7516L28.9797 45.4376V42.6604L31.7086 42.2016C32.1916 42.117 32.578 41.7548 32.6867 41.2839C32.9282 40.2575 33.3266 39.2794 33.87 38.3859C34.1236 37.9512 34.0994 37.4078 33.7855 37.0094L32.0829 34.8721L34.0511 32.9039L36.3091 34.5099C36.5015 34.647 36.7299 34.7246 36.966 34.7332C37.2021 34.7418 37.4355 34.6809 37.6374 34.5582C38.5188 34.0148 39.4969 33.6043 40.5353 33.3386C41.0183 33.2179 41.3685 32.8073 41.4289 32.3122L41.7307 29.5954H44.5321L44.9909 32.3243C45.0755 32.8073 45.4256 33.1937 45.8966 33.3024C46.9229 33.5439 47.901 33.9424 48.8066 34.4857C49.2413 34.7393 49.7847 34.7031 50.1711 34.3891L52.2962 32.6866L54.2644 34.6668L52.6706 36.9128C52.417 37.2714 52.3651 37.7954 52.6223 38.2531C53.1777 39.1587 53.5882 40.1368 53.8418 41.139C53.9626 41.622 54.3731 41.9842 54.8803 42.0446L57.585 42.3465V45.1358Z" fill="#027EBC"/>
</svg>
