<svg width="60" height="49" viewBox="0 0 60 49" fill="none" xmlns="http://www.w3.org/2000/svg">
<path d="M5.91799 33.5166C5.68488 33.5166 5.46133 33.6092 5.29649 33.774C5.13166 33.9389 5.03906 34.1624 5.03906 34.3955C5.03906 34.6286 5.13166 34.8522 5.29649 35.017C5.46133 35.1819 5.68488 35.2745 5.91799 35.2745H13.594C13.8271 35.2745 14.0506 35.1819 14.2155 35.017C14.3803 34.8522 14.4729 34.6286 14.4729 34.3955C14.4729 34.1624 14.3803 33.9389 14.2155 33.774C14.0506 33.6092 13.8271 33.5166 13.594 33.5166H5.91799Z" fill="#027EBC"/>
<path d="M59.0138 39.9477L55.3131 36.247L55.3139 6.50768C55.3139 5.70001 54.6568 5.0428 53.849 5.0428L45.3892 5.04222C42.0585 1.85417 37.3787 -0.0156054 32.7245 9.81331e-05C27.8312 9.81331e-05 23.3777 1.9178 20.0748 5.04046L11.8986 5.03964C11.6655 5.03962 11.4418 5.13221 11.277 5.29703C11.1121 5.46185 11.0195 5.6854 11.0195 5.91851C11.0195 6.15162 11.112 6.37518 11.2769 6.54002C11.4417 6.70486 11.6652 6.79748 11.8983 6.7975L18.4414 6.7982C17.9551 7.39459 17.5063 8.0207 17.0977 8.67289L1.75856 8.67196V6.79714L7.79668 6.7975C8.28208 6.7975 8.67561 6.40409 8.67561 5.91857C8.67561 5.43305 8.2822 5.03964 7.79668 5.03964L1.46547 5.03929C0.657673 5.03929 0.000585952 5.69637 0.000585952 6.50417L0 39.3148C0 40.1226 0.657087 40.7797 1.46488 40.7797L13.3747 40.7805C13.8601 40.7805 14.2536 40.3871 14.2536 39.9016C14.2536 39.4161 13.8602 39.0226 13.3747 39.0226L1.75786 39.0218L1.75856 10.4298L16.1245 10.4308C15.5541 11.6102 15.1123 12.8476 14.8064 14.1215H5.97671C5.74361 14.1215 5.52005 14.2141 5.35522 14.379C5.19039 14.5438 5.09778 14.7674 5.09778 15.0005V22.0319C5.09778 22.265 5.19039 22.4886 5.35522 22.6534C5.52005 22.8182 5.74361 22.9108 5.97671 22.9108H14.8499C15.0552 23.7287 15.3168 24.5315 15.633 25.3132H5.91812C5.68501 25.3132 5.46145 25.4058 5.29662 25.5707C5.13179 25.7355 5.03919 25.9591 5.03919 26.1922C5.03919 26.4253 5.13179 26.6488 5.29662 26.8137C5.46145 26.9785 5.68501 27.0711 5.91812 27.0711H16.4545C16.8903 27.8885 17.387 28.672 17.9403 29.4149H5.91812C5.68501 29.4149 5.46145 29.5075 5.29662 29.6723C5.13179 29.8372 5.03919 30.0607 5.03919 30.2938C5.03919 30.5269 5.13179 30.7505 5.29662 30.9153C5.46145 31.0802 5.68501 31.1728 5.91812 31.1728H19.4284C22.7845 34.6725 27.5044 36.8549 32.7246 36.8549C35.9478 36.8549 39.0675 36.0213 41.8152 34.4605L43.5726 36.2179C43.7289 36.3745 43.9147 36.4986 44.1192 36.5832C44.3236 36.6678 44.5428 36.7111 44.7641 36.7107C45.1491 36.7107 45.5336 36.579 45.8455 36.3174L48.5529 39.025L17.4764 39.0228C16.991 39.0228 16.5974 39.4162 16.5974 39.9017C16.5974 40.3872 16.9909 40.7806 17.4764 40.7806L21.3116 40.7809L20.5409 43.5923L19.0212 43.5919C16.8363 43.5919 15.0589 45.3693 15.0589 47.5541V47.9863C15.0589 48.2194 15.1514 48.4429 15.3162 48.6078C15.4811 48.7726 15.7046 48.8652 15.9377 48.8652L39.3754 48.8686H39.3755C39.6086 48.8686 39.8321 48.776 39.9969 48.6111C40.1618 48.4463 40.2544 48.2228 40.2545 47.9897V47.5575C40.2545 45.3727 38.477 43.5953 36.2922 43.5953L34.7726 43.5949L34.0014 40.7817L50.311 40.7828L54.2449 44.7168C54.8819 45.3537 55.7287 45.7045 56.6294 45.7045C57.5301 45.7045 58.3769 45.3537 59.0139 44.7168C60.3287 43.4019 60.3287 41.2626 59.0138 39.9477ZM38.4509 47.1107L16.8621 47.1075C17.0691 46.1054 17.9584 45.3498 19.0208 45.3498L36.2919 45.3532C37.3545 45.3532 38.2438 46.1087 38.4509 47.1107ZM32.9496 43.5947L22.3635 43.5926L23.1342 40.781L32.1785 40.7817L32.9496 43.5947ZM53.556 8.67535L48.3595 8.675C47.9524 8.02284 47.5052 7.39669 47.0202 6.80019L53.556 6.80066V8.67535ZM6.85564 21.1531V15.8795H14.4742C14.3566 16.7238 14.2975 17.5752 14.2972 18.4276C14.2972 19.3535 14.3666 20.2635 14.4992 21.1531H6.85564ZM16.0551 18.4276C16.0551 9.236 23.533 1.75807 32.7246 1.75807C40.998 1.75807 47.9249 7.68135 49.195 15.8424C49.2697 16.322 49.7191 16.6508 50.1986 16.5756C50.3127 16.5579 50.4221 16.5179 50.5207 16.4578C50.6193 16.3978 50.7051 16.3189 50.7732 16.2257C50.8413 16.1325 50.8903 16.0268 50.9176 15.9147C50.9448 15.8025 50.9497 15.6861 50.9319 15.572C50.6535 13.7894 50.1133 12.0577 49.3286 10.433L53.5559 10.4333L53.5553 34.4894L50.6147 31.5486C50.8699 31.2461 51.0094 30.8628 51.0085 30.467C51.0085 30.017 50.8332 29.5938 50.5151 29.2756L48.7584 27.5189C50.0868 25.1805 50.8936 22.5631 51.0994 19.83C51.108 19.7149 51.094 19.5992 51.0579 19.4896C51.0219 19.3799 50.9646 19.2784 50.8893 19.1909C50.8141 19.1034 50.7223 19.0316 50.6193 18.9795C50.5162 18.9275 50.404 18.8962 50.2889 18.8876C49.805 18.8521 49.383 19.2139 49.3464 19.6981C48.6961 28.333 41.3949 35.097 32.7246 35.097C23.533 35.0971 16.0551 27.6192 16.0551 18.4276ZM43.3354 33.4948C45.0646 32.275 46.5722 30.768 47.7927 29.0393L49.2205 30.467L44.7641 34.9234L43.3354 33.4948ZM57.7709 43.4738C57.466 43.7787 57.0605 43.9466 56.6294 43.9466C56.1982 43.9466 55.7927 43.7787 55.4878 43.4738L47.0937 35.0797L49.3767 32.7965L57.7708 41.1907C58.4002 41.8202 58.4002 42.8443 57.7709 43.4738Z" fill="#027EBC"/>
<path d="M32.7243 3.51001C24.4987 3.51001 17.8066 10.2021 17.8066 18.4277C17.8066 23.1786 20.1016 27.6878 23.9454 30.4898C24.3377 30.7759 24.8875 30.6895 25.1735 30.2973C25.4594 29.9051 25.3733 29.3552 24.9809 29.0692C21.5894 26.5969 19.5645 22.6186 19.5645 18.4275C19.5645 11.1712 25.468 5.26775 32.7243 5.26775C39.9806 5.26775 45.8841 11.1712 45.8841 18.4275C45.8841 25.6838 39.9806 31.5873 32.7243 31.5873C31.2298 31.5873 29.7638 31.339 28.3673 30.8493C28.2583 30.811 28.143 30.7946 28.0277 30.801C27.9125 30.8074 27.7996 30.8364 27.6956 30.8864C27.5915 30.9364 27.4984 31.0064 27.4214 31.0924C27.3445 31.1785 27.2852 31.2788 27.247 31.3877C27.1699 31.6077 27.1833 31.8493 27.2843 32.0594C27.3853 32.2695 27.5656 32.4308 27.7855 32.508C29.3695 33.0636 31.031 33.3452 32.7243 33.3452C40.9499 33.3452 47.6419 26.6531 47.6419 18.4275C47.6419 10.2019 40.95 3.51001 32.7243 3.51001Z" fill="#027EBC"/>
<path d="M33.1416 16.1572C33.3747 16.1572 33.5983 16.0646 33.7631 15.8997C33.9279 15.7349 34.0205 15.5113 34.0205 15.2782C34.0205 15.0451 33.9279 14.8216 33.7631 14.6567C33.5983 14.4919 33.3747 14.3993 33.1416 14.3993H30.4876C30.2545 14.3993 30.0309 14.4919 29.8661 14.6567C29.7013 14.8216 29.6087 15.0451 29.6087 15.2782V21.5769C29.6087 21.81 29.7013 22.0335 29.8661 22.1984C30.0309 22.3632 30.2545 22.4558 30.4876 22.4558H33.1416C33.3747 22.4558 33.5983 22.3632 33.7631 22.1984C33.9279 22.0335 34.0205 21.81 34.0205 21.5769C34.0205 21.3438 33.9279 21.1202 33.7631 20.9554C33.5983 20.7905 33.3747 20.6979 33.1416 20.6979H31.3665V19.3065H32.9459C33.179 19.3065 33.4026 19.2139 33.5674 19.0491C33.7322 18.8843 33.8248 18.6607 33.8248 18.4276C33.8248 18.1945 33.7322 17.9709 33.5674 17.8061C33.4026 17.6413 33.179 17.5487 32.9459 17.5487H31.3665V16.1572H33.1416ZM24.7191 20.727C24.1108 20.727 23.5261 20.4827 23.1552 20.0734C22.9987 19.9007 22.7799 19.7972 22.5471 19.7858C22.3143 19.7743 22.0864 19.8558 21.9137 20.0124C21.741 20.1689 21.6375 20.3877 21.6261 20.6205C21.6146 20.8533 21.6961 21.0812 21.8527 21.2539C22.5617 22.0361 23.6064 22.4849 24.719 22.4849C26.0995 22.4849 27.2594 21.6008 27.4769 20.3827C27.641 19.4628 27.2278 18.2626 25.5751 17.6531C25.0441 17.4597 24.1731 17.1421 23.8421 16.9561C23.7495 16.9057 23.7094 16.8152 23.7227 16.6871C23.7411 16.5097 23.8733 16.2861 24.1894 16.1908C25.0398 15.9349 25.8361 16.5598 25.8612 16.5799C26.0398 16.7279 26.2698 16.7992 26.5008 16.7783C26.7319 16.7574 26.9453 16.646 27.0945 16.4683C27.1687 16.3799 27.2249 16.2778 27.2597 16.1678C27.2945 16.0577 27.3072 15.9419 27.2973 15.8269C27.2873 15.7119 27.2548 15.6 27.2016 15.4976C27.1484 15.3952 27.0755 15.3042 26.9871 15.23C26.9257 15.1784 25.462 13.9714 23.6824 14.5076C22.7407 14.7912 22.0703 15.5757 21.974 16.5062C21.8873 17.3436 22.2809 18.1076 23.0012 18.4998C23.3634 18.7086 24.1939 19.0234 24.9666 19.3023C25.1686 19.3767 25.8214 19.6525 25.7462 20.0738C25.6892 20.3949 25.2893 20.727 24.7191 20.727ZM44.0901 18.4276C44.0901 16.1904 42.27 14.3704 40.0329 14.3704C37.7957 14.3704 35.9756 16.1904 35.9756 18.4276C35.9756 20.6648 37.7957 22.4849 40.0329 22.4849C42.27 22.4849 44.0901 20.6648 44.0901 18.4276ZM37.7335 18.4276C37.7335 17.1597 38.765 16.1282 40.0329 16.1282C41.3008 16.1282 42.3323 17.1597 42.3323 18.4276C42.3323 19.6955 41.3008 20.727 40.0329 20.727C38.765 20.727 37.7335 19.6955 37.7335 18.4276Z" fill="#027EBC"/>
</svg>
