<svg width="70" height="70" viewBox="0 0 70 70" fill="none" xmlns="http://www.w3.org/2000/svg">
<circle cx="35" cy="35" r="35" fill="#121212"/>
<path d="M39.0193 25.9133C39.4652 26.2434 40.119 26.4998 41.0109 26.6953C41.8968 26.8846 42.3244 27.1107 42.5323 27.2635C42.6668 27.3674 42.795 27.5078 42.795 27.8499C42.795 28.1308 42.6851 28.3446 42.4284 28.5525C42.1352 28.7908 41.7135 28.913 41.1759 28.913C40.5955 28.913 40.1495 28.7848 39.85 28.5282C39.6179 28.3326 39.508 28.1251 39.4895 27.8561C39.4712 27.5201 39.19 27.2697 38.8419 27.2817C38.5059 27.3 38.2492 27.5872 38.2675 27.9292C38.3041 28.5342 38.567 29.0535 39.0618 29.4689C39.4529 29.799 39.9477 30.0065 40.5341 30.0922V30.9721C40.5341 31.3081 40.809 31.5831 41.1451 31.5831C41.4811 31.5831 41.756 31.3081 41.756 30.9721V30.0984C42.3242 30.0191 42.813 29.8175 43.2041 29.4998C43.7479 29.0598 44.0166 28.5039 44.0166 27.8501C44.0166 27.1841 43.7662 26.6588 43.2652 26.2862C42.8192 25.9562 42.1654 25.6998 41.2736 25.5042C40.3876 25.3149 39.954 25.0888 39.7521 24.9361C39.6177 24.8322 39.4895 24.6917 39.4895 24.3497C39.4895 24.0687 39.5994 23.8609 39.8561 23.6471C40.1493 23.4087 40.5709 23.2865 41.1086 23.2865C41.689 23.2865 42.1349 23.4147 42.4344 23.6714C42.6665 23.8669 42.7764 24.0745 42.795 24.3434C42.8133 24.6795 43.1065 24.9361 43.4425 24.9178C43.7785 24.8996 44.0352 24.6124 44.0169 24.2703C43.9804 23.6654 43.7174 23.146 43.2227 22.7306C42.8315 22.4006 42.3367 22.193 41.7503 22.1014V21.2272C41.7503 20.8911 41.4754 20.6162 41.1394 20.6162C40.8033 20.6162 40.5284 20.8911 40.5284 21.2272V22.1008C39.9603 22.1802 39.4715 22.3818 39.0804 22.6995C38.5365 23.1395 38.2678 23.6954 38.2678 24.3491C38.2678 25.0092 38.5182 25.5408 39.0193 25.9133Z" fill="white"/>
<path d="M41.1391 35.316C46.2102 35.316 50.3344 31.1797 50.3344 26.0908C50.3344 21.0074 46.2104 16.8711 41.1391 16.8711C36.0679 16.8711 31.9502 21.0074 31.9502 26.0964C31.9502 31.1797 36.0742 35.316 41.1391 35.316ZM41.1391 18.093C45.5321 18.093 49.1125 21.6854 49.1125 26.0964C49.1125 30.5073 45.5383 34.0997 41.1391 34.0997C36.7462 34.0997 33.1658 30.5133 33.1658 26.0964C33.1658 21.6794 36.746 18.093 41.1391 18.093Z" fill="white"/>
<path d="M51.1471 42.2447C50.9456 41.5972 50.4933 41.0779 49.8824 40.7724C49.2714 40.4729 48.5871 40.4363 47.9519 40.6684L33.7285 45.874L31.1014 43.7784L35.1338 42.2755C35.8118 42.0252 36.3311 41.4936 36.5636 40.8275C36.8139 40.1372 36.7346 39.3858 36.3557 38.7625C35.9769 38.1333 35.3417 37.7179 34.6144 37.62L29.9957 36.9907C29.0427 36.8625 28.0771 37.0824 27.2828 37.614L23.3055 40.2534L19.566 40.2531C19.23 40.2531 18.9551 40.5281 18.9551 40.8641V49.595C18.9551 49.864 19.1324 50.1021 19.3888 50.1814L29.5245 53.2791C30.099 53.4564 30.6914 53.5417 31.278 53.5417C32.1699 53.5417 33.0621 53.3402 33.8869 52.943L49.8698 45.2141C50.7129 44.8047 51.2628 43.9311 51.2628 42.9901C51.263 42.7397 51.2262 42.4953 51.1468 42.2446L51.1471 42.2447ZM49.3388 44.1022L33.3559 51.8311C32.2684 52.3564 31.0402 52.4543 29.8856 52.1L20.1772 49.1366V41.4691H23.4824C23.6046 41.4691 23.7208 41.4326 23.8185 41.3652L27.9547 38.6219C28.5046 38.2553 29.1707 38.1025 29.8305 38.1882L34.4492 38.8174C34.8098 38.8662 35.1213 39.0741 35.3106 39.3856C35.4999 39.697 35.5367 40.0636 35.4082 40.4119C35.292 40.742 35.0417 40.9983 34.7057 41.1268L29.6592 43.0025C29.4514 43.0819 29.3049 43.2592 29.2681 43.479C29.2315 43.6988 29.3169 43.9127 29.4879 44.0534L33.2271 47.0412C33.3921 47.1756 33.6182 47.2122 33.8198 47.1388L48.3671 41.8111C48.6849 41.6949 49.0332 41.7134 49.3387 41.8662C49.6441 42.0189 49.8763 42.2816 49.9742 42.5993C50.0107 42.7275 50.0353 42.856 50.0353 42.9782C50.0418 43.4547 49.7669 43.8946 49.3392 44.1025L49.3388 44.1022Z" fill="white"/>
</svg>
