<svg width="71" height="71" viewBox="0 0 71 71" fill="none" xmlns="http://www.w3.org/2000/svg">
<circle cx="35.334" cy="35.334" r="35" fill="#121212"/>
<path d="M43.5737 42.8876C43.6258 42.8876 43.6776 42.8791 43.7269 42.8617L43.8412 42.8232C44.0893 42.7409 44.2236 42.473 44.1412 42.2248C44.0589 41.9767 43.791 41.8422 43.5428 41.9247L43.4205 41.9664H43.4202C43.201 42.041 43.068 42.2636 43.1061 42.4921C43.144 42.7206 43.342 42.8881 43.5737 42.8876Z" fill="white"/>
<path d="M27.1944 42.8232L27.3086 42.8617C27.358 42.8791 27.4098 42.8876 27.4619 42.8876C27.6935 42.8881 27.8916 42.7206 27.9295 42.4921C27.9676 42.2636 27.8346 42.041 27.6153 41.9664L27.493 41.9247H27.4927C27.2446 41.8422 26.9767 41.9767 26.8944 42.2248C26.8119 42.473 26.9462 42.7409 27.1944 42.8232Z" fill="white"/>
<path d="M51.2525 43.0509C51.2097 43.0459 50.6769 42.9878 49.8012 42.9695L50.4178 39.742H50.4176C50.4442 39.6034 50.4074 39.46 50.3175 39.3514C50.2276 39.2426 50.0937 39.1797 49.9526 39.1797C47.8868 39.218 45.8297 39.4571 43.8108 39.8941C41.9013 40.3119 40.2411 40.8886 38.8763 41.6086C37.4194 42.3771 36.2937 43.3123 35.5194 44.3983C34.745 43.3136 33.6194 42.3791 32.1624 41.6086C30.7977 40.8886 29.1374 40.3119 27.228 39.8941C25.2081 39.4571 23.1506 39.218 21.0844 39.1797C20.9433 39.1797 20.8094 39.2426 20.7195 39.3514C20.6294 39.46 20.5926 39.6034 20.6192 39.742L21.2358 42.9695C20.3588 42.9867 19.8262 43.0459 19.7846 43.0509C19.5452 43.0779 19.3643 43.2803 19.3643 43.521V45.7498C19.364 45.8807 19.4183 46.006 19.5141 46.0955C19.6097 46.1852 19.7384 46.2311 19.8691 46.2224C23.1086 46.0164 26.3536 46.5212 29.3778 47.7014C31.3182 48.4618 32.5738 49.2789 32.9114 49.5099L33.3847 50.4981C33.5269 50.7929 33.7489 51.0417 34.0258 51.2161C34.3026 51.3905 34.623 51.4834 34.9502 51.4843H36.0861C36.4133 51.4834 36.7335 51.3903 37.0103 51.2159C37.2868 51.0414 37.509 50.7927 37.6509 50.4981L38.1242 49.5099C38.4636 49.2771 39.7193 48.4618 41.6578 47.7014C44.6819 46.5212 47.9272 46.0164 51.1671 46.2224C51.2978 46.2312 51.4265 46.1852 51.5221 46.0955C51.6179 46.006 51.6722 45.8807 51.6719 45.7498V43.521C51.6719 43.2805 51.4917 43.0784 51.253 43.0509L51.2525 43.0509ZM49.3766 40.1419L49.1961 41.0853C47.8142 41.0932 46.4363 41.237 45.0823 41.5144C44.9566 41.5372 44.8455 41.61 44.7743 41.7161C44.7028 41.8222 44.6776 41.9527 44.704 42.0778C44.7306 42.2029 44.8065 42.3119 44.9144 42.3802C45.0226 42.4485 45.1538 42.4701 45.278 42.4402C46.5086 42.1887 47.7599 42.0519 49.0155 42.0318L48.8364 42.9706C48.1089 42.9851 47.2494 43.0338 46.2997 43.1424C43.7126 43.4408 39.9675 44.2827 36.7177 46.5877H35.9906V45.409C38.6283 40.8911 47.0859 40.2359 49.3763 40.1419L49.3766 40.1419ZM35.0442 45.409V46.5865L34.3186 46.5863C31.0689 44.2813 27.3223 43.4394 24.7365 43.141C23.79 43.0306 22.9274 42.9839 22.1999 42.9693L22.0207 42.0305C23.2764 42.0507 24.5276 42.1873 25.758 42.4388C25.8824 42.4688 26.0134 42.4471 26.1216 42.3789C26.2297 42.3108 26.3057 42.2017 26.332 42.0767C26.3584 41.9516 26.3332 41.8211 26.262 41.715C26.1907 41.6088 26.0794 41.536 25.9537 41.513C24.5999 41.2361 23.2221 41.0927 21.8402 41.0853L21.6597 40.1419C23.9484 40.2359 32.4065 40.891 35.0442 45.409ZM50.7248 45.2499C47.5008 45.1163 44.2841 45.6556 41.2801 46.833C38.8949 47.7719 37.527 48.7702 37.4695 48.8126H37.4693C37.4071 48.8585 37.3568 48.9192 37.3237 48.9892L36.7968 50.0897C36.665 50.3628 36.3889 50.5368 36.0856 50.5377H34.9498C34.6464 50.5368 34.3704 50.3628 34.2385 50.0897L33.7116 48.9892C33.6785 48.9192 33.6283 48.8585 33.5661 48.8126C33.5086 48.7702 32.1407 47.7721 29.7555 46.833H29.7552C27.0588 45.7768 24.1889 45.2328 21.293 45.2292C20.9707 45.2292 20.6433 45.2364 20.3105 45.2506V43.957C22.0324 43.8452 28.7069 43.692 33.8882 47.4433C33.9691 47.5015 34.0658 47.5328 34.1654 47.5328H36.8699H36.8697C36.9693 47.5328 37.066 47.5015 37.1469 47.4433C40.2528 45.1951 43.8836 44.3753 46.3828 44.0839H46.3826C47.8233 43.914 49.2764 43.8719 50.7246 43.9577L50.7248 45.2499Z" fill="white"/>
<path d="M23.3259 25.7567L26.8413 27.4219V32.6487C26.8411 32.8292 26.9439 32.9939 27.1057 33.0732L35.3089 37.1117C35.4407 37.1766 35.5948 37.1766 35.7267 37.1117L43.9299 33.0732C44.0917 32.9939 44.1944 32.8292 44.1942 32.6487V27.4221L47.0337 26.0768V30.1246C47.0337 30.3861 47.2456 30.5979 47.507 30.5979C47.7684 30.5979 47.9802 30.3861 47.9802 30.1246V25.329C47.9802 25.146 47.8748 24.9795 47.7096 24.9013L35.7207 19.2222C35.5924 19.1616 35.4437 19.1616 35.3155 19.2222L23.3265 24.9013C23.1611 24.9795 23.0557 25.146 23.0557 25.329C23.0557 25.512 23.1611 25.6786 23.3265 25.7568L23.3259 25.7567ZM43.2475 32.3538L35.5179 36.1594L27.7884 32.3538V30.8849L35.3091 34.5876C35.4409 34.6525 35.5951 34.6525 35.7269 34.5876L43.2476 30.8849L43.2475 32.3538ZM43.2475 29.8298L35.5179 33.6354L27.7884 29.8298V27.8701L35.3154 31.4359V31.4357C35.4437 31.4963 35.5924 31.4963 35.7206 31.4357L43.2477 27.8701L43.2475 29.8298ZM35.5179 20.1733L46.4015 25.3286L35.5179 30.4839L24.6344 25.3286L35.5179 20.1733Z" fill="white"/>
</svg>
