<svg width="150" height="150" viewBox="0 0 150 150" fill="none" xmlns="http://www.w3.org/2000/svg">
<mask id="path-1-inside-1_1524_251" fill="white">
<path d="M52.5643 65.5625L60.0003 97.7844V112.5C60.0003 113.163 60.2637 113.799 60.7325 114.268C61.2014 114.737 61.8372 115 62.5003 115H87.5003C88.1633 115 88.7992 114.737 89.2681 114.268C89.7369 113.799 90.0003 113.163 90.0003 112.5V97.7844L97.4378 65.5625C97.5275 65.1738 97.5229 64.7692 97.4243 64.3826C97.3258 63.996 97.1361 63.6386 96.8712 63.3403C88.5781 53.9997 84.8062 45.8091 85.0012 37.5591C85.0091 37.2257 84.9502 36.8942 84.8281 36.584C84.7059 36.2738 84.5229 35.9911 84.2899 35.7527C84.0568 35.5142 83.7785 35.3248 83.4711 35.1955C83.1638 35.0663 82.8337 34.9998 82.5003 35H67.5003C67.1573 35 66.8179 35.0706 66.5034 35.2074C66.1888 35.3442 65.9058 35.5443 65.6719 35.7952C65.438 36.046 65.2582 36.3424 65.1437 36.6657C65.0293 36.9891 64.9826 37.3325 65.0065 37.6747C65.5272 45.115 61.6359 53.5184 53.1103 63.3622C52.8523 63.66 52.6684 64.0145 52.5736 64.3969C52.4787 64.7793 52.4755 65.1787 52.5643 65.5625ZM65.0003 110V100H85.0003V110H65.0003ZM77.5003 70C77.5003 70.4945 77.3537 70.9778 77.079 71.3889C76.8043 71.8 76.4138 72.1205 75.957 72.3097C75.5002 72.4989 74.9975 72.5484 74.5126 72.452C74.0276 72.3555 73.5821 72.1174 73.2325 71.7678C72.8829 71.4181 72.6448 70.9727 72.5483 70.4877C72.4519 70.0028 72.5014 69.5001 72.6906 69.0433C72.8798 68.5865 73.2002 68.196 73.6114 67.9213C74.0225 67.6466 74.5058 67.5 75.0003 67.5C75.6631 67.5007 76.2986 67.7644 76.7672 68.2331C77.2359 68.7017 77.4995 69.3372 77.5003 70ZM70.0315 40H72.5003V62.93C70.8322 63.5197 69.4264 64.6802 68.5312 66.2062C67.636 67.7322 67.3091 69.5256 67.6083 71.2693C67.9075 73.0131 68.8135 74.5949 70.1661 75.7353C71.5188 76.8756 73.2311 77.5011 75.0003 77.5011C76.7695 77.5011 78.4818 76.8756 79.8344 75.7353C81.1871 74.5949 82.0931 73.0131 82.3923 71.2693C82.6914 69.5256 82.3646 67.7322 81.4694 66.2062C80.5742 64.6802 79.1683 63.5197 77.5003 62.93V40H80.0459C80.5406 48.3938 84.4787 56.6462 92.2765 65.6841L85.5115 95H64.489L57.719 65.6663C65.6631 56.2525 69.7131 47.8178 70.0315 40Z"/>
</mask>
<path d="M52.5643 65.5625L60.0003 97.7844V112.5C60.0003 113.163 60.2637 113.799 60.7325 114.268C61.2014 114.737 61.8372 115 62.5003 115H87.5003C88.1633 115 88.7992 114.737 89.2681 114.268C89.7369 113.799 90.0003 113.163 90.0003 112.5V97.7844L97.4378 65.5625C97.5275 65.1738 97.5229 64.7692 97.4243 64.3826C97.3258 63.996 97.1361 63.6386 96.8712 63.3403C88.5781 53.9997 84.8062 45.8091 85.0012 37.5591C85.0091 37.2257 84.9502 36.8942 84.8281 36.584C84.7059 36.2738 84.5229 35.9911 84.2899 35.7527C84.0568 35.5142 83.7785 35.3248 83.4711 35.1955C83.1638 35.0663 82.8337 34.9998 82.5003 35H67.5003C67.1573 35 66.8179 35.0706 66.5034 35.2074C66.1888 35.3442 65.9058 35.5443 65.6719 35.7952C65.438 36.046 65.2582 36.3424 65.1437 36.6657C65.0293 36.9891 64.9826 37.3325 65.0065 37.6747C65.5272 45.115 61.6359 53.5184 53.1103 63.3622C52.8523 63.66 52.6684 64.0145 52.5736 64.3969C52.4787 64.7793 52.4755 65.1787 52.5643 65.5625ZM65.0003 110V100H85.0003V110H65.0003ZM77.5003 70C77.5003 70.4945 77.3537 70.9778 77.079 71.3889C76.8043 71.8 76.4138 72.1205 75.957 72.3097C75.5002 72.4989 74.9975 72.5484 74.5126 72.452C74.0276 72.3555 73.5821 72.1174 73.2325 71.7678C72.8829 71.4181 72.6448 70.9727 72.5483 70.4877C72.4519 70.0028 72.5014 69.5001 72.6906 69.0433C72.8798 68.5865 73.2002 68.196 73.6114 67.9213C74.0225 67.6466 74.5058 67.5 75.0003 67.5C75.6631 67.5007 76.2986 67.7644 76.7672 68.2331C77.2359 68.7017 77.4995 69.3372 77.5003 70ZM70.0315 40H72.5003V62.93C70.8322 63.5197 69.4264 64.6802 68.5312 66.2062C67.636 67.7322 67.3091 69.5256 67.6083 71.2693C67.9075 73.0131 68.8135 74.5949 70.1661 75.7353C71.5188 76.8756 73.2311 77.5011 75.0003 77.5011C76.7695 77.5011 78.4818 76.8756 79.8344 75.7353C81.1871 74.5949 82.0931 73.0131 82.3923 71.2693C82.6914 69.5256 82.3646 67.7322 81.4694 66.2062C80.5742 64.6802 79.1683 63.5197 77.5003 62.93V40H80.0459C80.5406 48.3938 84.4787 56.6462 92.2765 65.6841L85.5115 95H64.489L57.719 65.6663C65.6631 56.2525 69.7131 47.8178 70.0315 40Z" fill="#027EBC"/>
<path d="M52.5643 65.5625L169.491 38.5789L169.483 38.5454L169.476 38.5119L52.5643 65.5625ZM60.0003 97.7844H180V84.1176L176.927 70.8008L60.0003 97.7844ZM90.0003 97.7844L-26.9253 70.7955L-29.9997 84.1148V97.7844H90.0003ZM97.4378 65.5625L214.363 92.5514L214.364 92.5507L97.4378 65.5625ZM96.8712 63.3403L7.13607 143.012L7.14045 143.017L96.8712 63.3403ZM85.0012 37.5591L204.968 40.3946L204.968 40.3941L85.0012 37.5591ZM82.5003 35V155H82.5395L82.5788 155L82.5003 35ZM67.5003 35L67.5003 -85L67.4936 -85L67.5003 35ZM65.0065 37.6747L184.714 29.2983L184.713 29.2897L65.0065 37.6747ZM53.1103 63.3622L143.817 141.927L143.819 141.924L53.1103 63.3622ZM65.0003 110H-54.9997V230H65.0003V110ZM65.0003 100V-20H-54.9997V100H65.0003ZM85.0003 100H205V-20H85.0003V100ZM85.0003 110V230H205V110H85.0003ZM77.5003 70H197.5V69.9326L197.5 69.8652L77.5003 70ZM75.0003 67.5L75.1351 -52.4999L75.0677 -52.5H75.0003V67.5ZM70.0315 40V-80H-45.1801L-49.869 35.1162L70.0315 40ZM72.5003 40H192.5V-80H72.5003V40ZM72.5003 62.93L112.5 176.067L192.5 147.783V62.93H72.5003ZM77.5003 62.93H-42.4997V147.783L37.5003 176.067L77.5003 62.93ZM77.5003 40V-80H-42.4997V40H77.5003ZM80.0459 40L199.838 32.94L193.182 -80L80.0459 -80V40ZM92.2765 65.6841L209.204 92.6664L222.887 33.3692L183.133 -12.7067L92.2765 65.6841ZM85.5115 95V215H180.974L202.439 121.982L85.5115 95ZM64.489 95L-52.4373 121.986L-30.9703 215H64.489V95ZM57.719 65.6663L-33.9901 -11.7252L-72.7078 34.1555L-59.2073 92.6519L57.719 65.6663ZM-64.3625 92.5461L-56.9266 124.768L176.927 70.8008L169.491 38.5789L-64.3625 92.5461ZM-59.9997 97.7844V112.5H180V97.7844H-59.9997ZM-59.9997 112.5C-59.9997 144.989 -47.0937 176.147 -24.1203 199.121L145.585 29.415C167.621 51.4507 180 81.3374 180 112.5H-59.9997ZM-24.1203 199.121C-1.14686 222.094 30.0116 235 62.5003 235V-5C93.6629 -5 123.55 7.3792 145.585 29.415L-24.1203 199.121ZM62.5003 235H87.5003V-5H62.5003V235ZM87.5003 235C119.989 235 151.147 222.094 174.121 199.121L4.41524 29.415C26.451 7.3792 56.3377 -5 87.5003 -5V235ZM174.121 199.121C197.094 176.147 210 144.989 210 112.5H-29.9997C-29.9997 81.3374 -17.6205 51.4507 4.41524 29.415L174.121 199.121ZM210 112.5V97.7844H-29.9997V112.5H210ZM206.926 124.773L214.363 92.5514L-19.4878 38.5736L-26.9253 70.7955L206.926 124.773ZM214.364 92.5507C218.76 73.5032 218.534 53.6795 213.705 34.7361L-18.8559 94.0291C-23.4885 75.8589 -23.705 56.8444 -19.488 38.5743L214.364 92.5507ZM213.705 34.7361C208.875 15.7936 199.582 -1.71842 186.602 -16.3365L7.14045 143.017C-5.30991 128.996 -14.2235 112.198 -18.8559 94.0291L213.705 34.7361ZM186.606 -16.3315C188.37 -14.3448 205.782 5.93128 204.968 40.3946L-34.9653 34.7235C-36.1699 85.6868 -11.2141 122.344 7.13607 143.012L186.606 -16.3315ZM204.968 40.3941C205.354 24.0625 202.469 7.81754 196.483 -7.38458L-26.8266 80.5526C-32.5687 65.9709 -35.3355 50.389 -34.9653 34.724L204.968 40.3941ZM196.483 -7.38458C190.496 -22.5865 181.53 -36.4364 170.112 -48.1199L-1.532 119.625C-12.484 108.419 -21.0846 95.134 -26.8266 80.5526L196.483 -7.38458ZM170.112 -48.1199C158.693 -59.804 145.053 -69.086 129.993 -75.4197L36.9493 145.811C22.5044 139.736 9.42062 130.832 -1.532 119.625L170.112 -48.1199ZM129.993 -75.4197C114.934 -81.7532 98.7593 -85.0107 82.4218 -85L82.5788 155C66.9081 155.01 51.3939 151.886 36.9493 145.811L129.993 -75.4197ZM82.5003 -85H67.5003V155H82.5003V-85ZM67.4936 -85C50.6866 -84.9991 34.0591 -81.5396 18.6456 -74.8364L114.361 145.251C99.5768 151.681 83.6279 154.999 67.507 155L67.4936 -85ZM18.6456 -74.8364C3.23199 -68.133 -10.6366 -58.3297 -22.0977 -46.037L153.441 117.627C142.448 129.418 129.146 138.821 114.361 145.251L18.6456 -74.8364ZM-22.0977 -46.037C-33.5596 -33.7435 -42.3687 -19.223 -47.9774 -3.37944L178.265 76.7109C172.885 91.9078 164.436 105.836 153.441 117.627L-22.0977 -46.037ZM-47.9774 -3.37944C-53.5862 12.4645 -55.8746 29.2932 -54.7002 46.0597L184.713 29.2897C185.84 45.3719 183.645 61.5137 178.265 76.7109L-47.9774 -3.37944ZM-54.7008 46.051C-56.1654 25.1192 -50.8791 8.77646 -46.4396 -0.80995C-42.2464 -9.86447 -38.0133 -14.7204 -37.5981 -15.1999L143.819 141.924C158.783 124.646 188.616 85.064 184.714 29.2983L-54.7008 46.051ZM-37.5961 -15.2022C-50.2352 -0.60969 -59.2462 16.763 -63.8949 35.499L169.042 93.2949C164.583 111.266 155.94 127.93 143.817 141.927L-37.5961 -15.2022ZM-63.8949 35.499C-68.5437 54.2353 -68.6987 73.8053 -64.347 92.6131L169.476 38.5119C173.65 56.5521 173.501 75.3232 169.042 93.2949L-63.8949 35.499ZM185 110V100H-54.9997V110H185ZM65.0003 220H85.0003V-20H65.0003V220ZM-34.9997 100V110H205V100H-34.9997ZM85.0003 -10H65.0003V230H85.0003V-10ZM-42.4997 70C-42.4997 46.7611 -35.6087 24.0436 -22.6974 4.7205L176.855 138.057C190.316 117.912 197.5 94.2278 197.5 70H-42.4997ZM-22.6974 4.7205C-9.78605 -14.6027 8.56512 -29.6627 30.035 -38.5558L121.879 183.175C144.262 173.904 163.395 158.203 176.855 138.057L-22.6974 4.7205ZM30.035 -38.5558C51.5053 -47.4491 75.1306 -49.776 97.9234 -45.2423L51.1017 190.146C74.8644 194.873 99.495 192.447 121.879 183.175L30.035 -38.5558ZM97.9234 -45.2423C120.716 -40.7085 141.653 -29.5179 158.085 -13.085L-11.6203 156.621C5.51179 173.753 27.3393 185.42 51.1017 190.146L97.9234 -45.2423ZM158.085 -13.085C174.518 3.34778 185.709 24.2843 190.243 47.0769L-45.1459 93.8986C-40.4193 117.661 -28.7524 139.488 -11.6203 156.621L158.085 -13.085ZM190.243 47.0769C194.776 69.8696 192.449 93.495 183.556 114.965L-38.175 23.1213C-47.4467 45.5052 -49.8726 70.1359 -45.1459 93.8986L190.243 47.0769ZM183.556 114.965C174.663 136.435 159.603 154.786 140.28 167.698L6.94293 -31.855C-13.2025 -18.3943 -28.9034 0.737796 -38.175 23.1213L183.556 114.965ZM140.28 167.698C120.957 180.609 98.2392 187.5 75.0003 187.5V-52.5C50.7725 -52.5 27.0883 -45.3157 6.94293 -31.855L140.28 167.698ZM74.8655 187.5C43.7492 187.465 13.9172 175.089 -8.08558 153.086L161.62 -16.6198C138.68 -39.5599 107.577 -52.4635 75.1351 -52.4999L74.8655 187.5ZM-8.08558 153.086C-30.0886 131.083 -42.4647 101.251 -42.4996 70.1348L197.5 69.8652C197.464 37.4236 184.56 6.32058 161.62 -16.6198L-8.08558 153.086ZM70.0315 160H72.5003V-80H70.0315V160ZM-47.4997 40V62.93H192.5V40H-47.4997ZM32.5003 -50.2071C4.14367 -40.1815 -19.7558 -20.4541 -34.9741 5.48832L172.036 126.924C158.609 149.814 137.521 167.221 112.5 176.067L32.5003 -50.2071ZM-34.9741 5.48832C-50.1924 31.4308 -55.7496 61.9181 -50.6635 91.5616L185.88 50.9771C190.368 77.1331 185.464 104.034 172.036 126.924L-34.9741 5.48832ZM-50.6635 91.5616C-45.5775 121.205 -30.1759 148.096 -7.18027 167.482L147.513 -16.0119C167.803 1.09361 181.392 24.8212 185.88 50.9771L-50.6635 91.5616ZM-7.18027 167.482C15.8152 186.868 44.9236 197.501 75.0003 197.501V-42.4989C101.539 -42.4989 127.222 -33.1172 147.513 -16.0119L-7.18027 167.482ZM75.0003 197.501C105.077 197.501 134.185 186.868 157.181 167.482L2.48803 -16.0119C22.7781 -33.1172 48.462 -42.4989 75.0003 -42.4989V197.501ZM157.181 167.482C180.176 148.096 195.578 121.205 200.664 91.5616L-35.8796 50.9771C-31.3919 24.821 -17.8021 1.09348 2.48803 -16.0119L157.181 167.482ZM200.664 91.5616C205.75 61.9181 200.193 31.4308 184.975 5.48832L-22.0359 126.924C-35.4638 104.034 -40.3672 77.1331 -35.8796 50.9771L200.664 91.5616ZM184.975 5.48832C169.756 -20.4541 145.857 -40.1815 117.5 -50.2071L37.5003 176.067C12.4797 167.221 -8.60802 149.814 -22.0359 126.924L184.975 5.48832ZM197.5 62.93V40H-42.4997V62.93H197.5ZM77.5003 160H80.0459V-80H77.5003V160ZM-39.7462 47.06C-37.164 90.8749 -16.4878 123.319 1.42013 144.075L183.133 -12.7067C185.445 -10.0267 198.245 5.91264 199.838 32.94L-39.7462 47.06ZM-24.6506 38.7017L-31.4156 68.0177L202.439 121.982L209.204 92.6664L-24.6506 38.7017ZM85.5115 -25H64.489V215H85.5115V-25ZM181.415 68.0143L174.645 38.6806L-59.2073 92.6519L-52.4373 121.986L181.415 68.0143ZM149.428 143.058C165.285 124.267 188.061 90.8113 189.932 44.8838L-49.869 35.1162C-49.2434 19.7571 -45.0666 7.84871 -41.4552 0.32225C-37.9917 -6.89602 -34.6651 -10.9253 -33.9901 -11.7252L149.428 143.058Z" fill="#027EBC" mask="url(#path-1-inside-1_1524_251)"/>
<mask id="path-3-inside-2_1524_251" fill="white">
<path d="M147.5 65H141.759C140.025 53.4212 135.308 42.4928 128.072 33.2883C120.837 24.0838 111.331 16.9198 100.489 12.5H115.43C116.02 14.168 117.18 15.5739 118.706 16.4691C120.232 17.3643 122.026 17.6912 123.769 17.392C125.513 17.0928 127.095 16.1868 128.235 14.8342C129.376 13.4815 130.001 11.7692 130.001 10C130.001 8.23078 129.376 6.51852 128.235 5.16585C127.095 3.81318 125.513 2.90719 123.769 2.60801C122.026 2.30883 120.232 2.63573 118.706 3.53092C117.18 4.42611 116.02 5.83197 115.43 7.5H85V2.5C85 1.83696 84.7366 1.20107 84.2678 0.732233C83.7989 0.263392 83.163 0 82.5 0H67.5C66.837 0 66.2011 0.263392 65.7322 0.732233C65.2634 1.20107 65 1.83696 65 2.5V7.5H34.57C33.9803 5.83197 32.8198 4.42611 31.2938 3.53092C29.7678 2.63573 27.9744 2.30883 26.2307 2.60801C24.4869 2.90719 22.9051 3.81318 21.7647 5.16585C20.6244 6.51852 19.9989 8.23078 19.9989 10C19.9989 11.7692 20.6244 13.4815 21.7647 14.8342C22.9051 16.1868 24.4869 17.0928 26.2307 17.392C27.9744 17.6912 29.7678 17.3643 31.2938 16.4691C32.8198 15.5739 33.9803 14.168 34.57 12.5H65V17.5C65 18.163 65.2634 18.7989 65.7322 19.2678C66.2011 19.7366 66.837 20 67.5 20H82.5C83.163 20 83.7989 19.7366 84.2678 19.2678C84.7366 18.7989 85 18.163 85 17.5V13.2984C97.953 15.4011 109.916 21.5257 119.195 30.8048C128.474 40.0838 134.599 52.047 136.701 65H132.5C131.837 65 131.201 65.2634 130.732 65.7322C130.263 66.2011 130 66.837 130 67.5V82.5C130 83.163 130.263 83.7989 130.732 84.2678C131.201 84.7366 131.837 85 132.5 85H136.701C134.599 97.953 128.474 109.916 119.195 119.195C109.916 128.474 97.953 134.599 85 136.702V132.5C85 131.837 84.7366 131.201 84.2678 130.732C83.7989 130.263 83.163 130 82.5 130H67.5C66.837 130 66.2011 130.263 65.7322 130.732C65.2634 131.201 65 131.837 65 132.5V136.699C52.0473 134.596 40.0844 128.472 30.8054 119.194C21.5264 109.915 15.4017 97.9526 13.2987 85H17.5C18.163 85 18.7989 84.7366 19.2678 84.2678C19.7366 83.7989 20 83.163 20 82.5V67.5C20 66.837 19.7366 66.2011 19.2678 65.7322C18.7989 65.2634 18.163 65 17.5 65H2.5C1.83696 65 1.20107 65.2634 0.732233 65.7322C0.263392 66.2011 0 66.837 0 67.5V82.5C0 83.163 0.263392 83.7989 0.732233 84.2678C1.20107 84.7366 1.83696 85 2.5 85H8.24062C10.3831 99.2886 17.0529 112.513 27.2697 122.729C37.4865 132.946 50.7113 139.615 65 141.757V147.5C65 148.163 65.2634 148.799 65.7322 149.268C66.2011 149.737 66.837 150 67.5 150H82.5C83.163 150 83.7989 149.737 84.2678 149.268C84.7366 148.799 85 148.163 85 147.5V141.759C99.289 139.617 112.514 132.947 122.731 122.731C132.947 112.514 139.617 99.289 141.759 85H147.5C148.163 85 148.799 84.7366 149.268 84.2678C149.737 83.7989 150 83.163 150 82.5V67.5C150 66.837 149.737 66.2011 149.268 65.7322C148.799 65.2634 148.163 65 147.5 65ZM27.5 12.5C27.0055 12.5 26.5222 12.3534 26.1111 12.0787C25.7 11.804 25.3795 11.4135 25.1903 10.9567C25.0011 10.4999 24.9516 9.99723 25.048 9.51227C25.1445 9.02732 25.3826 8.58186 25.7322 8.23223C26.0819 7.8826 26.5273 7.6445 27.0123 7.54804C27.4972 7.45157 27.9999 7.50108 28.4567 7.6903C28.9135 7.87952 29.304 8.19995 29.5787 8.61107C29.8534 9.0222 30 9.50555 30 10C29.9993 10.6628 29.7356 11.2983 29.2669 11.7669C28.7983 12.2356 28.1628 12.4993 27.5 12.5ZM122.5 7.5C122.994 7.5 123.478 7.64662 123.889 7.92133C124.3 8.19603 124.62 8.58648 124.81 9.04329C124.999 9.50011 125.048 10.0028 124.952 10.4877C124.856 10.9727 124.617 11.4181 124.268 11.7678C123.918 12.1174 123.473 12.3555 122.988 12.452C122.503 12.5484 122 12.4989 121.543 12.3097C121.086 12.1205 120.696 11.8 120.421 11.3889C120.147 10.9778 120 10.4945 120 10C120.001 9.33719 120.264 8.70173 120.733 8.23305C121.202 7.76438 121.837 7.50074 122.5 7.5ZM80 15H70V5H80V15ZM5 70H15V80H5V70ZM80 145H70V135H80V145ZM145 80H135V70H145V80Z"/>
</mask>
<path d="M147.5 65H141.759C140.025 53.4212 135.308 42.4928 128.072 33.2883C120.837 24.0838 111.331 16.9198 100.489 12.5H115.43C116.02 14.168 117.18 15.5739 118.706 16.4691C120.232 17.3643 122.026 17.6912 123.769 17.392C125.513 17.0928 127.095 16.1868 128.235 14.8342C129.376 13.4815 130.001 11.7692 130.001 10C130.001 8.23078 129.376 6.51852 128.235 5.16585C127.095 3.81318 125.513 2.90719 123.769 2.60801C122.026 2.30883 120.232 2.63573 118.706 3.53092C117.18 4.42611 116.02 5.83197 115.43 7.5H85V2.5C85 1.83696 84.7366 1.20107 84.2678 0.732233C83.7989 0.263392 83.163 0 82.5 0H67.5C66.837 0 66.2011 0.263392 65.7322 0.732233C65.2634 1.20107 65 1.83696 65 2.5V7.5H34.57C33.9803 5.83197 32.8198 4.42611 31.2938 3.53092C29.7678 2.63573 27.9744 2.30883 26.2307 2.60801C24.4869 2.90719 22.9051 3.81318 21.7647 5.16585C20.6244 6.51852 19.9989 8.23078 19.9989 10C19.9989 11.7692 20.6244 13.4815 21.7647 14.8342C22.9051 16.1868 24.4869 17.0928 26.2307 17.392C27.9744 17.6912 29.7678 17.3643 31.2938 16.4691C32.8198 15.5739 33.9803 14.168 34.57 12.5H65V17.5C65 18.163 65.2634 18.7989 65.7322 19.2678C66.2011 19.7366 66.837 20 67.5 20H82.5C83.163 20 83.7989 19.7366 84.2678 19.2678C84.7366 18.7989 85 18.163 85 17.5V13.2984C97.953 15.4011 109.916 21.5257 119.195 30.8048C128.474 40.0838 134.599 52.047 136.701 65H132.5C131.837 65 131.201 65.2634 130.732 65.7322C130.263 66.2011 130 66.837 130 67.5V82.5C130 83.163 130.263 83.7989 130.732 84.2678C131.201 84.7366 131.837 85 132.5 85H136.701C134.599 97.953 128.474 109.916 119.195 119.195C109.916 128.474 97.953 134.599 85 136.702V132.5C85 131.837 84.7366 131.201 84.2678 130.732C83.7989 130.263 83.163 130 82.5 130H67.5C66.837 130 66.2011 130.263 65.7322 130.732C65.2634 131.201 65 131.837 65 132.5V136.699C52.0473 134.596 40.0844 128.472 30.8054 119.194C21.5264 109.915 15.4017 97.9526 13.2987 85H17.5C18.163 85 18.7989 84.7366 19.2678 84.2678C19.7366 83.7989 20 83.163 20 82.5V67.5C20 66.837 19.7366 66.2011 19.2678 65.7322C18.7989 65.2634 18.163 65 17.5 65H2.5C1.83696 65 1.20107 65.2634 0.732233 65.7322C0.263392 66.2011 0 66.837 0 67.5V82.5C0 83.163 0.263392 83.7989 0.732233 84.2678C1.20107 84.7366 1.83696 85 2.5 85H8.24062C10.3831 99.2886 17.0529 112.513 27.2697 122.729C37.4865 132.946 50.7113 139.615 65 141.757V147.5C65 148.163 65.2634 148.799 65.7322 149.268C66.2011 149.737 66.837 150 67.5 150H82.5C83.163 150 83.7989 149.737 84.2678 149.268C84.7366 148.799 85 148.163 85 147.5V141.759C99.289 139.617 112.514 132.947 122.731 122.731C132.947 112.514 139.617 99.289 141.759 85H147.5C148.163 85 148.799 84.7366 149.268 84.2678C149.737 83.7989 150 83.163 150 82.5V67.5C150 66.837 149.737 66.2011 149.268 65.7322C148.799 65.2634 148.163 65 147.5 65ZM27.5 12.5C27.0055 12.5 26.5222 12.3534 26.1111 12.0787C25.7 11.804 25.3795 11.4135 25.1903 10.9567C25.0011 10.4999 24.9516 9.99723 25.048 9.51227C25.1445 9.02732 25.3826 8.58186 25.7322 8.23223C26.0819 7.8826 26.5273 7.6445 27.0123 7.54804C27.4972 7.45157 27.9999 7.50108 28.4567 7.6903C28.9135 7.87952 29.304 8.19995 29.5787 8.61107C29.8534 9.0222 30 9.50555 30 10C29.9993 10.6628 29.7356 11.2983 29.2669 11.7669C28.7983 12.2356 28.1628 12.4993 27.5 12.5ZM122.5 7.5C122.994 7.5 123.478 7.64662 123.889 7.92133C124.3 8.19603 124.62 8.58648 124.81 9.04329C124.999 9.50011 125.048 10.0028 124.952 10.4877C124.856 10.9727 124.617 11.4181 124.268 11.7678C123.918 12.1174 123.473 12.3555 122.988 12.452C122.503 12.5484 122 12.4989 121.543 12.3097C121.086 12.1205 120.696 11.8 120.421 11.3889C120.147 10.9778 120 10.4945 120 10C120.001 9.33719 120.264 8.70173 120.733 8.23305C121.202 7.76438 121.837 7.50074 122.5 7.5ZM80 15H70V5H80V15ZM5 70H15V80H5V70ZM80 145H70V135H80V145ZM145 80H135V70H145V80Z" fill="#027EBC" stroke="#027EBC" stroke-width="240" mask="url(#path-3-inside-2_1524_251)"/>
</svg>
