<svg width="20" height="21" viewBox="0 0 20 21" fill="none" xmlns="http://www.w3.org/2000/svg">
<path d="M19.4245 12.2951C19.5687 11.6355 19.6454 10.9509 19.6454 10.2483C19.6454 4.98016 15.3747 0.709316 10.1064 0.709316C9.55018 0.709316 9.00523 0.757388 8.47501 0.848867C7.62249 0.311758 6.61386 0 5.53194 0C2.47669 0 0 2.47696 0 5.53173C0 6.55294 0.277817 7.5087 0.760363 8.32985C0.633861 8.94958 0.567399 9.59101 0.567399 10.2482C0.567399 15.5163 4.8381 19.7872 10.1064 19.7872C10.7031 19.7872 11.2868 19.7319 11.853 19.6271C12.6318 20.0456 13.5222 20.2836 14.4681 20.2836C17.5234 20.2836 20 17.8069 20 14.7518C20 13.869 19.7922 13.0354 19.4245 12.2951ZM14.9987 14.8069C14.5574 15.4313 13.9054 15.9262 13.0607 16.2774C12.2241 16.6251 11.2213 16.8014 10.0798 16.8014C8.70969 16.8014 7.56104 16.5604 6.6645 16.0849C6.02361 15.7386 5.49509 15.2697 5.09395 14.6912C4.68875 14.1067 4.48321 13.5267 4.48321 12.9675C4.48321 12.6179 4.61708 12.3149 4.88117 12.0669C5.14249 11.8211 5.47737 11.6965 5.87669 11.6965C6.20447 11.6965 6.48716 11.795 6.71704 11.9891C6.93657 12.1752 7.12501 12.4505 7.27639 12.8061C7.44542 13.1932 7.62973 13.5201 7.82438 13.7776C8.01147 14.0253 8.28063 14.2334 8.62437 14.3959C8.9702 14.5597 9.43639 14.6426 10.0098 14.6426C10.7984 14.6426 11.4449 14.4743 11.9313 14.1422C12.4062 13.8178 12.6372 13.4285 12.6372 12.9519C12.6372 12.5753 12.5166 12.2794 12.2688 12.0472C12.0092 11.8044 11.6668 11.6154 11.2509 11.4858C10.8174 11.3506 10.2288 11.2048 9.50082 11.0524C8.51463 10.8412 7.67631 10.5907 7.00865 10.3074C7.00608 10.3064 7.00344 10.3053 7.00087 10.3042C6.31684 10.0133 5.76553 9.60981 5.36223 9.10502C4.95257 8.59239 4.745 7.94926 4.745 7.19329C4.745 6.47269 4.96291 5.82314 5.39272 5.26284C5.81929 4.70646 6.44226 4.27408 7.24427 3.9774C8.03594 3.68464 8.97764 3.5363 10.0431 3.5363C10.895 3.5363 11.644 3.63468 12.2692 3.82906C12.8979 4.02487 13.428 4.2893 13.8445 4.61465C14.264 4.94243 14.576 5.29313 14.772 5.65736C14.97 6.02523 15.0703 6.39135 15.0703 6.7455C15.0703 7.08633 14.9387 7.39606 14.6791 7.66604C14.4179 7.93757 14.0883 8.07543 13.6994 8.07543C13.3461 8.07543 13.0696 7.98922 12.8778 7.81925C12.6992 7.66144 12.5141 7.4154 12.3085 7.06138C12.0706 6.60947 11.7828 6.25322 11.4525 6.00218C11.132 5.75837 10.5961 5.63457 9.85991 5.63457C9.17615 5.63457 8.62004 5.77182 8.20713 6.04254C7.80924 6.30339 7.61594 6.6025 7.61594 6.95686C7.61594 7.17423 7.67814 7.35583 7.80613 7.51215C7.94169 7.67773 8.1329 7.82317 8.37461 7.94406C8.62531 8.07009 8.88366 8.17022 9.14248 8.24168C9.40758 8.31525 9.8524 8.42424 10.4624 8.56514C11.1051 8.70314 11.7037 8.85513 12.2486 9.0178C12.358 9.05046 12.4662 9.08352 12.5711 9.11706C13.2064 9.32036 13.7553 9.57114 14.203 9.86227C14.6599 10.1598 15.0217 10.542 15.2784 10.9982C15.5358 11.456 15.6662 12.0213 15.6662 12.6779C15.6661 13.4639 15.4415 14.18 14.9987 14.8069Z" fill="#027EBC"/>
</svg>
