<svg width="70" height="70" viewBox="0 0 70 70" fill="none" xmlns="http://www.w3.org/2000/svg">
<circle cx="35" cy="35" r="35" fill="#121212"/>
<path d="M49.5911 35.5217H40.5194C40.6929 35.1821 40.8502 34.8343 40.9883 34.4795H42.6177L44.1809 31.353H48.3668C49.3295 31.353 50.112 30.5704 50.112 29.6078C50.112 29.2914 50.026 28.9809 49.8629 28.7094L49.185 27.5791C48.5769 26.5667 47.3747 25.9991 46.2069 26.1747L41.2535 26.9179C39.7768 22.1432 35.3531 18.8467 30.3106 18.8467C23.9897 18.8467 18.8467 23.9894 18.8467 30.3106C18.8467 32.1433 19.285 33.9369 20.115 35.5513C19.3939 35.6899 18.8467 36.3234 18.8467 37.0848V49.5909C18.8467 50.4528 19.548 51.1542 20.4099 51.1542H26.231C26.6484 51.1542 27.0412 50.9911 27.3367 50.6961L27.7052 50.3277L28.0736 50.6961C28.3686 50.9916 28.7613 51.1542 29.1793 51.1542H49.5911C50.453 51.1542 51.1544 50.4528 51.1544 49.5909V37.0848C51.1544 36.2229 50.453 35.5215 49.5911 35.5215L49.5911 35.5217ZM34.043 35.5217C34.103 35.1825 34.1572 34.8355 34.2051 34.4795H34.2379L36.3223 31.353H40.6785C40.5314 32.8213 40.0708 34.246 39.3329 35.5217H34.043ZM21.2903 35.5217C20.4628 34.0924 19.9897 32.4868 19.9073 30.8319H26.1496C26.1752 32.5003 26.3227 34.1064 26.5842 35.5654C26.469 35.5389 26.3518 35.5217 26.2315 35.5217L21.2903 35.5217ZM30.3108 19.889C31.0613 19.889 32.083 21.185 32.7687 24.0577H32.3951V24.5788H27.7469C28.3567 21.7119 29.3682 19.889 30.3108 19.889ZM33.6797 33.4373H33.4373V31.353H35.0694L33.6797 33.4373ZM32.3951 25.621V29.7897H27.1931C27.2175 28.277 27.3473 26.8716 27.5527 25.621H32.3951ZM26.1462 29.7897H19.9158C19.9903 28.2958 20.3764 26.8856 21.0168 25.621H26.4934C26.2866 26.9523 26.1693 28.3761 26.1465 29.7897H26.1462ZM28.0738 35.9797L27.7872 36.2663C27.4262 34.6467 27.2224 32.7871 27.191 30.8318H32.3951V34.4794H33.1528C33.1028 34.8363 33.0465 35.1838 32.9835 35.5216H29.179C28.7615 35.5216 28.3688 35.6847 28.0738 35.9797ZM41.9741 33.4373H41.7749V30.3108H43.5373L41.9741 33.4373ZM46.3626 27.2057C47.1212 27.0926 47.8982 27.4599 48.2922 28.1159L48.9701 29.2462C49.0357 29.3551 49.0702 29.48 49.0702 29.6077C49.0702 29.9955 48.7549 30.3108 48.3671 30.3108H44.7023L45.2234 29.2686H40.7327V30.3108H33.4375V25.0999H33.6564L35.7672 28.7945L46.3626 27.2057ZM36.3184 27.6584L35.1538 25.621H39.6121C39.8462 26.0853 40.0479 26.5699 40.2118 27.0742L36.3184 27.6584ZM39.016 24.5788H34.5581L34.2606 24.0577H33.8365C33.4431 22.3158 32.9048 20.9677 32.2639 20.0798C35.0464 20.6097 37.4795 22.247 39.0161 24.5788H39.016ZM28.3482 20.0802C27.6094 21.1152 27.0493 22.7201 26.6782 24.5788H21.6157C23.1373 22.2788 25.5443 20.6176 28.3482 20.0802H28.3482ZM50.1119 49.5911C50.1119 49.8787 49.8778 50.1122 49.5908 50.1122H29.179C29.0399 50.1122 28.9084 50.058 28.81 49.9596L28.2259 49.3755V48.0279H27.1837V49.3755L26.5996 49.9596C26.5012 50.058 26.3698 50.1122 26.2306 50.1122H20.4096C20.1225 50.1122 19.8885 49.8787 19.8885 49.5911V37.085C19.8885 36.7975 20.1225 36.5639 20.4096 36.5639H26.2306C26.3698 36.5639 26.5012 36.6181 26.5996 36.7165L27.1837 37.3007V38.6483H28.2259V37.3007L28.81 36.7165C28.9084 36.6181 29.0399 36.5639 29.179 36.5639H49.5908C49.8778 36.5639 50.1119 36.7975 50.1119 37.085V49.5911Z" fill="white"/>
<path d="M20.9307 49.0704H26.1416V37.6064H20.9307V49.0704ZM21.9728 48.0282V46.986H25.0994V48.0282H21.9728ZM25.0994 42.8173V43.8595H21.9728V42.8173H25.0994ZM21.9728 41.7752V40.733H25.0994V41.7752H21.9728ZM25.0994 44.9017V45.9439H21.9728V44.9017H25.0994ZM25.0994 38.6486V39.6908H21.9728V38.6486H25.0994Z" fill="white"/>
<path d="M29.2686 42.8173H49.0699V37.6064H29.2686V42.8173ZM30.3107 38.6486H48.0278V41.7752H30.3107V38.6486Z" fill="white"/>
<path d="M42.8174 49.0703H49.0704V43.8594H42.8174V49.0703ZM43.8596 44.9016H48.0283V48.0281H43.8596V44.9016Z" fill="white"/>
<path d="M35.5215 49.0703H41.7746V43.8594H35.5215V49.0703ZM36.5637 44.9016H40.7324V48.0281H36.5637V44.9016Z" fill="white"/>
<path d="M27.1846 39.6904H28.2267V40.7326H27.1846V39.6904Z" fill="white"/>
<path d="M27.1846 43.8594H28.2267V44.9016H27.1846V43.8594Z" fill="white"/>
<path d="M27.1846 45.9434H28.2267V46.9855H27.1846V45.9434Z" fill="white"/>
<path d="M27.1846 41.7754H28.2267V42.8176H27.1846V41.7754Z" fill="white"/>
<path d="M29.2686 43.8594H34.4794V44.9016H29.2686V43.8594Z" fill="white"/>
<path d="M29.2686 45.9434H34.4794V46.9855H29.2686V45.9434Z" fill="white"/>
<path d="M29.2686 48.0273H34.4794V49.0695H29.2686V48.0273Z" fill="white"/>
</svg>
