<svg width="71" height="71" viewBox="0 0 71 71" fill="none" xmlns="http://www.w3.org/2000/svg">
<circle cx="35.334" cy="35.334" r="35" fill="#121212"/>
<path d="M34.3982 37.4961H23.8046C23.6123 37.4961 23.4347 37.594 23.3324 37.7554C23.2295 37.9168 23.2169 38.119 23.2982 38.2923L25.5206 43.0118V54.7189C25.5206 55.027 25.7716 55.2777 26.0794 55.2777C26.3878 55.2777 26.6382 55.0273 26.6385 54.7192V42.8872C26.6385 42.8048 26.6199 42.7228 26.5851 42.6491L24.6845 38.6139H34.3975C34.7063 38.6139 34.9563 38.3635 34.9563 38.0547C34.9567 37.7456 34.7066 37.4963 34.3979 37.4963L34.3982 37.4961Z" fill="white"/>
<path d="M36.7713 56.6379H25.8275L20.4429 55.0691V42.5197L23.3561 43.1442C23.3953 43.1528 23.4348 43.1562 23.4736 43.1562C23.7316 43.1562 23.9634 42.9762 24.0195 42.7146C24.0843 42.4137 23.892 42.1166 23.5902 42.0512L20.0012 41.2828C19.9846 41.2792 19.9693 41.2842 19.9527 41.2825C19.9288 41.2792 19.9086 41.2686 19.8837 41.2686C19.8618 41.2686 19.8432 41.2785 19.8223 41.2808C19.7914 41.2842 19.7622 41.2905 19.7326 41.2988C19.6918 41.3101 19.6536 41.325 19.6174 41.3449C19.5912 41.3592 19.5682 41.3755 19.545 41.3941C19.5128 41.4196 19.4836 41.4465 19.457 41.4787C19.4374 41.5026 19.4218 41.5272 19.4065 41.5541C19.386 41.59 19.37 41.6265 19.3571 41.667C19.3524 41.6833 19.3415 41.6955 19.3375 41.7121C19.3338 41.7311 19.3388 41.7487 19.3371 41.7673C19.3348 41.7882 19.3252 41.8058 19.3252 41.8274V55.4886C19.3252 55.7366 19.4896 55.9545 19.728 56.0245L25.592 57.7334C25.6424 57.7487 25.6952 57.7564 25.748 57.7564H36.7717C37.0801 57.7564 37.3305 57.506 37.3305 57.1975C37.3298 56.8888 37.0795 56.6377 36.771 56.6377L36.7713 56.6379Z" fill="white"/>
<path d="M27.7178 42.8882C27.7178 43.1964 27.9678 43.4471 28.2766 43.4471H36.3818C36.6906 43.4471 36.9409 43.1967 36.9409 42.8882C36.9409 42.5788 36.6909 42.3291 36.3818 42.3291H28.2766C27.9675 42.3291 27.7178 42.5785 27.7178 42.8882Z" fill="white"/>
<path d="M47.2658 22.7986V13.0949C47.2658 12.7868 47.0164 12.5361 46.707 12.5361H41.6352C41.3277 12.5361 41.0764 12.7871 41.0764 13.0949V22.8045C38.4494 23.9261 36.7091 26.5303 36.7091 29.411V32.06C36.7091 32.3674 36.9592 32.6188 37.268 32.6188H47.7196V50.3524H41.1122C40.8041 50.3524 40.5534 50.6027 40.5534 50.9112C40.5534 51.2186 40.8037 51.47 41.1122 51.47H48.2787C48.5875 51.47 48.8375 51.2196 48.8379 50.9109V32.0595C48.8379 31.751 48.5885 31.5007 48.2791 31.5007H37.8274V29.4105C37.8274 26.8648 39.4344 24.5715 41.8264 23.7042C41.8301 23.7029 41.8327 23.6995 41.8364 23.6979C41.8792 23.6813 41.9144 23.6541 41.9516 23.6278C41.9748 23.6112 42.0017 23.5996 42.022 23.5803C42.0476 23.5554 42.0638 23.5232 42.0848 23.4944C42.1053 23.4648 42.1299 23.4386 42.1442 23.4057C42.1561 23.3785 42.1581 23.3483 42.1658 23.319C42.1767 23.2772 42.1907 23.2367 42.1913 23.1925C42.1917 23.1879 42.1943 23.1839 42.1943 23.1796V13.6536H46.1488V23.1796C46.1488 23.4147 46.2969 23.6238 46.5177 23.7045C48.909 24.5718 50.5157 26.8648 50.5157 29.4109V56.6381H39.6356V42.886C39.6356 42.8036 39.6167 42.7216 39.5818 42.6479L37.3595 37.9284V35.984C37.3595 34.6011 36.2346 33.4755 34.8503 33.4755H23.7535C22.3693 33.4755 21.244 34.6004 21.244 35.984V37.8833L20.1115 39.55C19.9378 39.8057 20.0039 40.1527 20.2599 40.327C20.3562 40.3921 20.4651 40.4236 20.573 40.4236C20.7517 40.4236 20.9276 40.337 21.0355 40.1786L22.2647 38.368C22.2754 38.3524 22.277 38.3341 22.2857 38.3179C22.3033 38.286 22.3165 38.2531 22.3282 38.2176C22.3401 38.1794 22.3477 38.1429 22.3511 38.1044C22.3531 38.0868 22.361 38.0721 22.361 38.0542V35.984C22.361 35.217 22.9849 34.5935 23.7529 34.5935H25.7029V36.0943C25.7029 36.4027 25.9532 36.6531 26.2617 36.6531C26.5705 36.6531 26.8205 36.4037 26.8205 36.0943V34.5935H27.7001V36.0943C27.7001 36.4027 27.9505 36.6531 28.2589 36.6531C28.5677 36.6531 28.8177 36.4037 28.8177 36.0943V34.5935H29.6979V36.0943C29.6979 36.4027 29.9482 36.6531 30.2567 36.6531C30.5652 36.6531 30.8155 36.4037 30.8155 36.0943V34.5935H33.6926V36.0943C33.6926 36.4027 33.943 36.6531 34.2514 36.6531C34.5602 36.6531 34.8102 36.4037 34.8102 36.0943V34.5935H34.8484C35.6154 34.5935 36.2396 35.2167 36.2396 35.984V38.0542C36.2396 38.1366 36.2575 38.2186 36.2924 38.2923L38.5163 43.0118V57.1975C38.5163 57.5056 38.7657 57.7563 39.0752 57.7563H39.0755H51.0733C51.3817 57.7563 51.6321 57.5062 51.6321 57.1975L51.6324 29.4117C51.6341 26.53 49.8946 23.9212 47.2662 22.7986L47.2658 22.7986Z" fill="white"/>
<path d="M41.1129 36.7273H45.8924C46.2009 36.7273 46.4516 36.4773 46.4516 36.1685C46.4516 35.8591 46.2012 35.6094 45.8924 35.6094H41.1129C40.8044 35.6094 40.5537 35.8587 40.5537 36.1685C40.5534 36.4773 40.8044 36.7273 41.1129 36.7273Z" fill="white"/>
<path d="M41.1129 38.9646H45.8924C46.2009 38.9646 46.4516 38.7143 46.4516 38.4058C46.4516 38.0964 46.2012 37.8467 45.8924 37.8467H41.1129C40.8044 37.8467 40.5537 38.096 40.5537 38.4058C40.5534 38.7139 40.8044 38.9646 41.1129 38.9646Z" fill="white"/>
</svg>
