<svg width="150" height="150" viewBox="0 0 150 150" fill="none" xmlns="http://www.w3.org/2000/svg">
<path d="M109.157 40.8401C107.862 32.66 101.364 26.2928 93.1592 25.1645C90.6943 12.768 81.0039 3.07761 68.6074 0.612682C51.6827 -2.7524 35.2343 8.23977 31.8693 25.1645C23.6645 26.2925 17.1664 32.66 15.872 40.8401C6.72842 42.2593 -0.0119937 50.1369 1.60234e-05 59.3894C0.0134904 69.743 8.4174 78.1255 18.771 78.1123H75.0119V71.8634H18.771C11.8686 71.8634 6.27292 66.268 6.27292 59.3654C6.27292 52.4627 11.8683 46.8673 18.771 46.8673C20.4966 46.8673 21.8956 45.4683 21.8956 43.7427C21.9035 36.9006 27.4051 31.3337 34.2466 31.2446C34.3556 31.2563 34.4651 31.2628 34.5747 31.2634C36.1685 31.2634 37.5068 30.0636 37.6805 28.4795C38.9831 16.8842 48.1346 7.73243 59.7299 6.4301C73.4485 4.88904 85.8189 14.7611 87.36 28.4795C87.4439 29.2446 87.8072 29.9518 88.3804 30.4655C88.9535 30.9792 89.6961 31.2633 90.4658 31.2634C90.5702 31.2622 90.6745 31.256 90.7784 31.2446C97.6204 31.3334 103.123 36.9001 103.133 43.7427C103.133 45.4683 104.532 46.8673 106.257 46.8673C113.16 46.8673 118.755 52.463 118.755 59.3654H125.004C124.99 50.1354 118.273 42.2834 109.157 40.8401Z" fill="#027EBC"/>
<path d="M34.3926 24.9961V31.245C41.295 31.245 46.8906 36.8404 46.8906 43.7431H53.1395C53.129 33.3936 44.7418 25.0063 34.3926 24.9961ZM140.625 62.49H90.6335C85.4567 62.49 81.26 66.6867 81.26 71.8635V140.602C81.26 145.779 85.4567 149.976 90.6335 149.976H140.625C145.802 149.976 149.999 145.779 149.999 140.602V71.8635C149.999 66.6864 145.802 62.49 140.625 62.49ZM143.75 140.602C143.75 142.328 142.351 143.727 140.625 143.727H90.6335C88.9079 143.727 87.5089 142.328 87.5089 140.602V71.8635C87.5089 70.1379 88.9079 68.7389 90.6335 68.7389H140.625C142.351 68.7389 143.75 70.1379 143.75 71.8635L143.75 140.602Z" fill="#027EBC"/>
<path d="M115.631 74.9878C103.552 74.9878 93.7598 84.7799 93.7598 96.8594C93.7598 108.939 103.552 118.731 115.631 118.731C127.705 118.717 137.489 108.933 137.503 96.8594C137.503 84.7802 127.711 74.9878 115.631 74.9878ZM115.631 112.482C107.003 112.482 100.009 105.487 100.009 96.8594C100.009 88.2314 107.003 81.237 115.631 81.237C124.255 81.2472 131.243 88.2357 131.254 96.8594C131.254 105.487 124.259 112.482 115.631 112.482Z" fill="#027EBC"/>
<path d="M112.505 93.7348H118.754V99.9837H112.505V93.7348ZM93.7582 131.229H100.007V137.478H93.7582V131.229ZM106.256 131.229H112.505V137.478H106.256V131.229ZM40.6419 87.4859C35.4651 87.4859 31.2685 91.6826 31.2685 96.8594C31.2685 102.036 35.4651 106.233 40.6419 106.233C45.8187 106.233 50.0154 102.036 50.0154 96.8594C50.0154 91.6826 45.8187 87.4859 40.6419 87.4859ZM40.6419 99.984C38.9163 99.984 37.5174 98.585 37.5174 96.8594C37.5174 95.1338 38.9163 93.7348 40.6419 93.7348C42.3675 93.7348 43.7665 95.1338 43.7665 96.8594C43.7665 98.585 42.3675 99.984 40.6419 99.984ZM115.63 0C110.453 0 106.256 4.19668 106.256 9.37348C106.256 14.5503 110.453 18.747 115.63 18.747C120.807 18.747 125.003 14.5503 125.003 9.37348C125.003 4.19668 120.807 0 115.63 0ZM115.63 12.4981C113.904 12.4981 112.505 11.0991 112.505 9.37348C112.505 7.64788 113.904 6.24889 115.63 6.24889C117.355 6.24889 118.754 7.64788 118.754 9.37348C118.754 11.0991 117.355 12.4981 115.63 12.4981ZM9.39692 131.229C4.22012 131.229 0.0234375 135.425 0.0234375 140.602C0.0234375 145.779 4.22012 149.976 9.39692 149.976C14.5737 149.976 18.7704 145.779 18.7704 140.602C18.7704 135.425 14.574 131.229 9.39692 131.229ZM9.39692 143.727C7.67132 143.727 6.27233 142.328 6.27233 140.602C6.27233 138.877 7.67132 137.478 9.39692 137.478C11.1225 137.478 12.5215 138.877 12.5215 140.602C12.5215 142.328 11.1228 143.727 9.39692 143.727Z" fill="#027EBC"/>
<path d="M43.7665 118.731V103.109H37.5176V121.856C37.5176 123.581 38.9166 124.98 40.6422 124.98H84.385V118.731H43.7665V118.731Z" fill="#027EBC"/>
<path d="M37.5177 121.855V128.104C37.5177 133.281 33.3211 137.478 28.1443 137.478H15.6465V143.726H28.1446C36.7684 143.716 43.7567 136.728 43.7669 128.104V121.855H37.5177ZM132.39 21.7153L120.964 10.2891L116.546 14.7072L127.972 26.1335C130.009 28.1594 131.624 30.5692 132.723 33.2234C133.823 35.8777 134.385 38.7236 134.377 41.5965V65.6146H140.626V41.5965C140.636 37.9026 139.914 34.2433 138.5 30.8306C137.086 27.4179 135.01 24.3197 132.39 21.7153Z" fill="#027EBC"/>
</svg>
