<svg width="60" height="61" viewBox="0 0 60 61" fill="none" xmlns="http://www.w3.org/2000/svg">
<path d="M59.9997 22.7397C59.9997 23.6067 59.7592 24.4176 59.3401 25.1079L58.9079 25.6984L44.0191 46.1154L35.5226 57.7692L35.5191 57.7727L35.1359 58.2984L35.1333 58.3019C33.926 59.7979 32.0766 60.7532 30.0032 60.7532C27.9299 60.7532 25.9737 59.7402 24.7726 58.1681L24.5355 57.8453L24.532 57.8418L15.9804 46.1163L10.4707 38.5621C11.7838 40.1403 13.761 41.1446 15.9717 41.1446C18.3128 41.1446 20.3896 40.0195 21.6975 38.2795L21.7089 38.262L29.9989 26.8943L34.8665 20.2167L34.8849 20.1887L35.0887 19.9148C35.925 18.8572 37.2207 18.1757 38.6747 18.1757H55.4331C57.9535 18.1757 59.998 20.2193 59.998 22.7406L59.9997 22.7397Z" fill="#027EBC"/>
<path d="M30.0009 26.8934L21.7109 38.2611L21.6995 38.2786C20.3916 40.0187 18.3148 41.1437 15.9737 41.1437C13.763 41.1437 11.7858 40.1403 10.4727 38.5612L10.4666 38.5524L10.4578 38.5402L9.97405 37.8744L9.94693 37.8377L1.0988 25.7072L0.660504 25.1079L0.657005 25.1018L0.653505 25.0991C0.240581 24.4089 0 23.6032 0 22.7397C0 20.2184 2.04363 18.1748 4.56404 18.1748H21.3277C22.7931 18.1748 24.0975 18.8659 24.9312 19.9385L24.9382 19.9481L25.114 20.1878L25.1228 20.2L30.0009 26.8934Z" fill="#027EBC"/>
<path d="M55.4342 18.1748H38.6758C37.2218 18.1748 35.927 18.8563 35.0898 19.914L34.886 20.1878L34.8676 20.2158L30 26.8926L44.0184 46.1154L58.9073 25.6984L59.3395 25.1079C59.7585 24.4176 59.9991 23.6058 59.9991 22.7397C59.9991 20.2184 57.9546 18.1748 55.4342 18.1748Z" fill="#027EBC"/>
<path d="M51.7187 0C55.4604 0 58.4952 3.03307 58.4952 6.77563C58.4952 10.5182 55.4612 13.553 51.7187 13.553H48.5421C44.7996 13.553 41.7656 10.5191 41.7656 6.77563C41.7656 3.03219 44.7996 0 48.5421 0H51.7187Z" fill="#027EBC"/>
<path d="M54.1 0.439169L49.857 3.53435L49.8404 3.54572C48.1913 4.78625 47.1231 6.75551 47.1231 8.97585C47.1231 10.7413 47.8003 12.3457 48.9052 13.5539H48.5421C44.7996 13.5539 41.7656 10.5199 41.7656 6.77651C41.7656 3.03307 44.7996 0 48.5421 0H51.7187C52.5576 0 53.3599 0.159221 54.1009 0.439169H54.1Z" fill="#023859"/>
<path d="M30.0009 26.8934L21.7109 38.2611L21.6995 38.2786C20.3916 40.0187 18.3148 41.1437 15.9737 41.1437C13.763 41.1437 11.7858 40.1403 10.4727 38.5612L10.4666 38.5524L10.4578 38.5402L9.97405 37.8744L9.94693 37.8377L1.0988 25.7072L0.660504 25.1079L0.657005 25.1018L0.653505 25.0991C0.240581 24.4089 0 23.6032 0 22.7397C0 20.2184 2.04363 18.1748 4.56404 18.1748H21.3277C22.7931 18.1748 24.0975 18.8659 24.9312 19.9385L24.9382 19.9481L25.114 20.1878L25.1228 20.2L30.0009 26.8934Z" fill="#023859"/>
</svg>
