<svg width="62" height="48" viewBox="0 0 62 48" fill="none" xmlns="http://www.w3.org/2000/svg">
<path d="M36.5183 46.6364H59.167C60.1788 46.6364 61 45.8152 61 44.8034V2.83299C61 1.81996 60.1788 1 59.167 1H2.83299C1.82118 1 1 1.81996 1 2.83299V44.8034C1 45.8152 1.82118 46.6364 2.83299 46.6364H25.5223M1.38701 9.79886H60.613" stroke="#027EBC" stroke-width="2" stroke-miterlimit="10" stroke-linecap="round" stroke-linejoin="round"/>
<path d="M27.7369 35.1597L26.4313 30.7931L31.0008 22.0177L35.5704 30.7931L34.2648 35.1597M27.7369 35.1597H34.2648M27.7369 35.1597V40.2674H34.2648V35.1597M15.8314 34.577C15.8314 27.0883 21.256 20.8671 28.3897 19.6308M33.001 22.0177H29.0007C28.8386 22.0177 28.6832 21.9534 28.5686 21.8388C28.4541 21.7242 28.3897 21.5688 28.3897 21.4067V17.4064C28.3897 17.2444 28.4541 17.089 28.5686 16.9744C28.6832 16.8598 28.8386 16.7954 29.0007 16.7954H33.001C33.1631 16.7954 33.3185 16.8598 33.433 16.9744C33.5476 17.089 33.612 17.2444 33.612 17.4064V21.4067C33.612 21.5688 33.5476 21.7242 33.433 21.8388C33.3185 21.9534 33.1631 22.0177 33.001 22.0177ZM11.9707 22.0177H7.97037C7.80833 22.0177 7.65292 21.9534 7.53833 21.8388C7.42375 21.7242 7.35938 21.5688 7.35938 21.4067V17.4064C7.35938 17.2444 7.42375 17.089 7.53833 16.9744C7.65292 16.8598 7.80833 16.7954 7.97037 16.7954H11.9707C12.1327 16.7954 12.2882 16.8598 12.4027 16.9744C12.5173 17.089 12.5817 17.2444 12.5817 17.4064V21.4067C12.5817 21.5688 12.5173 21.7242 12.4027 21.8388C12.2882 21.9534 12.1327 22.0177 11.9707 22.0177ZM54.0313 22.0177H50.031C49.8689 22.0177 49.7135 21.9534 49.5989 21.8388C49.4844 21.7242 49.42 21.5688 49.42 21.4067V17.4064C49.42 17.2444 49.4844 17.089 49.5989 16.9744C49.7135 16.8598 49.8689 16.7954 50.031 16.7954H54.0313C54.1934 16.7954 54.3488 16.8598 54.4634 16.9744C54.5779 17.089 54.6423 17.2444 54.6423 17.4064V21.4067C54.6423 21.5688 54.5779 21.7242 54.4634 21.8388C54.3488 21.9534 54.1934 22.0177 54.0313 22.0177Z" stroke="#027EBC" stroke-width="2" stroke-miterlimit="10" stroke-linecap="round" stroke-linejoin="round"/>
<path d="M33.6104 19.6306C40.744 20.867 46.1687 27.0881 46.1687 34.5768M49.4184 19.406H33.6104M28.3881 19.406H12.5801" stroke="#027EBC" stroke-width="2" stroke-miterlimit="10" stroke-linecap="round" stroke-linejoin="round"/>
<path d="M15.8299 40.3246C17.272 40.3246 18.4411 39.1556 18.4411 37.7135C18.4411 36.2713 17.272 35.1023 15.8299 35.1023C14.3878 35.1023 13.2188 36.2713 13.2188 37.7135C13.2188 39.1556 14.3878 40.3246 15.8299 40.3246Z" stroke="#027EBC" stroke-width="2" stroke-miterlimit="10" stroke-linecap="round" stroke-linejoin="round"/>
<path d="M46.1698 40.3246C47.6119 40.3246 48.7809 39.1556 48.7809 37.7135C48.7809 36.2713 47.6119 35.1023 46.1698 35.1023C44.7276 35.1023 43.5586 36.2713 43.5586 37.7135C43.5586 39.1556 44.7276 40.3246 46.1698 40.3246Z" stroke="#027EBC" stroke-width="2" stroke-miterlimit="10" stroke-linecap="round" stroke-linejoin="round"/>
</svg>
