<svg width="60" height="60" viewBox="0 0 60 60" fill="none" xmlns="http://www.w3.org/2000/svg">
<path d="M53.75 0H6.25C2.75 0 0 2.75 0 6.25V53.75C0 57.25 2.75 60 6.25 60H53.75C57.25 60 60 57.25 60 53.75V6.25C60 2.75 57.25 0 53.75 0ZM57.5 53.75C57.5 55.875 55.875 57.5 53.75 57.5H6.25C4.125 57.5 2.5 55.875 2.5 53.75V17.5H45.5C46.25 17.5 46.75 17 46.75 16.25C46.75 15.5 46.25 15 45.5 15H2.5V6.25C2.5 4.125 4.125 2.5 6.25 2.5H53.75C55.875 2.5 57.5 4.125 57.5 6.25V53.75Z" fill="#027EBC"/>
<path d="M9.125 5.125C7.125 5.125 5.625 6.75 5.625 8.75C5.625 10.75 7.25 12.375 9.25 12.375C11.25 12.375 12.875 10.75 12.875 8.75C12.875 6.75 11.125 5.125 9.125 5.125ZM9.125 9.75C8.5 9.75 8.125 9.375 8.125 8.75C8.125 8.125 8.5 7.625 9.125 7.625C9.75 7.625 10.25 8.125 10.25 8.75C10.25 9.375 9.75 9.75 9.125 9.75Z" fill="#027EBC"/>
<path d="M17.5 5.125C15.5 5.125 13.875 6.75 13.875 8.75C13.875 10.75 15.5 12.375 17.5 12.375C19.5 12.375 21.125 10.75 21.125 8.75C21.125 6.75 19.375 5.125 17.5 5.125ZM17.5 9.75C16.875 9.75 16.375 9.25 16.375 8.625C16.375 8 16.875 7.5 17.5 7.5C18.125 7.5 18.625 8 18.625 8.625C18.5 9.375 18 9.75 17.5 9.75Z" fill="#027EBC"/>
<path d="M25.75 5.125C23.75 5.125 22.125 6.75 22.125 8.75C22.125 10.75 23.75 12.375 25.75 12.375C27.75 12.375 29.375 10.75 29.375 8.75C29.375 6.75 27.75 5.125 25.75 5.125ZM25.75 9.75C25.125 9.75 24.625 9.25 24.625 8.625C24.625 8 25.125 7.5 25.75 7.5C26.375 7.625 26.875 8.125 26.875 8.75C26.875 9.375 26.375 9.75 25.75 9.75Z" fill="#027EBC"/>
<path d="M53.125 15H49.75C49 15 48.5 15.5 48.5 16.25C48.5 17 49 17.5 49.75 17.5H53.125C53.875 17.5 54.375 17 54.375 16.25C54.375 15.5 53.75 15 53.125 15Z" fill="#027EBC"/>
<path d="M42.5 34.5C42 34 41.25 34 40.75 34.5C40.25 35 40.25 35.75 40.75 36.25L44.875 40.375L40.625 44.625C40.125 45.125 40.125 45.875 40.625 46.375C40.875 46.625 41.25 46.75 41.5 46.75C41.875 46.75 42.125 46.625 42.375 46.375L47.375 41.375C47.875 40.875 47.875 40.125 47.375 39.625L42.5 34.5Z" fill="#027EBC"/>
<path d="M19.375 34.5C18.875 34 18.125 34 17.625 34.5L12.625 39.5C12.125 40 12.125 40.75 12.625 41.25L17.625 46.25C17.875 46.5 18.25 46.625 18.5 46.625C18.875 46.625 19.125 46.5 19.375 46.25C19.875 45.75 19.875 45 19.375 44.5L15.25 40.375L19.375 36.25C19.75 35.875 19.75 35 19.375 34.5Z" fill="#027EBC"/>
<path d="M35.3751 29.0001C34.7501 28.7501 34.0001 29.0001 33.7501 29.6251L24.0001 50.2501C23.7501 50.8751 24.0001 51.6251 24.6251 51.8751C24.7501 52.0001 25.0001 52.0001 25.1251 52.0001C25.6251 52.0001 26.0001 51.7501 26.2501 51.2501L36.0001 30.6251C36.2501 30.0001 36.0001 29.2501 35.3751 29.0001Z" fill="#027EBC"/>
<path d="M17.6947 20.416V26H16.5747V22.368L15.0787 26H14.2307L12.7267 22.368V26H11.6067V20.416H12.8787L14.6547 24.568L16.4307 20.416H17.6947ZM19.37 21.04C19.1727 21.04 19.0073 20.9787 18.874 20.856C18.746 20.728 18.682 20.5707 18.682 20.384C18.682 20.1973 18.746 20.0427 18.874 19.92C19.0073 19.792 19.1727 19.728 19.37 19.728C19.5673 19.728 19.73 19.792 19.858 19.92C19.9913 20.0427 20.058 20.1973 20.058 20.384C20.058 20.5707 19.9913 20.728 19.858 20.856C19.73 20.9787 19.5673 21.04 19.37 21.04ZM19.922 21.568V26H18.802V21.568H19.922ZM20.7406 23.784C20.7406 23.3253 20.8339 22.9253 21.0206 22.584C21.2072 22.2373 21.4659 21.9707 21.7966 21.784C22.1272 21.592 22.5059 21.496 22.9326 21.496C23.4819 21.496 23.9352 21.6347 24.2926 21.912C24.6552 22.184 24.8979 22.568 25.0206 23.064H23.8126C23.7486 22.872 23.6392 22.7227 23.4846 22.616C23.3352 22.504 23.1486 22.448 22.9246 22.448C22.6046 22.448 22.3512 22.5653 22.1646 22.8C21.9779 23.0293 21.8846 23.3573 21.8846 23.784C21.8846 24.2053 21.9779 24.5333 22.1646 24.768C22.3512 24.9973 22.6046 25.112 22.9246 25.112C23.3779 25.112 23.6739 24.9093 23.8126 24.504H25.0206C24.8979 24.984 24.6552 25.3653 24.2926 25.648C23.9299 25.9307 23.4766 26.072 22.9326 26.072C22.5059 26.072 22.1272 25.9787 21.7966 25.792C21.4659 25.6 21.2072 25.3333 21.0206 24.992C20.8339 24.6453 20.7406 24.2427 20.7406 23.784ZM26.9611 22.256C27.1051 22.0213 27.2917 21.8373 27.5211 21.704C27.7557 21.5707 28.0224 21.504 28.3211 21.504V22.68H28.0251C27.6731 22.68 27.4064 22.7627 27.2251 22.928C27.0491 23.0933 26.9611 23.3813 26.9611 23.792V26H25.8411V21.568H26.9611V22.256ZM31.0434 26.072C30.6168 26.072 30.2328 25.9787 29.8914 25.792C29.5501 25.6 29.2808 25.3307 29.0834 24.984C28.8914 24.6373 28.7954 24.2373 28.7954 23.784C28.7954 23.3307 28.8941 22.9307 29.0914 22.584C29.2941 22.2373 29.5688 21.9707 29.9154 21.784C30.2621 21.592 30.6488 21.496 31.0754 21.496C31.5021 21.496 31.8888 21.592 32.2354 21.784C32.5821 21.9707 32.8541 22.2373 33.0514 22.584C33.2541 22.9307 33.3554 23.3307 33.3554 23.784C33.3554 24.2373 33.2514 24.6373 33.0434 24.984C32.8408 25.3307 32.5634 25.6 32.2114 25.792C31.8648 25.9787 31.4754 26.072 31.0434 26.072ZM31.0434 25.096C31.2461 25.096 31.4354 25.048 31.6114 24.952C31.7928 24.8507 31.9368 24.7013 32.0434 24.504C32.1501 24.3067 32.2034 24.0667 32.2034 23.784C32.2034 23.3627 32.0914 23.04 31.8674 22.816C31.6488 22.5867 31.3794 22.472 31.0594 22.472C30.7394 22.472 30.4701 22.5867 30.2514 22.816C30.0381 23.04 29.9314 23.3627 29.9314 23.784C29.9314 24.2053 30.0354 24.5307 30.2434 24.76C30.4568 24.984 30.7234 25.096 31.0434 25.096ZM35.873 26.072C35.5103 26.072 35.185 26.008 34.897 25.88C34.609 25.7467 34.3797 25.568 34.209 25.344C34.0437 25.12 33.953 24.872 33.937 24.6H35.065C35.0863 24.7707 35.169 24.912 35.313 25.024C35.4623 25.136 35.6463 25.192 35.865 25.192C36.0783 25.192 36.2437 25.1493 36.361 25.064C36.4837 24.9787 36.545 24.8693 36.545 24.736C36.545 24.592 36.4703 24.4853 36.321 24.416C36.177 24.3413 35.945 24.2613 35.625 24.176C35.2943 24.096 35.0223 24.0133 34.809 23.928C34.601 23.8427 34.4197 23.712 34.265 23.536C34.1157 23.36 34.041 23.1227 34.041 22.824C34.041 22.5787 34.1103 22.3547 34.249 22.152C34.393 21.9493 34.5957 21.7893 34.857 21.672C35.1237 21.5547 35.4357 21.496 35.793 21.496C36.321 21.496 36.7423 21.6293 37.057 21.896C37.3717 22.1573 37.545 22.512 37.577 22.96H36.505C36.489 22.784 36.4143 22.6453 36.281 22.544C36.153 22.4373 35.9797 22.384 35.761 22.384C35.5583 22.384 35.401 22.4213 35.289 22.496C35.1823 22.5707 35.129 22.6747 35.129 22.808C35.129 22.9573 35.2037 23.072 35.353 23.152C35.5023 23.2267 35.7343 23.304 36.049 23.384C36.369 23.464 36.633 23.5467 36.841 23.632C37.049 23.7173 37.2277 23.8507 37.377 24.032C37.5317 24.208 37.6117 24.4427 37.617 24.736C37.617 24.992 37.545 25.2213 37.401 25.424C37.2623 25.6267 37.0597 25.7867 36.793 25.904C36.5317 26.016 36.225 26.072 35.873 26.072ZM40.5044 26.072C40.0777 26.072 39.6937 25.9787 39.3524 25.792C39.011 25.6 38.7417 25.3307 38.5444 24.984C38.3524 24.6373 38.2564 24.2373 38.2564 23.784C38.2564 23.3307 38.355 22.9307 38.5524 22.584C38.755 22.2373 39.0297 21.9707 39.3764 21.784C39.723 21.592 40.1097 21.496 40.5364 21.496C40.963 21.496 41.3497 21.592 41.6964 21.784C42.043 21.9707 42.315 22.2373 42.5124 22.584C42.715 22.9307 42.8164 23.3307 42.8164 23.784C42.8164 24.2373 42.7124 24.6373 42.5044 24.984C42.3017 25.3307 42.0244 25.6 41.6724 25.792C41.3257 25.9787 40.9364 26.072 40.5044 26.072ZM40.5044 25.096C40.707 25.096 40.8964 25.048 41.0724 24.952C41.2537 24.8507 41.3977 24.7013 41.5044 24.504C41.611 24.3067 41.6644 24.0667 41.6644 23.784C41.6644 23.3627 41.5524 23.04 41.3284 22.816C41.1097 22.5867 40.8404 22.472 40.5204 22.472C40.2004 22.472 39.931 22.5867 39.7124 22.816C39.499 23.04 39.3924 23.3627 39.3924 23.784C39.3924 24.2053 39.4964 24.5307 39.7044 24.76C39.9177 24.984 40.1844 25.096 40.5044 25.096ZM45.6699 22.488H44.8939V26H43.7579V22.488H43.2539V21.568H43.7579V21.344C43.7579 20.8 43.9126 20.4 44.2219 20.144C44.5313 19.888 44.9979 19.768 45.6219 19.784V20.728C45.3499 20.7227 45.1606 20.768 45.0539 20.864C44.9473 20.96 44.8939 21.1333 44.8939 21.384V21.568H45.6699V22.488ZM47.6998 22.488V24.632C47.6998 24.7813 47.7344 24.8907 47.8038 24.96C47.8784 25.024 48.0011 25.056 48.1718 25.056H48.6918V26H47.9878C47.0438 26 46.5718 25.5413 46.5718 24.624V22.488H46.0438V21.568H46.5718V20.472H47.6998V21.568H48.6918V22.488H47.6998Z" fill="#027EBC"/>
</svg>
