<svg width="60" height="60" viewBox="0 0 60 60" fill="none" xmlns="http://www.w3.org/2000/svg">
<path d="M54.5446 47.091H5.45366C2.9082 47.091 0.908203 45.091 0.908203 42.5455V14.4546C0.908203 11.9092 2.9082 9.90918 5.45366 9.90918H5.81729C6.36275 9.90918 6.72639 10.2728 6.72639 10.8183C6.72639 11.3637 6.36275 11.7274 5.81729 11.7274H5.45366C3.9082 11.7274 2.72638 12.9092 2.72638 14.4546V42.5455C2.72638 44.091 3.9082 45.2728 5.45366 45.2728H54.5446C56.09 45.2728 57.2718 44.091 57.2718 42.5455V14.4546C57.2718 12.9092 56.09 11.7274 54.5446 11.7274H26.5446C25.9991 11.7274 25.6355 11.3637 25.6355 10.8183C25.6355 10.2728 25.9991 9.90918 26.5446 9.90918H54.5446C57.09 9.90918 59.09 11.9092 59.09 14.4546V42.5455C59.09 45.091 57.09 47.091 54.5446 47.091Z" fill="#027EBC"/>
<path d="M58.1809 41.5455H1.81729C1.27184 41.5455 0.908203 41.1818 0.908203 40.6364C0.908203 40.0909 1.27184 39.7273 1.81729 39.7273H58.1809C58.7264 39.7273 59.09 40.0909 59.09 40.6364C59.09 41.1818 58.7264 41.5455 58.1809 41.5455ZM36.2718 53H23.7264C23.1809 53 22.8173 52.6364 22.8173 52.0909V46.1818C22.8173 45.6364 23.1809 45.2727 23.7264 45.2727H36.2718C36.8173 45.2727 37.1809 45.6364 37.1809 46.1818V52.0909C37.1809 52.6364 36.8173 53 36.2718 53ZM24.6355 51.1818H35.3628V47.0909H24.6355V51.1818Z" fill="#027EBC"/>
<path d="M40.1804 59.0001H19.8167C18.544 59.0001 17.544 58.0001 17.544 56.7273V53.4546C17.544 52.1819 18.544 51.1819 19.8167 51.1819H40.1804C41.4531 51.1819 42.4531 52.1819 42.4531 53.4546V56.7273C42.4531 58.0001 41.4531 59.0001 40.1804 59.0001ZM19.8167 53.0001C19.6349 53.0001 19.3622 53.2728 19.3622 53.4546V56.7273C19.3622 56.9092 19.4531 57.1819 19.8167 57.1819H40.1804C40.3622 57.1819 40.6349 57.091 40.6349 56.7273V53.4546C40.6349 53.2728 40.544 53.0001 40.1804 53.0001H19.8167ZM31.3622 44.3637H28.6349C28.0895 44.3637 27.7258 44.0001 27.7258 43.4546C27.7258 42.9092 28.0895 42.5455 28.6349 42.5455H31.3622C31.9076 42.5455 32.2713 42.9092 32.2713 43.4546C32.2713 44.0001 31.9076 44.3637 31.3622 44.3637ZM16.1804 23.1819C15.2713 23.1819 14.4531 23.091 13.6349 22.9092C13.1804 22.8183 12.9076 22.3637 12.9986 21.9092C13.1804 20.9092 12.9076 20.3637 12.6349 20.1819C12.4531 20.091 11.9076 20.3637 11.3622 21.091C11.0895 21.4546 10.544 21.5455 10.1804 21.3637C8.81674 20.4546 7.72583 19.2728 6.90765 17.9092C6.63492 17.5455 6.81674 17.0001 7.18038 16.7273C7.99856 16.091 8.18038 15.5455 8.18038 15.3637C8.08947 15.1819 7.54401 14.9092 6.54401 14.9092C6.08947 14.9092 5.63492 14.6364 5.54401 14.1819C5.27129 12.5455 5.27129 10.9092 5.63492 9.45461C5.72583 9.00007 6.18038 8.72734 6.63492 8.81825C7.4531 8.81825 8.08947 8.54552 8.18038 8.3637C8.27129 8.18189 7.99856 7.54552 7.27129 7.00007C6.90765 6.72734 6.81674 6.18189 7.08947 5.81825C7.99856 4.45461 9.18038 3.3637 10.544 2.54552C10.9076 2.27279 11.4531 2.45461 11.7258 2.81825C12.2713 3.63643 12.9076 3.81825 13.0895 3.81825C13.2713 3.63643 13.6349 3.00007 13.544 2.00007C13.544 1.54552 13.8167 1.09098 14.2713 1.00007C15.9076 0.72734 17.544 0.72734 18.9986 1.09098C19.4531 1.18189 19.7258 1.63643 19.6349 2.09098C19.4531 3.09098 19.7258 3.63643 19.9986 3.81825C20.1804 3.90916 20.7258 3.63643 21.2713 2.90916C21.544 2.54552 22.0895 2.45461 22.4531 2.63643C23.8167 3.54552 24.9076 4.72734 25.7258 6.09098C25.9986 6.45461 25.8167 7.00007 25.4531 7.2728C24.6349 7.90916 24.4531 8.45461 24.4531 8.63643C24.544 8.81825 25.0895 9.09098 25.9986 9.00007C26.4531 8.90916 26.9076 9.27279 26.9986 9.72734C27.2713 11.3637 27.2713 13.0001 26.9076 14.4546C26.8167 14.9092 26.3622 15.1819 25.9076 15.091C24.9076 14.9092 24.3622 15.1819 24.1804 15.4546C23.9986 15.9092 24.544 16.5455 25.0895 16.9092C25.4531 17.1819 25.544 17.7273 25.3622 18.091C24.4531 19.4546 23.2713 20.5455 21.9076 21.3637C21.544 21.6364 20.9986 21.4546 20.7258 21.091C20.2713 20.3637 19.6349 20.0001 19.2713 20.1819C19.0895 20.2728 18.8167 20.8183 18.9076 21.8183C18.9076 22.2728 18.6349 22.7273 18.1804 22.8183C17.6349 23.091 16.9076 23.1819 16.1804 23.1819ZM14.8167 21.2728C15.6349 21.3637 16.4531 21.4546 17.2713 21.2728C17.3622 20.0001 17.9986 19.0001 18.8167 18.6364C19.8167 18.2728 20.9076 18.6364 21.8167 19.5455C22.544 19.091 23.0895 18.5455 23.6349 17.9092C22.7258 17.0001 22.4531 15.8182 22.8167 14.8182C23.2713 13.9092 24.2713 13.3637 25.544 13.3637C25.6349 12.5455 25.7258 11.7273 25.6349 10.9092C24.3622 10.9092 23.3622 10.2728 22.9986 9.3637C22.6349 8.45461 22.9986 7.3637 23.9076 6.45461C23.4531 5.72734 22.9076 5.18189 22.2713 4.63643C21.3622 5.54552 20.1804 5.90916 19.2713 5.45461C18.3622 5.00007 17.9076 4.00007 17.9076 2.72734C17.0895 2.63643 16.2713 2.54552 15.4531 2.72734C15.3622 4.09098 14.8167 5.09098 13.8167 5.45461C12.9076 5.81825 11.8167 5.45461 10.9076 4.54552C10.1804 5.00007 9.63492 5.54552 9.08947 6.18189C9.99856 7.09098 10.3622 8.2728 9.90765 9.18189C9.4531 10.091 8.4531 10.5455 7.18038 10.5455C7.08947 11.3637 6.99856 12.1819 7.18038 13.0001C8.4531 13.091 9.4531 13.6364 9.81674 14.5455C10.1804 15.4546 9.81674 16.5455 8.90765 17.4546C9.36219 18.1819 9.90765 18.7273 10.544 19.2728C11.4531 18.3637 12.6349 18.0001 13.544 18.4546C14.2713 19.0001 14.8167 20.0001 14.8167 21.2728Z" fill="#027EBC"/>
<path d="M16.2725 18.1818C14.6571 18.1818 13.1079 17.5401 11.9656 16.3978C10.8234 15.2556 10.1816 13.7063 10.1816 12.0909C10.1816 10.4755 10.8234 8.92625 11.9656 7.78399C13.1079 6.64172 14.6571 6 16.2725 6C17.888 6 19.4372 6.64172 20.5795 7.78399C21.7217 8.92625 22.3635 10.4755 22.3635 12.0909C22.3635 13.7063 21.7217 15.2556 20.5795 16.3978C19.4372 17.5401 17.888 18.1818 16.2725 18.1818ZM16.2725 7.81818C13.9089 7.81818 11.9998 9.72727 11.9998 12.0909C11.9998 14.4545 13.9089 16.3636 16.2725 16.3636C18.6362 16.3636 20.5453 14.4545 20.5453 12.0909C20.5453 9.72727 18.6362 7.81818 16.2725 7.81818ZM51.9998 37.4545H32.818C30.9998 37.4545 29.6362 36.0909 29.6362 34.2727V17.8182C29.6362 16 30.9998 14.6364 32.818 14.6364H52.0907C53.9089 14.6364 55.2725 16 55.2725 17.8182V34.3636C55.1816 36.0909 53.7271 37.4545 51.9998 37.4545ZM32.818 16.4545C32.0907 16.4545 31.4544 17.0909 31.4544 17.8182V34.2727C31.4544 35 32.0907 35.6364 32.818 35.6364H51.9998C52.7271 35.6364 53.3635 35.0909 53.4544 34.2727V17.8182C53.4544 17.0909 52.818 16.4545 52.0907 16.4545H32.818Z" fill="#027EBC"/>
<path d="M54.2711 22.5455H30.5439C29.9984 22.5455 29.6348 22.1818 29.6348 21.6364C29.6348 21.0909 29.9984 20.7273 30.5439 20.7273H54.2711C54.8166 20.7273 55.1802 21.0909 55.1802 21.6364C55.1802 22.1818 54.8166 22.5455 54.2711 22.5455ZM43.4529 19.5455H33.6348C33.0893 19.5455 32.7257 19.1818 32.7257 18.6364C32.7257 18.0909 33.0893 17.7273 33.6348 17.7273H43.4529C43.9984 17.7273 44.362 18.0909 44.362 18.6364C44.362 19.1818 43.9984 19.5455 43.4529 19.5455ZM47.2711 19.5455H46.2711C45.7257 19.5455 45.362 19.1818 45.362 18.6364C45.362 18.0909 45.7257 17.7273 46.2711 17.7273H47.2711C47.8166 17.7273 48.1802 18.0909 48.1802 18.6364C48.1802 19.1818 47.8166 19.5455 47.2711 19.5455ZM51.1802 19.5455H50.1802C49.6348 19.5455 49.2711 19.1818 49.2711 18.6364C49.2711 18.0909 49.6348 17.7273 50.1802 17.7273H51.1802C51.7257 17.7273 52.0893 18.0909 52.0893 18.6364C52.0893 19.1818 51.7257 19.5455 51.1802 19.5455ZM39.0893 32.4546C38.8166 32.4546 38.6348 32.3637 38.4529 32.1818L35.8166 29.5455C35.6348 29.3637 35.5439 29.1818 35.5439 28.9091C35.5439 28.6364 35.6348 28.4546 35.8166 28.2728L38.5439 25.6364C38.9075 25.2728 39.4529 25.2728 39.8166 25.6364C40.1802 26 40.1802 26.5455 39.8166 26.9091L37.7257 28.9091L39.7257 30.9091C40.0893 31.2727 40.0893 31.8182 39.7257 32.1818C39.5439 32.3637 39.362 32.4546 39.0893 32.4546ZM45.7257 32.4546C45.4529 32.4546 45.2711 32.3637 45.0893 32.1818C44.7257 31.8182 44.7257 31.2727 45.0893 30.9091L47.7257 28.2728C48.0893 27.9091 48.6348 27.9091 48.9984 28.2728C49.362 28.6364 49.362 29.1818 48.9984 29.5455L46.362 32.1818C46.1802 32.3637 45.9984 32.4546 45.7257 32.4546Z" fill="#027EBC"/>
<path d="M48.3626 29.8182C48.1808 29.8182 47.908 29.7273 47.7262 29.5455L44.9989 26.9091C44.6353 26.5455 44.6353 26 44.9989 25.6364C45.3626 25.2728 45.908 25.2728 46.2717 25.6364L48.9989 28.2728C49.3626 28.6364 49.3626 29.1819 48.9989 29.5455C48.8171 29.7273 48.6353 29.8182 48.3626 29.8182ZM41.4535 33.3637H41.1808C40.7262 33.2728 40.4535 32.7273 40.5444 32.2728L42.4535 25.1819C42.5444 24.7273 43.0899 24.4546 43.5444 24.5455C43.9989 24.6364 44.2717 25.1819 44.1808 25.6364L42.3626 32.7273C42.1808 33.0909 41.8171 33.3637 41.4535 33.3637ZM23.5444 37.4546H8.99893C6.81712 37.4546 5.08984 35.7273 5.08984 33.5455C5.08984 31.3637 6.81712 29.6364 8.99893 29.6364H23.5444C25.7262 29.6364 27.4535 31.3637 27.4535 33.5455C27.4535 35.7273 25.7262 37.4546 23.5444 37.4546ZM8.99893 31.4546C7.90803 31.4546 6.90803 32.4546 6.90803 33.5455C6.90803 34.6364 7.90803 35.6364 8.99893 35.6364H23.5444C24.6353 35.6364 25.6353 34.6364 25.6353 33.5455C25.6353 32.4546 24.6353 31.4546 23.5444 31.4546H8.99893Z" fill="#027EBC"/>
<path d="M18.3633 34.4547H10.2724C9.72692 34.4547 9.36328 34.091 9.36328 33.5456C9.36328 33.0001 9.72692 32.6365 10.2724 32.6365H18.3633C18.9087 32.6365 19.2724 33.0001 19.2724 33.5456C19.2724 34.091 18.9087 34.4547 18.3633 34.4547Z" fill="#027EBC"/>
</svg>
