<svg width="70" height="70" viewBox="0 0 70 70" fill="none" xmlns="http://www.w3.org/2000/svg">
<circle cx="35" cy="35" r="35" fill="#121212"/>
<mask id="path-2-inside-1_1570_751" fill="white">
<path d="M18.5929 37.5878V49.7861C18.5929 49.882 18.6309 49.9737 18.6987 50.0414C18.7664 50.1092 18.8583 50.1472 18.954 50.1472H25.9937C26.0894 50.1472 26.1813 50.1092 26.249 50.0414C26.3168 49.9737 26.3548 49.882 26.3548 49.7861V46.7139C28.8357 48.0952 31.6272 48.8219 34.4666 48.8259H44.6902C47.1271 48.8259 48.5315 48.2412 50.2496 46.519H50.2499C50.6301 46.1272 50.859 45.613 50.8953 45.0683C50.9318 44.5234 50.7734 43.9832 50.4483 43.5442L50.3834 43.4541C50.0074 42.9439 49.4355 42.6143 48.8057 42.5443C48.1457 42.4692 47.4839 42.672 46.979 43.1038C45.6144 44.2627 45.0223 44.5477 43.1523 44.5477L43.0514 44.548V43.6382C43.0483 42.9376 42.7678 42.2668 42.2712 41.7727C41.7744 41.2788 41.102 41.0019 40.4014 41.0029H35.7407C35.3796 40.4 34.1341 38.6383 31.9539 38.6383H26.3547V37.5877C26.3547 37.492 26.3167 37.4001 26.2489 37.3323C26.1812 37.2646 26.0893 37.2266 25.9936 37.2266H18.9539C18.7544 37.2266 18.5928 37.3882 18.5928 37.5877L18.5929 37.5878ZM26.3546 39.3748H31.9541C34.0804 39.3748 35.203 41.541 35.203 41.541C35.2652 41.6608 35.3894 41.7361 35.5243 41.7359H40.3945C40.903 41.7331 41.3918 41.9315 41.7544 42.2879C42.117 42.6444 42.3238 43.1299 42.3296 43.6384V44.5553H35.5316V45.2772L43.1521 45.2775C45.2244 45.2775 45.968 44.9164 47.4447 43.653V43.6527C47.7995 43.3533 48.2608 43.2113 48.7226 43.2594C49.155 43.307 49.5479 43.5334 49.8055 43.8839L49.8704 43.9705H49.8707C50.0938 44.271 50.2034 44.6407 50.1794 45.0143C50.1558 45.3878 50.0001 45.7406 49.7405 46.0102C48.1628 47.5952 46.9355 48.1041 44.6865 48.1041H34.4661C31.6132 48.1026 28.8125 47.3386 26.3543 45.8911L26.3546 39.3748ZM19.3149 37.949H25.6326V49.4252H19.3149V37.949Z"/>
</mask>
<path d="M18.5929 37.5878V49.7861C18.5929 49.882 18.6309 49.9737 18.6987 50.0414C18.7664 50.1092 18.8583 50.1472 18.954 50.1472H25.9937C26.0894 50.1472 26.1813 50.1092 26.249 50.0414C26.3168 49.9737 26.3548 49.882 26.3548 49.7861V46.7139C28.8357 48.0952 31.6272 48.8219 34.4666 48.8259H44.6902C47.1271 48.8259 48.5315 48.2412 50.2496 46.519H50.2499C50.6301 46.1272 50.859 45.613 50.8953 45.0683C50.9318 44.5234 50.7734 43.9832 50.4483 43.5442L50.3834 43.4541C50.0074 42.9439 49.4355 42.6143 48.8057 42.5443C48.1457 42.4692 47.4839 42.672 46.979 43.1038C45.6144 44.2627 45.0223 44.5477 43.1523 44.5477L43.0514 44.548V43.6382C43.0483 42.9376 42.7678 42.2668 42.2712 41.7727C41.7744 41.2788 41.102 41.0019 40.4014 41.0029H35.7407C35.3796 40.4 34.1341 38.6383 31.9539 38.6383H26.3547V37.5877C26.3547 37.492 26.3167 37.4001 26.2489 37.3323C26.1812 37.2646 26.0893 37.2266 25.9936 37.2266H18.9539C18.7544 37.2266 18.5928 37.3882 18.5928 37.5877L18.5929 37.5878ZM26.3546 39.3748H31.9541C34.0804 39.3748 35.203 41.541 35.203 41.541C35.2652 41.6608 35.3894 41.7361 35.5243 41.7359H40.3945C40.903 41.7331 41.3918 41.9315 41.7544 42.2879C42.117 42.6444 42.3238 43.1299 42.3296 43.6384V44.5553H35.5316V45.2772L43.1521 45.2775C45.2244 45.2775 45.968 44.9164 47.4447 43.653V43.6527C47.7995 43.3533 48.2608 43.2113 48.7226 43.2594C49.155 43.307 49.5479 43.5334 49.8055 43.8839L49.8704 43.9705H49.8707C50.0938 44.271 50.2034 44.6407 50.1794 45.0143C50.1558 45.3878 50.0001 45.7406 49.7405 46.0102C48.1628 47.5952 46.9355 48.1041 44.6865 48.1041H34.4661C31.6132 48.1026 28.8125 47.3386 26.3543 45.8911L26.3546 39.3748ZM19.3149 37.949H25.6326V49.4252H19.3149V37.949Z" fill="white"/>
<path d="M18.5929 37.5878H20.5929V36.9252L20.1973 36.3937L18.5929 37.5878ZM18.6987 50.0414L20.1129 48.6272L20.1128 48.6272L18.6987 50.0414ZM26.249 50.0414L24.8348 48.6272L24.8348 48.6273L26.249 50.0414ZM26.3548 46.7139L27.3277 44.9665L24.3548 43.3113V46.7139H26.3548ZM34.4666 48.8259L34.4637 50.8259H34.4666V48.8259ZM50.2496 46.519V44.519H49.4198L48.8338 45.1065L50.2496 46.519ZM50.2499 46.519V48.519H51.0959L51.6852 47.9119L50.2499 46.519ZM50.8953 45.0683L48.8998 44.9346L48.8997 44.9354L50.8953 45.0683ZM50.4483 43.5442L48.8258 44.7136L48.8334 44.7241L48.8411 44.7346L50.4483 43.5442ZM50.3834 43.4541L52.0059 42.2848L51.9997 42.2762L51.9934 42.2676L50.3834 43.4541ZM48.8057 42.5443L48.5797 44.5315L48.5847 44.532L48.8057 42.5443ZM46.979 43.1038L48.2736 44.6283L48.279 44.6237L46.979 43.1038ZM43.1523 44.5477V42.5477L43.1474 42.5478L43.1523 44.5477ZM43.0514 44.548H41.0514V46.553L43.0564 46.548L43.0514 44.548ZM43.0514 43.6382H45.0514L45.0513 43.6296L43.0514 43.6382ZM42.2712 41.7727L43.6819 40.3549L43.6811 40.3542L42.2712 41.7727ZM40.4014 41.0029V43.0029L40.4044 43.0029L40.4014 41.0029ZM35.7407 41.0029L34.025 42.0306L34.6074 43.0029H35.7407V41.0029ZM26.3547 38.6383H24.3547V40.6383H26.3547V38.6383ZM26.2489 37.3323L24.8347 38.7465L24.8347 38.7466L26.2489 37.3323ZM18.5928 37.5877H16.5928V38.2503L16.9884 38.7818L18.5928 37.5877ZM26.3546 39.3748V37.3748H24.3547L24.3546 39.3747L26.3546 39.3748ZM35.203 41.541L33.4273 42.4612L33.4278 42.4621L35.203 41.541ZM35.5243 41.7359V39.7359L35.5206 39.7359L35.5243 41.7359ZM40.3945 41.7359V43.7359L40.4054 43.7358L40.3945 41.7359ZM41.7544 42.2879L43.1567 40.8618L43.1562 40.8613L41.7544 42.2879ZM42.3296 43.6384H44.3296V43.627L44.3294 43.6156L42.3296 43.6384ZM42.3296 44.5553V46.5553H44.3296V44.5553H42.3296ZM35.5316 44.5553V42.5553H33.5316V44.5553H35.5316ZM35.5316 45.2772H33.5316V47.2771L35.5315 47.2772L35.5316 45.2772ZM43.1521 45.2775L43.1521 47.2775H43.1521V45.2775ZM47.4447 43.653L48.7449 45.1727L49.4447 44.574V43.653H47.4447ZM47.4447 43.6527L46.1548 42.1242L45.4447 42.7235V43.6527H47.4447ZM48.7226 43.2594L48.9415 41.2714L48.9298 41.2702L48.7226 43.2594ZM49.8055 43.8839L48.1939 45.0683L48.1996 45.0761L48.2055 45.0839L49.8055 43.8839ZM49.8704 43.9705L48.2704 45.1705L48.8704 45.9705H49.8704V43.9705ZM49.8707 43.9705L51.4763 42.7781L50.8766 41.9705H49.8707V43.9705ZM50.1794 45.0143L48.1835 44.8865L48.1834 44.8878L50.1794 45.0143ZM49.7405 46.0102L51.158 47.4212L51.1697 47.4094L51.1813 47.3974L49.7405 46.0102ZM34.4661 48.1041L34.465 50.1041H34.4661V48.1041ZM26.3543 45.8911L24.3543 45.891L24.3543 47.0344L25.3395 47.6145L26.3543 45.8911ZM19.3149 37.949V35.949H17.3149V37.949H19.3149ZM25.6326 37.949H27.6326V35.949H25.6326V37.949ZM25.6326 49.4252V51.4252H27.6326V49.4252H25.6326ZM19.3149 49.4252H17.3149V51.4252H19.3149V49.4252ZM16.5929 37.5878V49.7861H20.5929V37.5878H16.5929ZM16.5929 49.7861C16.5929 50.4128 16.8419 51.0131 17.2845 51.4557L20.1128 48.6272C20.42 48.9343 20.5929 49.3513 20.5929 49.7861H16.5929ZM17.2845 51.4557C17.7275 51.8987 18.3283 52.1472 18.954 52.1472V48.1472C19.3884 48.1472 19.8053 48.3196 20.1129 48.6272L17.2845 51.4557ZM18.954 52.1472H25.9937V48.1472H18.954V52.1472ZM25.9937 52.1472C26.6194 52.1472 27.2202 51.8987 27.6633 51.4556L24.8348 48.6273C25.1424 48.3196 25.5594 48.1472 25.9937 48.1472V52.1472ZM27.6632 51.4557C28.1058 51.0131 28.3548 50.4128 28.3548 49.7861H24.3548C24.3548 49.3513 24.5277 48.9343 24.8348 48.6272L27.6632 51.4557ZM28.3548 49.7861V46.7139H24.3548V49.7861H28.3548ZM25.3819 48.4613C28.1595 50.0078 31.2848 50.8214 34.4637 50.8259L34.4694 46.8259C31.9695 46.8224 29.5119 46.1825 27.3277 44.9665L25.3819 48.4613ZM34.4666 50.8259H44.6902V46.8259H34.4666V50.8259ZM44.6902 50.8259C46.0679 50.8259 47.3124 50.6612 48.5064 50.1654C49.7004 49.6696 50.6945 48.9049 51.6655 47.9316L48.8338 45.1065C48.0866 45.8554 47.5195 46.2441 46.9725 46.4712C46.4256 46.6983 45.7494 46.8259 44.6902 46.8259V50.8259ZM50.2496 48.519H50.2499V44.519H50.2496V48.519ZM51.6852 47.9119C52.3952 47.1802 52.8231 46.2196 52.8909 45.2012L48.8997 44.9354C48.895 45.0063 48.865 45.0742 48.8146 45.1262L51.6852 47.9119ZM52.8908 45.202C52.9591 44.1837 52.6631 43.1742 52.0555 42.3539L48.8411 44.7346C48.8838 44.7922 48.9046 44.863 48.8998 44.9346L52.8908 45.202ZM52.0709 42.3749L52.0059 42.2848L48.7608 44.6234L48.8258 44.7136L52.0709 42.3749ZM51.9934 42.2676C51.2861 41.3078 50.2105 40.6881 49.0266 40.5565L48.5847 44.532C48.6606 44.5405 48.7287 44.58 48.7733 44.6406L51.9934 42.2676ZM49.0316 40.5571C47.82 40.4193 46.6055 40.7914 45.679 41.584L48.279 44.6237C48.3622 44.5525 48.4713 44.5192 48.5797 44.5315L49.0316 40.5571ZM45.6843 41.5794C45.0177 42.1456 44.7448 42.3124 44.5264 42.3979C44.3255 42.4765 44.01 42.5477 43.1523 42.5477V46.5477C44.1647 46.5477 45.0801 46.4765 45.9839 46.1229C46.8702 45.7761 47.5757 45.221 48.2736 44.6283L45.6843 41.5794ZM43.1474 42.5478L43.0464 42.548L43.0564 46.548L43.1573 46.5477L43.1474 42.5478ZM45.0514 44.548V43.6382H41.0514V44.548H45.0514ZM45.0513 43.6296C45.046 42.3999 44.5536 41.2223 43.6819 40.3549L40.8605 43.1904C40.982 43.3113 41.0506 43.4754 41.0514 43.6468L45.0513 43.6296ZM43.6811 40.3542C42.8092 39.4875 41.6289 39.0011 40.3985 39.0029L40.4044 43.0029C40.5751 43.0026 40.7395 43.0702 40.8613 43.1912L43.6811 40.3542ZM40.4014 39.0029H35.7407V43.0029H40.4014V39.0029ZM37.4565 39.9752C37.0431 39.2851 35.2804 36.6383 31.9539 36.6383V40.6383C32.4669 40.6383 32.8899 40.8365 33.2613 41.1411C33.6498 41.4596 33.9123 41.8425 34.025 42.0306L37.4565 39.9752ZM31.9539 36.6383H26.3547V40.6383H31.9539V36.6383ZM28.3547 38.6383V37.5877H24.3547V38.6383H28.3547ZM28.3547 37.5877C28.3547 36.9619 28.1062 36.3612 27.6631 35.9181L24.8347 38.7466C24.5271 38.439 24.3547 38.022 24.3547 37.5877H28.3547ZM27.6631 35.9181C27.2201 35.475 26.6193 35.2266 25.9936 35.2266V39.2266C25.5592 39.2266 25.1423 39.0541 24.8347 38.7465L27.6631 35.9181ZM25.9936 35.2266H18.9539V39.2266H25.9936V35.2266ZM18.9539 35.2266C17.6499 35.2266 16.5928 36.2837 16.5928 37.5877H20.5928C20.5928 38.4928 19.859 39.2266 18.9539 39.2266V35.2266ZM16.9884 38.7818L16.9885 38.782L20.1973 36.3937L20.1971 36.3935L16.9884 38.7818ZM26.3546 41.3748H31.9541V37.3748H26.3546V41.3748ZM31.9541 41.3748C32.2934 41.3748 32.6285 41.5419 32.9681 41.8784C33.1296 42.0386 33.2567 42.2042 33.3419 42.3292C33.3834 42.3901 33.4119 42.4367 33.4268 42.4621C33.4342 42.4746 33.438 42.4815 33.4382 42.4818C33.4382 42.4819 33.4374 42.4803 33.4356 42.4769C33.4347 42.4753 33.4335 42.4731 33.4321 42.4705C33.4315 42.4692 33.4307 42.4678 33.4299 42.4662C33.4295 42.4654 33.4291 42.4646 33.4286 42.4638C33.4284 42.4634 33.4281 42.4627 33.428 42.4625C33.4276 42.4619 33.4273 42.4612 35.203 41.541C36.9787 40.6207 36.9784 40.62 36.978 40.6194C36.9779 40.6191 36.9775 40.6184 36.9773 40.6179C36.9768 40.617 36.9762 40.616 36.9757 40.6149C36.9746 40.6129 36.9735 40.6106 36.9722 40.6083C36.9698 40.6036 36.967 40.5983 36.9639 40.5926C36.9577 40.581 36.9503 40.5673 36.9416 40.5515C36.9243 40.52 36.9019 40.4804 36.8744 40.4337C36.8196 40.3406 36.7438 40.218 36.6468 40.0758C36.4551 39.7947 36.1686 39.4187 35.7837 39.0373C35.0304 38.2907 33.7411 37.3748 31.9541 37.3748V41.3748ZM33.4278 42.4621C33.8344 43.2458 34.6448 43.7375 35.5281 43.7359L35.5206 39.7359C36.1339 39.7347 36.696 40.0759 36.9782 40.6198L33.4278 42.4621ZM35.5243 43.7359H40.3945V39.7359H35.5243V43.7359ZM40.4054 43.7358C40.3857 43.736 40.3667 43.7282 40.3526 43.7144L43.1562 40.8613C42.4169 40.1349 41.4203 39.7303 40.3837 39.7359L40.4054 43.7358ZM40.3521 43.7139C40.338 43.7001 40.3299 43.6811 40.3297 43.6612L44.3294 43.6156C44.3176 42.5788 43.896 41.5888 43.1567 40.8618L40.3521 43.7139ZM40.3296 43.6384V44.5553H44.3296V43.6384H40.3296ZM42.3296 42.5553H35.5316V46.5553H42.3296V42.5553ZM33.5316 44.5553V45.2772H37.5316V44.5553H33.5316ZM35.5315 47.2772L43.1521 47.2775L43.1522 43.2775L35.5317 43.2772L35.5315 47.2772ZM43.1521 47.2775C44.2887 47.2775 45.2841 47.1825 46.2553 46.7996C47.2111 46.4228 47.9762 45.8303 48.7449 45.1727L46.1445 42.1333C45.4365 42.739 45.0915 42.9588 44.7882 43.0784C44.5003 43.1919 44.0879 43.2775 43.1521 43.2775V47.2775ZM49.4447 43.653V43.6527H45.4447V43.653H49.4447ZM48.7345 45.1812C48.6738 45.2325 48.5946 45.2569 48.5155 45.2486L48.9298 41.2702C47.927 41.1657 46.9252 41.4742 46.1548 42.1242L48.7345 45.1812ZM48.5038 45.2474C48.3808 45.2338 48.2681 45.1693 48.1939 45.0683L51.4171 42.6995C50.8276 41.8974 49.9293 41.3801 48.9415 41.2714L48.5038 45.2474ZM48.2055 45.0839L48.2704 45.1705L51.4705 42.7706L51.4055 42.6839L48.2055 45.0839ZM49.8704 45.9705H49.8707V41.9705H49.8704V45.9705ZM48.2651 45.163C48.2064 45.084 48.1771 44.9861 48.1835 44.8865L52.1753 45.1421C52.2296 44.2952 51.9812 43.4579 51.4763 42.7781L48.2651 45.163ZM48.1834 44.8878C48.1898 44.7877 48.2315 44.694 48.2998 44.6231L51.1813 47.3974C51.7688 46.7872 52.1217 45.9879 52.1754 45.1408L48.1834 44.8878ZM48.323 44.5993C47.6395 45.286 47.1534 45.6159 46.6996 45.8039C46.2451 45.9922 45.664 46.1041 44.6865 46.1041V50.1041C45.958 50.1041 47.115 49.9615 48.2308 49.4992C49.3475 49.0365 50.2638 48.3195 51.158 47.4212L48.323 44.5993ZM44.6865 46.1041H34.4661V50.1041H44.6865V46.1041ZM34.4671 46.1041C31.9707 46.1028 29.52 45.4342 27.3691 44.1677L25.3395 47.6145C28.1049 49.2429 31.2557 50.1024 34.465 50.1041L34.4671 46.1041ZM28.3543 45.8912L28.3546 39.3749L24.3546 39.3747L24.3543 45.891L28.3543 45.8912ZM19.3149 39.949H25.6326V35.949H19.3149V39.949ZM23.6326 37.949V49.4252H27.6326V37.949H23.6326ZM25.6326 47.4252H19.3149V51.4252H25.6326V47.4252ZM21.3149 49.4252V37.949H17.3149V49.4252H21.3149Z" fill="white" mask="url(#path-2-inside-1_1570_751)"/>
<mask id="path-4-inside-2_1570_751" fill="white">
<path d="M21.6643 27.1687H26.5164C26.7738 28.2843 27.3391 29.3049 28.1482 30.1145L36.3283 38.3094C36.3965 38.3771 36.4887 38.4146 36.5846 38.4141C36.6793 38.4136 36.7702 38.3761 36.8375 38.3094L40.9313 34.2012V36.5909C40.9313 36.6866 40.9693 36.7785 41.0368 36.8463C41.1046 36.914 41.1965 36.952 41.2922 36.952H44.5666C44.6623 36.952 44.7542 36.914 44.8219 36.8463C44.8894 36.7785 44.9277 36.6866 44.9277 36.5909V33.6811H47.8158H47.8156C47.9115 33.6811 48.0032 33.6431 48.0709 33.5756C48.1387 33.5079 48.1767 33.4159 48.1767 33.3203V30.071C48.1767 29.9753 48.1387 29.8837 48.0709 29.8159C48.0032 29.7482 47.9115 29.7102 47.8156 29.7102H45.4006C46.8242 28.1185 47.3182 25.9009 46.7046 23.8551C46.0909 21.8096 44.4578 20.2302 42.3929 19.685C40.328 19.1397 38.1283 19.7071 36.5846 21.183C35.3998 20.1206 33.8486 19.5598 32.2584 19.6192C30.6681 19.6784 29.163 20.3533 28.0606 21.501C26.9583 22.6488 26.3449 24.1802 26.35 25.7714C26.3507 25.997 26.3638 26.2224 26.3897 26.4465H21.6641L21.6643 27.1687ZM47.4694 30.4176V32.9447H44.5813V32.9449C44.3821 32.9449 44.2204 33.1066 44.2204 33.306V36.2158L41.6536 36.2156V33.3204C41.6536 33.2247 41.6156 33.1328 41.5479 33.0651C41.4801 32.9973 41.3882 32.9593 41.2925 32.9593H38.4044V30.4323H41.2925C41.3882 30.4323 41.4801 30.3943 41.5479 30.3265C41.6156 30.2588 41.6536 30.1671 41.6536 30.0712V27.1435H44.2058V30.0533C44.2066 30.0966 44.2152 30.1394 44.2313 30.1797V30.2157C44.2454 30.2427 44.2625 30.2679 44.2816 30.2915C44.2892 30.3009 44.2978 30.3094 44.3071 30.3167C44.3353 30.3424 44.3668 30.3643 44.4007 30.3817C44.4418 30.3958 44.4841 30.4041 44.5272 30.4071H47.4404L47.4694 30.4176ZM28.6608 21.9378C29.6767 20.9194 31.0561 20.347 32.4945 20.347C33.9332 20.347 35.3127 20.9194 36.3285 21.9378C36.4693 22.0778 36.6967 22.0778 36.8377 21.9378C38.1406 20.5662 40.0653 19.9741 41.9141 20.376C43.763 20.7779 45.2679 22.1155 45.8838 23.9045C46.4998 25.6936 46.1374 27.6742 44.9279 29.1292V26.7825C44.9279 26.6868 44.8897 26.5949 44.8222 26.5274C44.7544 26.4597 44.6625 26.4217 44.5668 26.4217H41.2924C41.093 26.4217 40.9315 26.5834 40.9315 26.7825V29.6923H38.0434C37.844 29.6923 37.6823 29.854 37.6823 30.0535V33.3024C37.6823 33.3981 37.7203 33.49 37.7881 33.5578C37.8558 33.6255 37.9477 33.6635 38.0434 33.6635H40.4478L36.5849 37.53L28.6426 29.5878V29.5875C27.968 28.9139 27.4845 28.0728 27.2418 27.1509H29.8302C29.9504 27.1509 30.0627 27.0915 30.1299 26.992L31.2455 25.3312L33.361 29.1181V29.1184C33.4247 29.2319 33.5448 29.3022 33.675 29.3024H33.7148C33.8594 29.2866 33.9802 29.1856 34.0215 29.0461L35.3464 24.6418L36.2887 26.9306C36.3458 27.0653 36.4783 27.1522 36.6246 27.1509H38.2851C38.4528 27.4886 38.8311 27.6666 39.1982 27.5805C39.5654 27.4947 39.825 27.167 39.825 26.7898C39.825 26.4126 39.5654 26.0849 39.1982 25.999C38.831 25.9129 38.4528 26.091 38.2851 26.4287H36.8845L35.6463 23.4287C35.5871 23.2837 35.4413 23.1933 35.2851 23.2049C35.1325 23.2122 35.0008 23.3149 34.9565 23.4612L33.5919 28.0388L31.6065 24.4829C31.5453 24.3738 31.4318 24.3041 31.3069 24.2988C31.1817 24.2938 31.0629 24.3539 30.9929 24.4577L29.6534 26.4468H27.1264C27.0962 26.2229 27.0804 25.9975 27.0794 25.7716C27.0741 24.334 27.6434 22.9538 28.6608 21.9376L28.6608 21.9378Z"/>
</mask>
<path d="M21.6643 27.1687H26.5164C26.7738 28.2843 27.3391 29.3049 28.1482 30.1145L36.3283 38.3094C36.3965 38.3771 36.4887 38.4146 36.5846 38.4141C36.6793 38.4136 36.7702 38.3761 36.8375 38.3094L40.9313 34.2012V36.5909C40.9313 36.6866 40.9693 36.7785 41.0368 36.8463C41.1046 36.914 41.1965 36.952 41.2922 36.952H44.5666C44.6623 36.952 44.7542 36.914 44.8219 36.8463C44.8894 36.7785 44.9277 36.6866 44.9277 36.5909V33.6811H47.8158H47.8156C47.9115 33.6811 48.0032 33.6431 48.0709 33.5756C48.1387 33.5079 48.1767 33.4159 48.1767 33.3203V30.071C48.1767 29.9753 48.1387 29.8837 48.0709 29.8159C48.0032 29.7482 47.9115 29.7102 47.8156 29.7102H45.4006C46.8242 28.1185 47.3182 25.9009 46.7046 23.8551C46.0909 21.8096 44.4578 20.2302 42.3929 19.685C40.328 19.1397 38.1283 19.7071 36.5846 21.183C35.3998 20.1206 33.8486 19.5598 32.2584 19.6192C30.6681 19.6784 29.163 20.3533 28.0606 21.501C26.9583 22.6488 26.3449 24.1802 26.35 25.7714C26.3507 25.997 26.3638 26.2224 26.3897 26.4465H21.6641L21.6643 27.1687ZM47.4694 30.4176V32.9447H44.5813V32.9449C44.3821 32.9449 44.2204 33.1066 44.2204 33.306V36.2158L41.6536 36.2156V33.3204C41.6536 33.2247 41.6156 33.1328 41.5479 33.0651C41.4801 32.9973 41.3882 32.9593 41.2925 32.9593H38.4044V30.4323H41.2925C41.3882 30.4323 41.4801 30.3943 41.5479 30.3265C41.6156 30.2588 41.6536 30.1671 41.6536 30.0712V27.1435H44.2058V30.0533C44.2066 30.0966 44.2152 30.1394 44.2313 30.1797V30.2157C44.2454 30.2427 44.2625 30.2679 44.2816 30.2915C44.2892 30.3009 44.2978 30.3094 44.3071 30.3167C44.3353 30.3424 44.3668 30.3643 44.4007 30.3817C44.4418 30.3958 44.4841 30.4041 44.5272 30.4071H47.4404L47.4694 30.4176ZM28.6608 21.9378C29.6767 20.9194 31.0561 20.347 32.4945 20.347C33.9332 20.347 35.3127 20.9194 36.3285 21.9378C36.4693 22.0778 36.6967 22.0778 36.8377 21.9378C38.1406 20.5662 40.0653 19.9741 41.9141 20.376C43.763 20.7779 45.2679 22.1155 45.8838 23.9045C46.4998 25.6936 46.1374 27.6742 44.9279 29.1292V26.7825C44.9279 26.6868 44.8897 26.5949 44.8222 26.5274C44.7544 26.4597 44.6625 26.4217 44.5668 26.4217H41.2924C41.093 26.4217 40.9315 26.5834 40.9315 26.7825V29.6923H38.0434C37.844 29.6923 37.6823 29.854 37.6823 30.0535V33.3024C37.6823 33.3981 37.7203 33.49 37.7881 33.5578C37.8558 33.6255 37.9477 33.6635 38.0434 33.6635H40.4478L36.5849 37.53L28.6426 29.5878V29.5875C27.968 28.9139 27.4845 28.0728 27.2418 27.1509H29.8302C29.9504 27.1509 30.0627 27.0915 30.1299 26.992L31.2455 25.3312L33.361 29.1181V29.1184C33.4247 29.2319 33.5448 29.3022 33.675 29.3024H33.7148C33.8594 29.2866 33.9802 29.1856 34.0215 29.0461L35.3464 24.6418L36.2887 26.9306C36.3458 27.0653 36.4783 27.1522 36.6246 27.1509H38.2851C38.4528 27.4886 38.8311 27.6666 39.1982 27.5805C39.5654 27.4947 39.825 27.167 39.825 26.7898C39.825 26.4126 39.5654 26.0849 39.1982 25.999C38.831 25.9129 38.4528 26.091 38.2851 26.4287H36.8845L35.6463 23.4287C35.5871 23.2837 35.4413 23.1933 35.2851 23.2049C35.1325 23.2122 35.0008 23.3149 34.9565 23.4612L33.5919 28.0388L31.6065 24.4829C31.5453 24.3738 31.4318 24.3041 31.3069 24.2988C31.1817 24.2938 31.0629 24.3539 30.9929 24.4577L29.6534 26.4468H27.1264C27.0962 26.2229 27.0804 25.9975 27.0794 25.7716C27.0741 24.334 27.6434 22.9538 28.6608 21.9376L28.6608 21.9378Z" fill="white" stroke="white" stroke-width="4" mask="url(#path-4-inside-2_1570_751)"/>
</svg>
