<svg width="70" height="70" viewBox="0 0 70 70" fill="none" xmlns="http://www.w3.org/2000/svg">
<circle cx="35" cy="35" r="35" fill="#121212"/>
<path d="M43.18 34.1188L34.8039 27.2213C33.3734 26.0426 31.5648 25.3938 29.7128 25.3938L19.4926 25.3936C19.1355 25.3936 18.8467 25.6831 18.8467 26.0398V45.3793C18.8467 45.736 19.1355 46.0253 19.4926 46.0253H20.4522C20.4529 48.876 22.7723 51.1946 25.6225 51.1946C28.4735 51.1946 30.7924 48.876 30.7937 46.0253H38.5508C38.5513 48.876 40.8706 51.1946 43.7209 51.1946C46.5719 51.1946 48.8913 48.876 48.892 46.0253H50.5081C50.8653 46.0253 51.1544 45.7362 51.1544 45.3793V42.3456C51.1544 37.886 47.5988 34.2436 43.1799 34.1187L43.18 34.1188ZM25.6231 49.9025C23.4846 49.9025 21.7447 48.1625 21.7447 46.0241C21.7447 43.8851 23.4846 42.1452 25.6231 42.1452C27.7615 42.1452 29.502 43.8851 29.502 46.0241C29.502 48.1625 27.7615 49.9025 25.6231 49.9025ZM43.7211 49.9025C41.583 49.9025 39.843 48.1625 39.843 46.0241C39.843 43.8851 41.583 42.1452 43.7211 42.1452C45.8596 42.1452 47.6001 43.8851 47.6001 46.0241C47.6001 48.1625 45.8601 49.9025 43.7211 49.9025ZM49.8624 44.7332H48.723C48.1472 42.5054 46.1264 40.853 43.7211 40.853C41.3169 40.853 39.2959 42.5058 38.7206 44.7332H30.6239C30.0481 42.5054 28.0274 40.853 25.6221 40.853C23.2178 40.853 21.1968 42.5058 20.6215 44.7332H20.1391V26.686H25.9547V33.7487C25.9547 34.1053 26.2435 34.3949 26.6006 34.3949C26.9578 34.3949 27.2469 34.1053 27.2469 33.7487V26.686H28.5391V33.6033C28.5391 33.81 28.6382 34.0049 28.806 34.1262L33.4661 37.5026C33.5765 37.5829 33.7089 37.6257 33.8455 37.6257H38.8775C39.2347 37.6257 39.5237 37.3367 39.5237 36.9798C39.5237 36.6231 39.2347 36.3335 38.8775 36.3335H34.0548L29.8313 33.2738V26.6917C31.3431 26.7188 32.8129 27.2564 33.9822 28.2195L42.5328 35.2611C42.6481 35.3566 42.7934 35.4087 42.9436 35.4087C46.7586 35.4087 49.8617 38.5211 49.8617 42.3466L49.8624 44.7332Z" fill="white"/>
<path d="M37.6892 42.1488H33.0198C32.6915 39.2454 30.1758 36.9795 27.1309 36.9795H24.8686C24.5114 36.9795 24.2227 37.2691 24.2227 37.6257C24.2227 37.9824 24.5114 38.2717 24.8686 38.2717H27.1309C29.6851 38.2717 31.7637 40.3007 31.7637 42.7951C31.7637 43.1517 32.0528 43.441 32.4099 43.441H37.6889C38.0461 43.441 38.3352 43.152 38.3352 42.7951C38.3354 42.4384 38.0464 42.1488 37.6892 42.1488Z" fill="white"/>
<path d="M25.6224 43.6934C24.3377 43.6934 23.292 44.7388 23.292 46.0241C23.292 47.3087 24.3375 48.3545 25.6224 48.3545C26.9069 48.3545 27.9528 47.309 27.9528 46.0241C27.9528 44.7388 26.9069 43.6934 25.6224 43.6934ZM25.6224 47.0623C25.05 47.0623 24.5842 46.5965 24.5842 46.0241C24.5842 45.4514 25.05 44.9855 25.6224 44.9855C26.1948 44.9855 26.6602 45.4514 26.6602 46.0241C26.6602 46.5965 26.1948 47.0623 25.6224 47.0623Z" fill="white"/>
<path d="M43.7142 43.6934C42.4298 43.6934 41.3838 44.7388 41.3838 46.0241C41.3838 47.3087 42.4298 48.3545 43.7142 48.3545C44.9989 48.3545 46.0446 47.309 46.0446 46.0241C46.0446 44.7388 44.9989 43.6934 43.7142 43.6934ZM43.7142 47.0623C43.1418 47.0623 42.6765 46.5965 42.6765 46.0241C42.6765 45.4514 43.1421 44.9855 43.7142 44.9855C44.2866 44.9855 44.7525 45.4514 44.7525 46.0241C44.7525 46.5965 44.2866 47.0623 43.7142 47.0623Z" fill="white"/>
<path d="M40.3276 26.3097C41.4268 26.3097 42.3213 27.2042 42.3213 28.3034C42.3213 28.6601 42.61 28.9494 42.9672 28.9494C43.3244 28.9494 43.6135 28.6603 43.6135 28.3034C43.6135 26.4917 42.1393 25.0176 40.3276 25.0176C39.9704 25.0176 39.6816 25.3071 39.6816 25.6638C39.6816 26.0207 39.9704 26.3097 40.3276 26.3097Z" fill="white"/>
<path d="M40.3281 22.9745C43.2664 22.9745 45.6564 25.3646 45.6564 28.3023C45.6564 28.659 45.9454 28.9483 46.3026 28.9483C46.6595 28.9483 46.9483 28.659 46.9483 28.3023C46.9483 24.6521 43.9783 21.6816 40.3276 21.6816C39.9704 21.6816 39.6816 21.9712 39.6816 22.3279C39.6819 22.6848 39.9707 22.9744 40.3279 22.9744L40.3281 22.9745Z" fill="white"/>
<path d="M40.3277 19.5999C45.1264 19.5999 49.0309 23.5039 49.0309 28.3024C49.0309 28.6591 49.3197 28.9484 49.6769 28.9484C50.034 28.9484 50.3231 28.6593 50.3231 28.3024C50.3228 22.7914 45.8387 18.3076 40.3276 18.3076C39.9704 18.3076 39.6816 18.5967 39.6816 18.9538C39.6816 19.3108 39.9704 19.5998 40.3276 19.5998L40.3277 19.5999Z" fill="white"/>
</svg>
