<svg width="118" height="22" viewBox="0 0 118 22" fill="none" xmlns="http://www.w3.org/2000/svg">
<mask id="mask0_661_136" style="mask-type:luminance" maskUnits="userSpaceOnUse" x="0" y="0" width="118" height="22">
<path d="M118 0H0V22H118V0Z" fill="white"/>
</mask>
<g mask="url(#mask0_661_136)">
<path d="M0 0.0078125H22.125V21.996H0V0.0078125ZM23.9688 0.0078125H46.0938V21.996H23.9688V0.0078125ZM47.9375 0.0078125H70.0625V21.996H47.9375V0.0078125ZM71.9062 0.0078125H94.0312V21.996H71.9062V0.0078125ZM95.875 0.0078125H118V21.996H95.875V0.0078125Z" fill="#027EBC"/>
<path d="M11.0641 14.8274L14.429 13.9799L15.8348 18.2859L11.0641 14.8274ZM18.8079 9.26165H12.8848L11.0641 3.71875L9.24336 9.26165H3.32031L8.11406 12.6973L6.29336 18.2402L11.0872 14.8046L14.0372 12.6973L18.8079 9.26165ZM35.0329 14.8274L38.3977 13.9799L39.8036 18.2859L35.0329 14.8274ZM42.7766 9.26165H36.8536L35.0329 3.71875L33.2122 9.26165H27.2891L32.0829 12.6973L30.2622 18.2402L35.0559 14.8046L38.0059 12.6973L42.7766 9.26165ZM59.0016 14.8274L62.3665 13.9799L63.7723 18.2859L59.0016 14.8274ZM66.7454 9.26165H60.8223L59.0016 3.71875L57.1809 9.26165H51.2579L56.0516 12.6973L54.2309 18.2402L59.0247 14.8046L61.9747 12.6973L66.7454 9.26165ZM82.9704 14.8274L86.3352 13.9799L87.7411 18.2859L82.9704 14.8274ZM90.7141 9.26165H84.7911L82.9704 3.71875L81.1497 9.26165H75.2266L80.0204 12.6973L78.1997 18.2402L82.9934 14.8046L85.9434 12.6973L90.7141 9.26165ZM106.939 14.8274L110.304 13.9799L111.71 18.2859L106.939 14.8274ZM114.683 9.26165H108.76L106.939 3.71875L105.118 9.26165H99.1954L103.989 12.6973L102.168 18.2402L106.962 14.8046L109.912 12.6973L114.683 9.26165Z" fill="white"/>
</g>
</svg>
