<svg width="71" height="71" viewBox="0 0 71 71" fill="none" xmlns="http://www.w3.org/2000/svg">
<circle cx="35.334" cy="35.334" r="35" fill="#121212"/>
<path d="M48.1204 19.7215C48.1159 19.7215 48.1124 19.719 48.1081 19.719L27.4127 19.7188C25.975 19.7188 24.8054 20.8883 24.8054 22.3252V45.8046H19.7666C19.4433 45.8046 19.1807 46.067 19.1807 46.3905V47.6931C19.1807 49.5371 20.6586 51.0346 22.4914 51.0824C22.5209 51.0869 22.5476 51.0999 22.5782 51.0999H43.2544C44.6863 51.0999 45.8521 49.9269 45.8521 48.4841V25.0054H50.9017C51.2249 25.0054 51.4881 24.743 51.4881 24.4195L51.4884 23.1144C51.4884 21.2679 49.9814 19.7482 48.1203 19.7209L48.1204 19.7215ZM20.3521 47.6935V46.9768H24.8053V47.6935C24.8053 48.9208 23.8061 49.92 22.5788 49.92C21.3514 49.9202 20.3521 48.921 20.3521 47.6935ZM44.6787 48.4847C44.6787 49.2945 44.0535 49.9287 43.254 49.9287H25.1184C25.6462 49.3295 25.9772 48.553 25.9772 47.6935V22.3255C25.9772 21.5344 26.6209 20.8905 27.4126 20.8905H45.5348C45.0087 21.4879 44.6788 22.2605 44.6788 23.115L44.6787 48.4847ZM50.315 23.8346H45.8518V23.1152C45.8518 21.8891 46.856 20.8922 48.092 20.8922V20.8907H48.1035V20.8922C49.3238 20.9072 50.315 21.9044 50.315 23.1152L50.315 23.8346Z" fill="white"/>
<path d="M28.6367 39.997H42.0242C42.3474 39.997 42.6106 39.7345 42.6106 39.4111C42.6106 39.0879 42.3474 38.8252 42.0242 38.8252L28.6367 38.8254C28.3135 38.8254 28.0508 39.0879 28.0508 39.4113C28.0508 39.7346 28.3132 39.997 28.6367 39.997Z" fill="white"/>
<path d="M42.0316 42.7949H28.6435C28.3203 42.7949 28.0576 43.0574 28.0576 43.3808C28.0576 43.704 28.32 43.9667 28.6435 43.9667H42.0316C42.3549 43.9667 42.618 43.7043 42.618 43.3808C42.618 43.0576 42.3549 42.7949 42.0316 42.7949Z" fill="white"/>
<path d="M42.0242 46.7666H28.6367C28.3135 46.7666 28.0508 47.029 28.0508 47.3525C28.0508 47.6757 28.3132 47.9384 28.6367 47.9384L42.0242 47.9381C42.3474 47.9381 42.6106 47.6757 42.6106 47.3522C42.6106 47.029 42.3474 46.7666 42.0242 46.7666Z" fill="white"/>
<path d="M35.1808 29.5975C34.8739 29.5975 34.6004 29.5002 34.3946 29.3899L34.251 29.9891C34.4303 30.0891 34.7391 30.1789 35.057 30.1914V30.7088H35.5596V30.1497C36.111 30.0436 36.4247 29.6641 36.4247 29.189C36.4247 28.7377 36.2015 28.4393 35.6212 28.2019C35.1954 28.019 35.0433 27.9079 35.0433 27.7315C35.0433 27.5734 35.1631 27.4221 35.4783 27.4221C35.8108 27.4221 36.0247 27.5282 36.1527 27.5897L36.2996 27.0086C36.1362 26.929 35.9116 26.8555 35.6011 26.8452V26.3691H35.0986V26.8872C34.5772 27.0043 34.2753 27.3626 34.2753 27.8128C34.2753 28.2984 34.613 28.5609 35.1376 28.7735C35.4974 28.9188 35.6582 29.0522 35.6582 29.2598C35.6587 29.4677 35.4716 29.5975 35.1809 29.5975L35.1808 29.5975Z" fill="white"/>
<path d="M28.8343 31.7032C29.0009 31.7032 29.1668 31.6324 29.2829 31.4943L35.2739 24.3625L41.395 31.2759C41.6096 31.5199 41.9813 31.5399 42.2233 31.326C42.4649 31.1113 42.488 30.7416 42.2733 30.4992L35.7012 23.0773C35.5897 22.9514 35.4296 22.8799 35.2619 22.8799H35.2547C35.0846 22.8821 34.9227 22.9584 34.8127 23.0888L28.3853 30.7406C28.1772 30.988 28.2095 31.3578 28.4569 31.5662C28.5672 31.6582 28.701 31.7033 28.8341 31.7033L28.8343 31.7032Z" fill="white"/>
<path d="M37.0677 37.1714H39.8643C40.1875 37.1714 40.4507 36.9089 40.4507 36.5855V31.2617C40.4507 30.9385 40.1875 30.6758 39.8643 30.6758C39.5411 30.6758 39.2779 30.9382 39.2779 31.2617V35.9996L37.6543 35.9998V32.1037C37.6543 31.7805 37.3911 31.5178 37.0679 31.5178H33.4573C33.134 31.5178 32.8709 31.7802 32.8709 32.1037V35.9998H31.245V31.2619C31.245 30.9387 30.9826 30.676 30.6591 30.676C30.3359 30.676 30.0732 30.9385 30.0732 31.2619V36.5857C30.0732 36.9089 30.3357 37.1716 30.6591 37.1716H33.4572C33.7804 37.1716 34.0436 36.9092 34.0436 36.5857V32.6896H36.4812V36.5857C36.4812 36.9089 36.7444 37.1714 37.0676 37.1714L37.0677 37.1714Z" fill="white"/>
</svg>
