<svg width="71" height="71" viewBox="0 0 71 71" fill="none" xmlns="http://www.w3.org/2000/svg">
<circle cx="35.334" cy="35.334" r="35" fill="#121212"/>
<path d="M25.728 43.3932V44.5988C25.728 44.8871 25.4951 45.1198 25.207 45.1198C24.9186 45.1198 24.686 44.8869 24.686 44.5988V43.3932C24.686 43.1048 24.9189 42.8722 25.207 42.8722C25.4953 42.8722 25.728 43.1051 25.728 43.3932ZM22.775 42.8722C22.4866 42.8722 22.254 43.1051 22.254 43.3932V44.5988C22.254 44.8871 22.4869 45.1198 22.775 45.1198C23.0633 45.1198 23.296 44.8869 23.296 44.5988V43.3932C23.296 43.1048 23.0631 42.8722 22.775 42.8722ZM25.2067 39.0127C24.9183 39.0127 24.6857 39.2456 24.6857 39.5337V40.7393C24.6857 41.0276 24.9186 41.2603 25.2067 41.2603C25.4951 41.2603 25.7277 41.0274 25.7277 40.7393V39.5337C25.7277 39.2453 25.4948 39.0127 25.2067 39.0127ZM22.775 39.0127C22.4866 39.0127 22.254 39.2456 22.254 39.5337V40.7393C22.254 41.0276 22.4869 41.2603 22.775 41.2603C23.0633 41.2603 23.296 41.0274 23.296 40.7393V39.5337C23.296 39.2453 23.0631 39.0127 22.775 39.0127ZM25.2067 35.1532C24.9183 35.1532 24.6857 35.386 24.6857 35.6742V36.8797C24.6857 37.1681 24.9186 37.4007 25.2067 37.4007C25.4951 37.4007 25.7277 37.1679 25.7277 36.8797V35.6742C25.7277 35.3858 25.4948 35.1532 25.2067 35.1532ZM22.775 35.1532C22.4866 35.1532 22.254 35.386 22.254 35.6742V36.8797C22.254 37.1681 22.4869 37.4007 22.775 37.4007C23.0633 37.4007 23.296 37.1679 23.296 36.8797V35.6742C23.296 35.3858 23.0631 35.1532 22.775 35.1532ZM25.2067 31.2936C24.9183 31.2936 24.6857 31.5265 24.6857 31.8146V33.0202C24.6857 33.3086 24.9186 33.5412 25.2067 33.5412C25.4951 33.5412 25.7277 33.3084 25.7277 33.0202V31.8146C25.7277 31.5263 25.4948 31.2936 25.2067 31.2936ZM22.775 31.2936C22.4866 31.2936 22.254 31.5265 22.254 31.8146V33.0202C22.254 33.3086 22.4869 33.5412 22.775 33.5412C23.0633 33.5412 23.296 33.3084 23.296 33.0202V31.8146C23.296 31.5263 23.0631 31.2936 22.775 31.2936ZM47.9786 45.1238C48.267 45.1238 48.4996 44.8909 48.4996 44.6028V43.3972C48.4996 43.1088 48.2667 42.8762 47.9786 42.8762C47.6903 42.8762 47.4576 43.1091 47.4576 43.3972V44.6028C47.4576 44.8911 47.6905 45.1238 47.9786 45.1238ZM45.5469 45.1238C45.8353 45.1238 46.0679 44.8909 46.0679 44.6028V43.3972C46.0679 43.1088 45.835 42.8762 45.5469 42.8762C45.2585 42.8762 45.0259 43.1091 45.0259 43.3972V44.6028C45.0259 44.8911 45.2588 45.1238 45.5469 45.1238ZM47.9786 41.2642C48.267 41.2642 48.4996 41.0314 48.4996 40.7432V39.5377C48.4996 39.2493 48.2667 39.0167 47.9786 39.0167C47.6903 39.0167 47.4576 39.2495 47.4576 39.5377V40.7432C47.4576 41.0316 47.6905 41.2642 47.9786 41.2642ZM45.5469 41.2642C45.8353 41.2642 46.0679 41.0314 46.0679 40.7432V39.5377C46.0679 39.2493 45.835 39.0167 45.5469 39.0167C45.2585 39.0167 45.0259 39.2495 45.0259 39.5377V40.7432C45.0259 41.0316 45.2588 41.2642 45.5469 41.2642ZM47.9786 37.4047C48.267 37.4047 48.4996 37.1719 48.4996 36.8837V35.6781C48.4996 35.3898 48.2667 35.1571 47.9786 35.1571C47.6903 35.1571 47.4576 35.39 47.4576 35.6781V36.8837C47.4576 37.1721 47.6905 37.4047 47.9786 37.4047ZM45.5469 37.4047C45.8353 37.4047 46.0679 37.1719 46.0679 36.8837V35.6781C46.0679 35.3898 45.835 35.1571 45.5469 35.1571C45.2585 35.1571 45.0259 35.39 45.0259 35.6781V36.8837C45.0259 37.1721 45.2588 37.4047 45.5469 37.4047ZM47.9786 33.5452C48.267 33.5452 48.4996 33.3123 48.4996 33.0242V31.8186C48.4996 31.5303 48.2667 31.2976 47.9786 31.2976C47.6903 31.2976 47.4576 31.5305 47.4576 31.8186V33.0242C47.4576 33.3126 47.6905 33.5452 47.9786 33.5452ZM45.5469 33.5452C45.8353 33.5452 46.0679 33.3123 46.0679 33.0242V31.8186C46.0679 31.5303 45.835 31.2976 45.5469 31.2976C45.2585 31.2976 45.0259 31.5305 45.0259 31.8186V33.0242C45.0259 33.3126 45.2588 33.5452 45.5469 33.5452ZM37.7168 26.1419L37.894 26.2704L37.8244 26.4822V26.496C37.7619 26.7078 37.8382 26.9336 38.0154 27.0657C38.1995 27.1977 38.4462 27.1977 38.6268 27.0657L38.8039 26.9373L38.981 27.0657C39.0714 27.1316 39.179 27.1665 39.2869 27.1665C39.3944 27.1665 39.5023 27.1318 39.5927 27.0657C39.7698 26.9373 39.8464 26.7078 39.7836 26.496V26.4822L39.7141 26.2704L39.8912 26.1419C39.9537 26.0969 39.9954 26.0377 40.0337 25.9752C40.1033 25.8502 40.1275 25.7007 40.0824 25.5584C40.0686 25.5201 40.0478 25.4855 40.0303 25.4542C39.9365 25.3013 39.7732 25.2005 39.589 25.2005H39.3666L39.297 24.9887C39.2275 24.7733 39.0261 24.6274 38.8003 24.6274C38.5744 24.6274 38.3731 24.7733 38.3035 24.9887L38.234 25.2005H38.0115C37.8273 25.2005 37.664 25.3013 37.5702 25.4542C37.5494 25.4889 37.5286 25.5201 37.5181 25.5584C37.4731 25.7009 37.4939 25.8502 37.5668 25.9752C37.6015 26.0377 37.6468 26.0969 37.7093 26.1419H37.7168ZM30.7689 26.1419L30.946 26.2704L30.8765 26.4822V26.496C30.814 26.7078 30.8903 26.9336 31.0674 27.0657C31.2516 27.1977 31.4983 27.1977 31.6788 27.0657L31.856 26.9373L32.0331 27.0657C32.1235 27.1316 32.2311 27.1665 32.3389 27.1665C32.4465 27.1665 32.5543 27.1318 32.6447 27.0657C32.8219 26.9373 32.8984 26.7078 32.8357 26.496V26.4822L32.7661 26.2704L32.9433 26.1419C33.0058 26.0969 33.0475 26.0377 33.0858 25.9752C33.1553 25.8502 33.1795 25.7007 33.1345 25.5584C33.1207 25.5201 33.0998 25.4855 33.0824 25.4542C32.9886 25.3013 32.8253 25.2005 32.6411 25.2005H32.4186L32.3491 24.9887C32.2796 24.7733 32.0782 24.6274 31.8523 24.6274C31.6265 24.6274 31.4251 24.7733 31.3556 24.9887L31.286 25.2005H31.0636C30.8794 25.2005 30.7161 25.3013 30.6223 25.4542C30.6015 25.4889 30.5806 25.5201 30.5702 25.5584C30.5251 25.7009 30.546 25.8502 30.6189 25.9752C30.6536 26.0377 30.6989 26.0969 30.7614 26.1419H30.7689ZM34.2429 26.1419L34.42 26.2704L34.3505 26.4822V26.496C34.2879 26.7078 34.3643 26.9336 34.5414 27.0657C34.7256 27.1977 34.9723 27.1977 35.1528 27.0657L35.3299 26.9373L35.5071 27.0657C35.5975 27.1316 35.7051 27.1665 35.8129 27.1665C35.9205 27.1665 36.0283 27.1318 36.1187 27.0657C36.2958 26.9373 36.3724 26.7078 36.3097 26.496V26.4822L36.2401 26.2704L36.4172 26.1419C36.4798 26.0969 36.5214 26.0377 36.5597 25.9752C36.6293 25.8502 36.6535 25.7007 36.6084 25.5584C36.5946 25.5201 36.5738 25.4855 36.5563 25.4542C36.4626 25.3013 36.2992 25.2005 36.1151 25.2005H35.8926L35.8231 24.9887C35.7535 24.7733 35.5521 24.6274 35.3263 24.6274C35.1005 24.6274 34.8991 24.7733 34.8295 24.9887L34.76 25.2005H34.5375C34.3534 25.2005 34.19 25.3013 34.0963 25.4542C34.0754 25.4889 34.0546 25.5201 34.0442 25.5584C33.9991 25.7009 34.0199 25.8502 34.0929 25.9752C34.1275 26.0377 34.1728 26.0969 34.2354 26.1419H34.2429ZM51.4874 47.6737C51.4874 47.9621 51.2545 48.1947 50.9664 48.1947L19.7007 48.194C19.4123 48.194 19.1797 47.9611 19.1797 47.673C19.1797 47.3846 19.4126 47.152 19.7007 47.152H19.8744V29.6153C19.8744 29.3269 20.1073 29.0943 20.3954 29.0943H27.0865V25.9783C27.0865 25.6899 27.3194 25.4573 27.6075 25.4573H28.761V23.4702C28.761 23.1819 28.9939 22.9492 29.282 22.9492H41.382C41.6703 22.9492 41.903 23.1821 41.903 23.4702V25.4573H43.0564C43.3448 25.4573 43.5774 25.6901 43.5774 25.9783V29.0943H50.2685C50.5569 29.0943 50.7895 29.3272 50.7895 29.6153V47.152H50.9633C51.2516 47.152 51.4843 47.3849 51.4843 47.673L51.4874 47.6737ZM49.7504 30.137H43.5806V34.8025H43.7403C44.0286 34.8025 44.2613 35.0354 44.2613 35.3235V38.3979C44.2613 38.9329 43.9903 39.4052 43.5803 39.6868V47.1558H49.7501V30.1402L49.7504 30.137ZM34.8123 47.1526V42.0701H32.4361V47.1526H34.8123ZM38.2308 47.1526V42.0701H35.8545V47.1526H38.2308ZM39.273 41.5491V47.1526H42.5386V39.9441C42.1948 39.9129 41.8856 39.774 41.6423 39.555C41.3643 39.8017 41.0067 39.958 40.607 39.958H40.5862C40.1866 39.958 39.8219 39.8017 39.544 39.5516C39.266 39.8016 38.9047 39.958 38.5054 39.958H38.4845C38.0815 39.958 37.7202 39.8017 37.4423 39.5516C37.1643 39.8016 36.803 39.958 36.4 39.958H36.3792C35.9762 39.958 35.6149 39.8017 35.3369 39.5516C35.059 39.8016 34.6976 39.958 34.2947 39.958H34.2738C33.8742 39.958 33.5129 39.8017 33.2386 39.555C32.9606 39.8017 32.5993 39.958 32.2033 39.958H32.1825C31.7829 39.958 31.4182 39.8017 31.1439 39.5516C30.866 39.8016 30.5046 39.958 30.1053 39.958H30.0845C29.6815 39.958 29.3202 39.8017 29.0422 39.5516C28.7989 39.7704 28.4863 39.9129 28.1391 39.9441V47.1526H31.4046V41.5491C31.4046 41.2607 31.6375 41.0281 31.9256 41.0281H38.7588C39.0472 41.0281 39.2798 41.261 39.2798 41.5491H39.273ZM20.9199 47.1526H27.0898V39.6836C26.6798 39.4022 26.4088 38.9297 26.4088 38.3947V35.3203C26.4088 35.0319 26.6417 34.7993 26.9298 34.7993H27.0895V30.1338L20.9163 30.1326V47.1482L20.9199 47.1526ZM28.1321 29.6159V34.8026H42.5386V26.4998H41.9064V28.4869C41.9064 28.7752 41.6735 29.0079 41.3854 29.0079H29.2854C28.9971 29.0079 28.7644 28.775 28.7644 28.4869V26.4998H28.1322V29.6158L28.1321 29.6159ZM29.8066 25.9786V27.9656H40.8644V23.9879H29.8066V25.9786ZM43.2192 38.1344H42.1561V38.3985C42.1561 38.416 42.1595 38.4332 42.1631 38.4506C42.184 38.666 42.3369 38.8432 42.5383 38.8987C42.5833 38.9125 42.6287 38.9195 42.6771 38.9195H42.698C42.8368 38.9195 42.9655 38.864 43.0593 38.7736C43.1564 38.6799 43.219 38.5478 43.219 38.3985V38.1344L43.2192 38.1344ZM40.0649 38.4157C40.0753 38.6937 40.3011 38.9195 40.5858 38.9195H40.6067C40.8742 38.9195 41.0964 38.7145 41.1209 38.4506C41.1209 38.4332 41.1139 38.416 41.1139 38.3985V38.1344H40.0612V38.3985V38.416L40.0649 38.4157ZM36.9209 38.1344H35.8578V38.3985C35.8578 38.6869 36.0907 38.9195 36.3788 38.9195H36.3997C36.688 38.9195 36.9207 38.6866 36.9207 38.3985V38.1344H36.9209ZM34.8156 38.1344H33.7525V38.3985C33.7525 38.3985 33.7525 38.4332 33.7559 38.4472C33.7801 38.7114 34.0026 38.9161 34.2701 38.9161H34.2909C34.5793 38.9161 34.8119 38.6833 34.8119 38.3951V38.131L34.8156 38.1344ZM31.6612 38.4123C31.6682 38.6937 31.8975 38.9195 32.1788 38.9195H32.1997C32.4706 38.9195 32.6894 38.7111 32.7139 38.4506C32.7139 38.4332 32.7105 38.416 32.7105 38.4019V38.1378H31.6578V38.4019V38.4157L31.6612 38.4123ZM28.5173 38.1344H27.4542V38.3985C27.4542 38.5444 27.5167 38.6765 27.6139 38.7736C27.7076 38.864 27.8363 38.9195 27.9752 38.9195H27.996C28.0447 38.9195 28.0898 38.9091 28.1349 38.8987C28.3537 38.8362 28.517 38.6382 28.517 38.3985V38.1344L28.5173 38.1344ZM31.6612 37.0921H32.7139V35.8449H31.6612V37.0921ZM33.7561 37.0921H34.8192V35.8449H33.7561V37.0921ZM37.9665 37.0921H39.026V35.8449H37.9665V37.0921ZM43.2262 35.8449H42.1631V37.0921H43.2262V35.8449ZM41.1208 35.8449H40.0681V37.0921H41.1208V35.8449ZM36.9243 35.8449H35.8612V37.0921H36.9243V35.8449ZM30.6221 35.8449H29.5627V37.0921H30.6221V35.8449ZM28.5204 35.8449H27.4573V37.0921H28.5204V35.8449ZM29.5627 38.3983C29.5627 38.6866 29.7956 38.9193 30.0837 38.9193H30.1045C30.3859 38.9193 30.6151 38.6934 30.6221 38.4121V38.3983V38.1341H29.5627L29.5627 38.3983ZM37.966 38.3983C37.966 38.6866 38.1988 38.9193 38.487 38.9193H38.5078C38.7891 38.9193 39.0184 38.6934 39.0254 38.4155V38.398V38.1339H37.966L37.966 38.3983ZM31.8657 33.4306C32.154 33.4306 32.3867 33.1978 32.3867 32.9096V31.2456C32.3867 30.9572 32.1538 30.7246 31.8657 30.7246C31.5773 30.7246 31.3447 30.9575 31.3447 31.2456V32.9096C31.3447 33.198 31.5775 33.4306 31.8657 33.4306ZM38.8136 33.4306C39.102 33.4306 39.3346 33.1978 39.3346 32.9096V31.2456C39.3346 30.9572 39.1017 30.7246 38.8136 30.7246C38.5252 30.7246 38.2926 30.9575 38.2926 31.2456V32.9096C38.2926 33.198 38.5255 33.4306 38.8136 33.4306ZM35.3396 33.4306C35.628 33.4306 35.8606 33.1978 35.8606 32.9096V31.2456C35.8606 30.9572 35.6278 30.7246 35.3396 30.7246C35.0513 30.7246 34.8186 30.9575 34.8186 31.2456V32.9096C34.8186 33.198 35.0515 33.4306 35.3396 33.4306Z" fill="white"/>
</svg>
