<svg width="70" height="70" viewBox="0 0 70 70" fill="none" xmlns="http://www.w3.org/2000/svg">
<circle cx="35" cy="35" r="35" fill="#121212"/>
<path d="M47.7169 30.6748C47.4343 30.6748 47.2051 30.9041 47.2051 31.1867V31.8999C47.2051 32.1825 47.4343 32.4118 47.7169 32.4118C47.9995 32.4118 48.2288 32.1825 48.2288 31.8999V31.1867C48.229 30.9043 47.9998 30.6748 47.7169 30.6748Z" fill="white"/>
<path d="M45.1615 25.8271H25.1329C24.4804 25.8271 23.9492 26.3583 23.9492 27.0104V39.6448C23.9492 40.2974 24.4804 40.8285 25.1329 40.8285H45.1615C45.8138 40.8285 46.3448 40.2974 46.3448 39.6448V27.0104C46.3448 26.3581 45.8136 25.8271 45.1615 25.8271ZM45.3208 39.6446C45.3208 39.7327 45.2494 39.8043 45.1615 39.8043H25.1329C25.0449 39.8043 24.9732 39.7327 24.9732 39.6446V27.0101C24.9732 26.9221 25.0449 26.8509 25.1329 26.8509H45.1615C45.2496 26.8509 45.3208 26.9223 45.3208 27.0101V39.6446Z" fill="white"/>
<path d="M49.9216 41.8654H47.9772C48.137 41.579 48.2289 41.2499 48.2289 40.8995L48.2286 33.4487C48.2286 33.1661 47.9994 32.9368 47.7168 32.9368C47.4342 32.9368 47.2049 33.1661 47.2049 33.4487V40.8995C47.2049 41.4323 46.7714 41.8654 46.239 41.8654H24.0541C23.5213 41.8654 23.0882 41.4319 23.0882 40.8995L23.088 25.7559C23.088 25.2216 23.5215 24.7867 24.0539 24.7867H46.2388C46.7716 24.7867 47.2047 25.2214 47.2047 25.7559V29.3941C47.2047 29.6767 47.4339 29.906 47.7165 29.906C47.9991 29.906 48.2284 29.6767 48.2284 29.3941L48.2286 25.7559C48.2286 24.6569 47.3361 23.7627 46.2388 23.7627H24.0539C22.9566 23.7627 22.0641 24.6569 22.0641 25.7559V40.8995C22.0641 41.2499 22.1562 41.5789 22.3157 41.8654H20.3712C20.0033 41.8654 19.6564 42.0097 19.395 42.2713C19.1353 42.5311 18.9922 42.8775 18.9922 43.2475C18.9922 44.6121 20.1021 45.722 21.4668 45.722H28.6891C28.9717 45.722 29.2009 45.4928 29.2009 45.2102C29.2009 44.9276 28.9717 44.6983 28.6891 44.6983L21.4668 44.6981C20.6668 44.6981 20.0162 44.0477 20.0162 43.2475C20.0162 43.1513 20.0524 43.0615 20.119 42.9954C20.1873 42.927 20.2771 42.8892 20.3711 42.8892H49.9216C50.117 42.8892 50.2765 43.0499 50.2765 43.2475C50.2765 43.6348 50.1263 43.9983 49.8532 44.271C49.5778 44.5464 49.213 44.6978 48.826 44.6978L30.61 44.6981C30.3274 44.6981 30.0981 44.9273 30.0981 45.2099C30.0981 45.4925 30.3274 45.7218 30.61 45.7218H48.8253C49.4858 45.7218 50.1076 45.4637 50.5766 44.9952C51.0428 44.529 51.2999 43.9079 51.2999 43.2474C51.2999 42.4856 50.6816 41.8654 49.9212 41.8654L49.9216 41.8654Z" fill="white"/>
<path d="M23.6548 43.2822H22.5753C22.2927 43.2822 22.0635 43.5115 22.0635 43.7941C22.0635 44.0767 22.2927 44.306 22.5753 44.306H23.6548C23.9374 44.306 24.1666 44.0767 24.1666 43.7941C24.1666 43.5115 23.9374 43.2822 23.6548 43.2822Z" fill="white"/>
<path d="M44.8149 44.306C45.0975 44.306 45.3268 44.0767 45.3268 43.7941C45.3268 43.5115 45.0975 43.2822 44.8149 43.2822H43.7355C43.4529 43.2822 43.2236 43.5115 43.2236 43.7941C43.2236 44.0767 43.4529 44.306 43.7355 44.306H44.8149Z" fill="white"/>
<path d="M48.2573 44.306C48.5399 44.306 48.7692 44.0767 48.7692 43.7941C48.7692 43.5115 48.5399 43.2822 48.2573 43.2822H47.1779C46.8953 43.2822 46.666 43.5115 46.666 43.7941C46.666 44.0767 46.8953 44.306 47.1779 44.306H48.2573Z" fill="white"/>
<path d="M27.5243 37.6724C27.3724 37.6724 27.2219 37.6052 27.1207 37.4764C26.9462 37.2538 26.9855 36.9317 27.2079 36.7577L32.0999 32.9232C32.2077 32.8385 32.3437 32.7994 32.4815 32.8185C32.6175 32.8359 32.741 32.9075 32.8239 33.0168L34.0559 34.6407L36.8264 31.7824C36.9248 31.6808 37.0726 31.6243 37.2019 31.6267C37.3433 31.6291 37.4776 31.6896 37.5726 31.7936L38.9058 33.2559L41.5885 30.3899H40.3795C40.0969 30.3899 39.8676 30.1607 39.8676 29.8781C39.8676 29.5955 40.0969 29.3662 40.3795 29.3662H42.7686H42.7695H42.7698C42.8979 29.3664 43.0145 29.4141 43.1038 29.4914C43.1283 29.5129 43.1517 29.5372 43.1717 29.5631C43.1717 29.5633 43.1717 29.5631 43.1719 29.5633C43.2333 29.6421 43.2721 29.7398 43.2788 29.8457C43.2795 29.8576 43.2797 29.8693 43.2797 29.8812V32.1386C43.2797 32.4212 43.0505 32.6505 42.7679 32.6505C42.4853 32.6505 42.256 32.4212 42.256 32.1386V31.1742L39.2736 34.3606C39.1762 34.4646 39.0243 34.5253 38.8967 34.5227C38.7536 34.5218 38.6182 34.461 38.5215 34.3558L37.1819 32.8862L34.3754 35.7819C34.2714 35.8888 34.1267 35.9479 33.9769 35.9364C33.8279 35.9276 33.6903 35.8538 33.6 35.7348L32.3218 34.0497L27.84 37.5637C27.7462 37.6368 27.6345 37.6725 27.5243 37.6725L27.5243 37.6724Z" fill="white"/>
<path d="M33.018 32.0619C33.018 32.3402 32.7921 32.5659 32.5138 32.5659C32.2355 32.5659 32.0098 32.3402 32.0098 32.0619C32.0098 31.7833 32.2355 31.5576 32.5138 31.5576C32.7921 31.5576 33.018 31.7833 33.018 32.0619Z" fill="white"/>
<path d="M34.5112 36.6566C34.5112 36.9349 34.2852 37.1606 34.0069 37.1606C33.7286 37.1606 33.5029 36.9349 33.5029 36.6566C33.5029 36.378 33.7286 36.1523 34.0069 36.1523C34.2852 36.1523 34.5112 36.378 34.5112 36.6566Z" fill="white"/>
<path d="M27.0024 38.0423C27.0024 38.3206 26.7767 38.5463 26.4984 38.5463C26.2198 38.5463 25.9941 38.3206 25.9941 38.0423C25.9941 37.7638 26.2198 37.5381 26.4984 37.5381C26.7767 37.5381 27.0024 37.7638 27.0024 38.0423Z" fill="white"/>
<path d="M39.5258 35.2462C39.5258 35.5247 39.3001 35.7504 39.0216 35.7504C38.7433 35.7504 38.5176 35.5247 38.5176 35.2462C38.5176 34.9679 38.7433 34.7422 39.0216 34.7422C39.3001 34.7422 39.5258 34.9679 39.5258 35.2462Z" fill="white"/>
<path d="M37.6977 30.804C37.6977 31.0824 37.472 31.3081 37.1937 31.3081C36.9151 31.3081 36.6895 31.0824 36.6895 30.804C36.6895 30.5255 36.9151 30.2998 37.1937 30.2998C37.472 30.2998 37.6977 30.5255 37.6977 30.804Z" fill="white"/>
</svg>
