<svg width="150" height="141" viewBox="0 0 150 141" fill="none" xmlns="http://www.w3.org/2000/svg">
<path d="M72.4691 52.2137C73.4461 53.1418 75.0712 52.954 75.8139 51.8337L90.4383 29.7626C90.5978 29.522 90.7083 29.2523 90.7635 28.969C90.8187 28.6856 90.8176 28.3942 90.7602 28.1113C90.7028 27.8284 90.5902 27.5596 90.4289 27.3202C90.2677 27.0808 90.0608 26.8755 89.8201 26.716C88.81 26.0466 87.4456 26.3234 86.775 27.3342L73.5961 47.2238L66.2731 40.2705C65.8502 39.8693 65.2854 39.6524 64.7027 39.6677C64.12 39.6829 63.5672 39.9289 63.1659 40.3517C62.9672 40.561 62.8118 40.8073 62.7084 41.0767C62.605 41.346 62.5557 41.6331 62.5633 41.9216C62.5708 42.21 62.6351 42.4941 62.7525 42.7577C62.8699 43.0213 63.038 43.2591 63.2473 43.4577C63.2461 43.4577 72.4609 52.2066 72.4688 52.2137H72.4691Z" fill="#027EBC"/>
<path d="M73.9683 85.7276C74.391 85.9207 74.8503 86.021 75.315 86.0218H75.3335C75.8051 86.0193 76.2704 85.913 76.6964 85.7106C110.109 69.8203 115.771 35.5362 116.709 25.4071C116.925 23.0941 115.623 20.9405 113.47 20.0478C106.818 17.2863 102.297 11.1111 101.67 3.93223C101.476 1.72236 99.5881 0 97.3633 0H97.3369L52.3228 0.264258C50.0535 0.276855 48.2096 2.00156 48.0358 4.27559C47.4821 11.4565 43.0267 17.6766 36.4085 20.5078C34.2777 21.4189 33.0074 23.584 33.2503 25.8955C34.3076 36.0135 40.3718 70.2302 73.9683 85.7276ZM38.1367 24.5478C46.2519 21.0779 51.7187 13.4596 52.4131 4.6582L97.2982 4.39453C98.096 13.1769 103.641 20.7252 111.786 24.1058C112.149 24.2581 112.37 24.6173 112.335 25.0019C111.454 34.4947 106.181 66.5027 75.3074 81.5024C44.2562 66.8678 38.6131 34.9216 37.6199 25.4391C37.5991 25.2547 37.6382 25.0685 37.7313 24.9079C37.8244 24.7474 37.9666 24.6211 38.137 24.5476L38.1367 24.5478Z" fill="#027EBC"/>
<path d="M43.6227 36.7285C43.8884 37.7059 45.1276 38.6006 46.32 38.2725C47.4898 37.9496 48.1821 36.747 47.864 35.5763C47.3063 33.523 46.8393 31.4462 46.4645 29.3519C52.427 25.4708 56.8677 19.6512 59.0369 12.8756L90.7689 12.6893C93.0174 19.4388 97.526 25.2058 103.534 29.0164C103.184 31.1167 102.741 33.2004 102.206 35.2613C102.06 35.8255 102.144 36.4247 102.44 36.927C102.735 37.4293 103.219 37.7936 103.783 37.9398C104.347 38.0859 104.946 38.002 105.448 37.7064C105.951 37.4107 106.315 36.9277 106.461 36.3635C107.088 33.9454 107.596 31.498 107.983 29.0302C108.089 28.3689 107.995 27.6912 107.712 27.084C107.43 26.4767 106.973 25.9676 106.399 25.6221C100.803 22.2466 96.6502 16.9234 94.7378 10.6739C94.3062 9.26738 92.98 8.29004 91.5084 8.29004H91.4879L58.2652 8.48457C56.7846 8.49365 55.4595 9.49062 55.044 10.9074C53.2013 17.1843 49.1217 22.5412 43.5588 25.9918C42.3928 26.714 41.7872 28.0584 42.0148 29.4181C42.4312 31.8797 42.9678 34.3194 43.6227 36.7285ZM102.02 43.2436C100.898 42.7792 99.6142 43.3147 99.1508 44.4359C94.073 56.7433 86.0346 66.0998 75.2519 72.258C64.3856 66.2187 56.2309 56.941 51.0099 44.6729C50.7811 44.1371 50.349 43.714 49.8085 43.4965C49.268 43.2789 48.6632 43.2848 48.127 43.5128C47.8616 43.6257 47.621 43.7898 47.419 43.9958C47.217 44.2017 47.0575 44.4454 46.9496 44.7129C46.8418 44.9805 46.7877 45.2667 46.7905 45.5551C46.7932 45.8436 46.8528 46.1287 46.9657 46.3941C52.6637 59.7816 61.6405 69.8741 73.6464 76.3892C74.1467 76.6626 74.7082 76.8044 75.2784 76.8013C75.8485 76.7981 76.4085 76.65 76.9057 76.371C88.8213 69.7229 97.6722 59.5423 103.213 46.1117C103.324 45.8451 103.38 45.5593 103.38 45.2707C103.379 44.9822 103.322 44.6965 103.211 44.4301C103.101 44.1637 102.938 43.9218 102.734 43.7182C102.529 43.5146 102.287 43.3533 102.02 43.2436ZM14.0981 112.433C9.8123 112.433 6.32422 115.921 6.32422 120.208C6.32422 124.494 9.8123 127.982 14.0981 127.982C18.3852 127.982 21.8735 124.494 21.8735 120.208C21.8735 115.921 18.3863 112.433 14.0981 112.433ZM14.0981 123.587C12.2349 123.587 10.7187 122.072 10.7187 120.208C10.7187 118.344 12.2352 116.828 14.0981 116.828C15.9623 116.828 17.479 118.344 17.479 120.208C17.479 122.072 15.9623 123.587 14.0981 123.587V123.587Z" fill="#027EBC"/>
<path d="M148.424 90.9223C145.608 86.7841 139.937 85.6875 135.784 88.4777L107.06 107.703L100.928 107.358L100.771 105.788C100.48 102.807 99.1948 100.011 97.1214 97.85C95.0481 95.689 92.3077 94.2887 89.3417 93.8748C89.3034 93.8691 89.2649 93.8645 89.2263 93.861L58.2744 91.1484C57.2273 90.985 53.8755 90.0223 44.6651 84.7397C39.878 81.9943 34.4845 80.4448 29.0051 80.2342V74.4861C29.0051 71.6007 26.659 69.2549 23.7738 69.2549H5.23096C2.34727 69.2549 0 71.6021 0 74.4861V131.101C0 133.985 2.34727 136.332 5.23096 136.332H23.7738C26.6578 136.332 29.0051 133.985 29.0051 131.101V129.541L56.061 139.787C56.1208 139.81 58.3181 140.632 62.3578 140.251C62.3692 140.25 107.314 133.77 107.314 133.77C107.325 133.769 107.335 133.767 107.347 133.764C111.191 133.15 114.805 131.531 117.823 129.071C117.85 129.048 117.877 129.025 117.903 129.002L146.938 102.888C150.359 99.8499 150.999 94.7054 148.424 90.9223ZM144.009 99.6117L115.005 125.699C112.6 127.647 109.726 128.931 106.669 129.422L61.7467 135.899C61.7336 135.9 61.7206 135.902 61.7077 135.904L61.686 135.908C60.3425 136.119 58.9427 136.03 57.525 135.642L29.0051 124.843V99.7494C29.0051 99.1667 28.7736 98.6078 28.3615 98.1957C27.9494 97.7836 27.3906 97.5521 26.8078 97.5521C26.5192 97.552 26.2335 97.6088 25.9668 97.7192C25.7002 97.8295 25.4579 97.9914 25.2539 98.1955C25.0498 98.3995 24.8879 98.6418 24.7776 98.9084C24.6672 99.1751 24.6104 99.4608 24.6105 99.7494V131.101C24.6102 131.323 24.522 131.536 24.3651 131.693C24.2083 131.85 23.9956 131.938 23.7738 131.938H5.23096C5.00914 131.938 4.79653 131.849 4.63974 131.693C4.48294 131.536 4.39476 131.323 4.39453 131.101V74.4861C4.39492 74.2644 4.48317 74.0519 4.63994 73.8951C4.79672 73.7383 5.00924 73.6501 5.23096 73.6497H23.7738C23.9956 73.65 24.2082 73.7382 24.365 73.895C24.5219 74.0518 24.6102 74.2644 24.6105 74.4861V89.8236C24.6105 90.4064 24.842 90.9653 25.2541 91.3773C25.6662 91.7894 26.2251 92.0209 26.8078 92.0209C27.3906 92.0209 27.9494 91.7894 28.3615 91.3773C28.7736 90.9653 29.0051 90.4064 29.0051 89.8236V84.6337C33.7189 84.8417 38.3561 86.1876 42.4781 88.5533C53.5869 94.9242 56.6894 95.3637 57.709 95.5078C57.7479 95.5137 57.7857 95.5169 57.8247 95.5216L88.7798 98.2339C90.7598 98.5227 92.5859 99.4665 93.9668 100.915C95.3477 102.363 96.2037 104.232 96.3981 106.223L96.515 107.394L55.0723 109.953C54.3977 109.905 53.7397 109.722 53.138 109.413C52.5363 109.104 52.0034 108.677 51.5713 108.157C51.3866 107.935 51.1601 107.752 50.9046 107.618C50.6491 107.484 50.3697 107.402 50.0824 107.376C49.795 107.349 49.5054 107.38 49.2299 107.466C48.9545 107.552 48.6987 107.692 48.4772 107.877C48.2555 108.061 48.0723 108.288 47.9382 108.543C47.8041 108.799 47.7216 109.078 47.6956 109.366C47.6695 109.653 47.7004 109.943 47.7864 110.218C47.8724 110.494 48.0119 110.749 48.1969 110.971C49.8094 112.905 52.0846 114.062 54.5985 114.323C55.9559 114.465 98.932 111.647 98.932 111.647L107.547 112.131C108.023 112.158 108.496 112.029 108.892 111.763L138.232 92.1272C140.387 90.6797 143.329 91.2472 144.791 93.394C146.126 95.3578 145.794 98.0268 144.009 99.6117Z" fill="#027EBC"/>
</svg>
