<svg width="70" height="70" viewBox="0 0 70 70" fill="none" xmlns="http://www.w3.org/2000/svg">
<circle cx="35" cy="35" r="35" fill="#121212"/>
<path d="M26.3867 43.0498H27.4636V44.1267H26.3867V43.0498Z" fill="white"/>
<path d="M30.1562 45.7412H31.2331V46.8181H30.1562V45.7412Z" fill="white"/>
<path d="M38.2324 30.666H39.3093V31.7429H38.2324V30.666Z" fill="white"/>
<path d="M42.001 31.2041H43.0778V32.281H42.001V31.2041Z" fill="white"/>
<path d="M40.9238 33.8965H42.0007V34.9733H40.9238V33.8965Z" fill="white"/>
<path d="M45.7705 33.8965H46.8474V34.9733H45.7705V33.8965Z" fill="white"/>
<path d="M47.3857 30.666H48.4626V31.7429H47.3857V30.666Z" fill="white"/>
<path d="M47.8697 47.6549C47.7781 47.4715 47.5902 47.3559 47.3851 47.3571H43.6162V38.1737C47.5214 37.8658 50.6157 34.2588 50.6157 29.858V29.6457V29.6275C50.613 29.4616 50.6075 29.2614 50.6 29.0326C50.5462 27.4086 50.3703 24.323 50.0616 23.482C49.9837 23.2681 49.7799 23.1262 49.5523 23.1277H47.0873L47.3166 21.9237L50.2472 20.9459L49.9068 19.9229L46.6763 20.9997L46.6765 20.9999C46.4919 21.0615 46.3547 21.2177 46.3179 21.409L45.9905 23.1277H36.6034C36.3777 23.1275 36.1758 23.2681 36.098 23.4798C35.7884 24.3209 35.6134 27.4065 35.5595 29.0304C35.5521 29.2592 35.5465 29.4612 35.5439 29.6253V29.6436V29.8558C35.5439 34.2565 38.6382 37.8633 42.5434 38.1716V47.3568H41.0099C41.6151 45.98 41.6161 44.4123 41.0123 43.0348C40.4087 41.6572 39.2557 40.5952 37.8329 40.1071C36.4104 39.6186 34.8483 39.7484 33.5258 40.465L33.9248 36.0989C33.9385 35.9478 33.888 35.798 33.7856 35.686C33.683 35.5742 33.538 35.5108 33.3864 35.5115H19.3873C19.2356 35.5108 19.0907 35.5742 18.9881 35.686C18.8857 35.798 18.8352 35.9478 18.8489 36.0989L19.9257 47.9209V50.0486C19.9257 50.1914 19.9825 50.3284 20.0834 50.4294C20.1844 50.5303 20.3214 50.5871 20.4642 50.5871H32.3095C32.4523 50.5871 32.5893 50.5303 32.6903 50.4294C32.7912 50.3284 32.8479 50.1914 32.8479 50.0486V49.5049C33.7784 50.2075 34.9125 50.5876 36.0785 50.5871H51.1544V49.5102H48.7949L47.8697 47.6549ZM49.135 24.2048C49.3342 25.6331 49.4568 27.071 49.5023 28.5122H46.0616L46.8823 24.2048H49.135ZM45.7854 24.2048L44.9653 28.5122H36.6532C36.6987 27.071 36.8213 25.6331 37.0205 24.2048H45.7854ZM36.6168 29.8583C36.6168 29.784 36.6168 29.6936 36.6195 29.5891H44.7604L44.1643 32.7184L45.2217 32.9208L45.8568 29.589H49.539C49.539 29.6936 49.5416 29.7839 49.5416 29.8582C49.539 33.8664 46.6406 37.1266 43.0781 37.1266C39.5155 37.1266 36.617 33.8661 36.617 29.8582L36.6168 29.8583ZM31.8179 47.3574H20.9559L20.5181 42.5116H23.3578C23.1862 42.8764 23.1574 43.2925 23.2768 43.6778C23.3965 44.0629 23.6556 44.3895 24.0039 44.5931L26.8037 46.2084C27.0491 46.3502 27.3277 46.4245 27.6114 46.4238C27.7532 46.4243 27.8945 46.4062 28.0318 46.3699C28.4464 46.2599 28.7997 45.9882 29.0127 45.6162L30.628 42.8163C30.6818 42.7195 30.7253 42.6173 30.7585 42.5116H32.2586L31.8179 47.3574ZM29.5565 42.5116L28.0741 45.0787C27.9256 45.3359 27.5965 45.4241 27.3394 45.2758L24.5395 43.6605C24.2819 43.512 24.1937 43.1827 24.3424 42.925L24.5826 42.5116L29.5565 42.5116ZM25.2022 41.4347L25.956 40.1274C26.0272 40.0036 26.1449 39.9132 26.2829 39.8759C26.3286 39.8642 26.3757 39.8579 26.4228 39.8577C26.5173 39.8579 26.6103 39.8829 26.692 39.9303L29.3008 41.4347L25.2022 41.4347ZM32.7943 36.5889L32.354 41.4347H30.724C30.5952 41.0888 30.3503 40.7985 30.031 40.6131L27.2312 38.9978C26.8601 38.7834 26.4188 38.7253 26.0049 38.8363C25.5907 38.9474 25.2378 39.2185 25.0237 39.5901L23.961 41.4347H20.4175L19.9798 36.5889H32.7943ZM31.7713 49.5111H21.0028V48.4342H31.7713V49.5111ZM32.8482 48.0434V47.9217L33.4017 41.8344V41.8342C34.2858 41.1294 35.4117 40.8008 36.5362 40.9188C37.6606 41.0371 38.6935 41.5926 39.4121 42.4656C40.1306 43.3384 40.477 44.459 40.3765 45.5851C40.2763 46.7115 39.7371 47.753 38.8754 48.4852C38.0139 49.2173 36.8988 49.5812 35.7713 49.4986C34.6437 49.4159 33.5938 48.8933 32.8482 48.0434ZM39.2951 49.5111C39.7088 49.2012 40.076 48.834 40.3859 48.4203V48.4342H47.0525L47.591 49.5111L39.2951 49.5111Z" fill="white"/>
<path d="M37.312 43.6531C37.1022 43.4428 37.1022 43.1024 37.312 42.8923L36.5508 42.1311V42.1309C36.2438 42.433 36.0701 42.8452 36.0684 43.2757C36.0667 43.7064 36.2371 44.1201 36.5417 44.4244C36.8462 44.729 37.2599 44.8994 37.6904 44.8975C38.1211 44.8955 38.5333 44.722 38.8352 44.4148L38.0732 43.6536C37.8605 43.8576 37.5245 43.8574 37.312 43.6531Z" fill="white"/>
</svg>
